<?xml version="1.0" encoding="UTF-8"?>
<svg width="149px" height="45px" viewBox="0 0 149 45" version="1.1" xmlns="http://www.w3.org/2000/svg" xmlns:xlink="http://www.w3.org/1999/xlink">
    <title>Group 4</title>
    <defs>
        <linearGradient x1="50%" y1="0%" x2="40.5842281%" y2="100%" id="linearGradient-1">
            <stop stop-color="#1EC8FB" offset="0%"></stop>
            <stop stop-color="#1DB4F9" offset="21.7959718%"></stop>
            <stop stop-color="#1D9FF7" offset="50.650289%"></stop>
            <stop stop-color="#1F79F4" offset="81.9906069%"></stop>
            <stop stop-color="#206FF2" offset="100%"></stop>
        </linearGradient>
    </defs>
    <g id="Page-1" stroke="none" stroke-width="1" fill="none" fill-rule="evenodd">
        <g id="Artboard-Copy-3" transform="translate(-19.000000, -10.000000)">
            <g id="Group-4" transform="translate(19.000000, 10.000000)">
                <g id="Group-3">
                    <path d="M29,42.5 L29.0000506,42.5249943 C29.0808124,42.508604 29.1644014,42.5 29.25,42.5 C29.9403559,42.5 30.5,43.0596441 30.5,43.75 C30.5,44.4403559 29.9403559,45 29.25,45 C29.1644014,45 29.0808124,44.991396 29.0000506,44.9750057 L29,45 L16,45 L16.0009341,44.9748055 C15.9198671,44.9913259 15.8359465,45 15.75,45 C15.0596441,45 14.5,44.4403559 14.5,43.75 C14.5,43.0596441 15.0596441,42.5 15.75,42.5 C15.8359465,42.5 15.9198671,42.5086741 16.0009341,42.5251945 L16,42.5 L29,42.5 Z M43.25,33 C43.9403559,33 44.5,33.5596441 44.5,34.25 C44.5,34.3359465 44.4913259,34.4198671 44.4748055,34.5009341 L44.5587601,34.5006941 C43.3769818,39.0912442 39.9253956,42.7704814 35.471771,44.2706364 C35.2683656,44.4149569 35.0191143,44.5 34.75,44.5 C34.0596441,44.5 33.5,43.9403559 33.5,43.25 C33.5,42.5596441 34.0596441,42 34.75,42 C34.8359465,42 34.9198671,42.0086741 35.0009341,42.0251945 L35.0008563,41.9311904 C38.3892237,40.7944775 41.0413192,38.0530557 42.0542537,34.6098141 C42.0183852,34.4959599 42,34.375127 42,34.25 C42,33.5596441 42.5596441,33 43.25,33 Z M1.75,33 C2.44035594,33 3,33.5596441 3,34.25 C3,34.375127 2.98161482,34.4959599 2.94739846,34.6099448 L2.91438593,34.5011345 C3.90317113,37.9956562 6.57572309,40.7830861 10.0001435,41.9315257 L10.0000506,42.0249943 C10.0808124,42.008604 10.1644014,42 10.25,42 C10.9403559,42 11.5,42.5596441 11.5,43.25 C11.5,43.9403559 10.9403559,44.5 10.25,44.5 C9.98133055,44.5 9.73245838,44.4152378 9.52866623,44.2709961 C5.07509744,42.7710069 1.62310263,39.091572 0.441239864,34.5006941 L0.525194518,34.5009341 C0.508674061,34.4198671 0.5,34.3359465 0.5,34.25 C0.5,33.5596441 1.05964406,33 1.75,33 Z M31.5,5.5 C35.918278,5.5 39.5,9.081722 39.5,13.5 L39.5,31.5 C39.5,35.918278 35.918278,39.5 31.5,39.5 L13.5,39.5 C9.081722,39.5 5.5,35.918278 5.5,31.5 L5.5,13.5 C5.5,9.081722 9.081722,5.5 13.5,5.5 L31.5,5.5 Z M1.25,14.5 C1.85475737,14.5 2.35920773,14.9294653 2.47500575,15.5000506 L2.5,15.5 L2.5,29 L2.47480548,29.0009341 C2.35862721,29.5710287 1.85440941,30 1.25,30 C0.645590593,30 0.141372794,29.5710287 0.0251945182,29.0009341 L0,29 L0,15.5 L0.0249942507,15.5000506 C0.140792265,14.9294653 0.645242632,14.5 1.25,14.5 Z M43.75,14.5 C44.3547574,14.5 44.8592077,14.9294653 44.9750057,15.5000506 L45,15.5 L45,29 L44.9748055,29.0009341 C44.8586272,29.5710287 44.3544094,30 43.75,30 C43.1455906,30 42.6413728,29.5710287 42.5251945,29.0009341 L42.5,29 L42.5,15.5 L42.5249943,15.5000506 C42.6407923,14.9294653 43.1452426,14.5 43.75,14.5 Z M34.75,0.5 C35.0191143,0.5 35.2683656,0.585043126 35.4723456,0.729720844 C39.6070371,2.12233304 42.8782988,5.39381301 44.2709209,9.52907371 C44.4152378,9.73245838 44.5,9.98133055 44.5,10.25 C44.5,10.9403559 43.9403559,11.5 43.25,11.5 C42.5596441,11.5 42,10.9403559 42,10.25 C42,10.1644014 42.008604,10.0808124 42.0249943,10.0000506 L41.9315257,10.0001435 C40.838379,6.74059564 38.2602648,4.16226 35.0008563,3.06880959 L35.0009341,2.97480548 C34.9198671,2.99132594 34.8359465,3 34.75,3 C34.0596441,3 33.5,2.44035594 33.5,1.75 C33.5,1.05964406 34.0596441,0.5 34.75,0.5 Z M10.25,0.5 C10.9403559,0.5 11.5,1.05964406 11.5,1.75 C11.5,2.44035594 10.9403559,3 10.25,3 C10.1644014,3 10.0808124,2.99139603 10.0000506,2.97500575 L10.0001435,3.06847426 C6.74026238,4.16173279 4.16173279,6.74026238 3.06847426,10.0001435 L2.97500575,10.0000506 C2.99139603,10.0808124 3,10.1644014 3,10.25 C3,10.9403559 2.44035594,11.5 1.75,11.5 C1.05964406,11.5 0.5,10.9403559 0.5,10.25 C0.5,9.98133055 0.584762224,9.73245838 0.729003923,9.52866623 C2.12182649,5.39347706 5.39347706,2.12182649 9.5290391,0.729090778 C9.73245838,0.584762224 9.98133055,0.5 10.25,0.5 Z M29,0 L29.0000506,0.0249942507 C29.0808124,0.00860396786 29.1644014,0 29.25,0 C29.9403559,0 30.5,0.559644063 30.5,1.25 C30.5,1.94035594 29.9403559,2.5 29.25,2.5 C29.1644014,2.5 29.0808124,2.49139603 29.0000506,2.47500575 L29,2.5 L16,2.5 L16.0009341,2.47480548 C15.9198671,2.49132594 15.8359465,2.5 15.75,2.5 C15.0596441,2.5 14.5,1.94035594 14.5,1.25 C14.5,0.559644063 15.0596441,0 15.75,0 C15.8359465,0 15.9198671,0.00867406099 16.0009341,0.0251945182 L16,0 L29,0 Z" id="Combined-Shape" fill="url(#linearGradient-1)"></path>
                    <path d="M14.6842399,28.8488185 C15.3383368,28.848775 15.9923596,29.0685394 16.4935707,29.5082133 C16.6007599,29.6022385 16.6948733,29.7030716 16.7791261,29.8080486 L16.7791261,29.8080486 L15.3231872,32.3809136 C14.8973895,32.9942774 14.0807964,33.1855239 13.4296099,32.8019382 C12.7386521,32.3949309 12.5036571,31.4997333 12.9025815,30.7947667 L12.9025815,30.7947667 L13.9502698,28.9435158 C14.1894277,28.8805857 14.4368061,28.8488185 14.6842399,28.8488185 Z M24.7929322,18.0423349 L28.9197645,25.3349108 L32.5597346,25.3349108 C33.3575869,25.3349156 34,25.990099 34,26.8041234 C34,27.5712947 33.4294326,28.197288 32.6959001,28.2668326 L32.6959001,28.2668326 L30.578727,28.2668326 L31.9849516,30.7517455 C32.3838721,31.4567168 32.1488796,32.3519096 31.4579232,32.7589169 C30.806734,33.1425026 29.9901424,32.9512561 29.5643456,32.3378924 L29.5643456,32.3378924 L23.9622269,22.4384697 C23.5042657,21.3655932 23.5376154,19.7822313 24.0596971,18.7824388 C24.2687743,18.3820363 24.5253438,18.1373561 24.7929322,18.0423349 L24.7929322,18.0423349 Z M24.3290038,12.0005483 C24.561052,12.0071148 24.7951291,12.0729192 25.0110534,12.2035842 C25.7020112,12.6216963 25.9372508,13.5413185 25.5383263,14.2655143 L25.5383263,14.2655143 L19.4841196,25.2559085 L24.0664692,25.2559085 C24.3964378,25.2559085 24.6713923,25.5380507 24.9248481,25.7664537 C25.6779928,26.4451607 25.8631455,27.4344467 25.4844481,28.2678247 L25.4844481,28.2678247 L12.4400197,28.2678247 C11.6421727,28.2678247 11,27.5945021 11,26.7582729 C11,26.4969479 11.062548,26.2516765 11.1731456,26.0377626 C11.3962108,25.6062989 11.8141591,25.3033941 12.304835,25.2559085 L12.304835,25.2559085 L16.1659504,25.2559085 L20.7727899,16.892921 L19.3254227,14.2655143 C18.926502,13.5413185 19.1617354,12.6216914 19.8526956,12.2035842 C20.0686204,12.0729192 20.3026984,12.0071049 20.5347457,12.0005483 C21.0027871,11.9872811 21.4619482,12.2152222 21.7465174,12.6368609 L21.7465174,12.6368609 L22.4317522,13.8810048 L23.1172316,12.6368609 C23.4018032,12.2152222 23.860962,11.9872861 24.3290038,12.0005483 Z" id="Combined-Shape" fill="#FFFFFF"></path>
                </g>
                <text id="AppClips" font-family="SFProDisplay-Regular, SF Pro Display" font-size="25" font-weight="normal" fill="#FFFFFF">
                    <tspan x="53" y="31">AppClips</tspan>
                </text>
            </g>
        </g>
    </g>
</svg>