<?xml version="1.0" encoding="UTF-8"?>
<svg width="24px" height="24px" viewBox="0 0 24 24" version="1.1" xmlns="http://www.w3.org/2000/svg" xmlns:xlink="http://www.w3.org/1999/xlink">
    <title>Behance</title>
    <g id="Page-1" stroke="none" stroke-width="1" fill="none" fill-rule="evenodd">
        <path d="M8.228,15.01 L6,15.01 L6,13 L8.261,13 C10.139,13 10.264,15.01 8.228,15.01 Z M14.986,12.333 L18.004,12.333 C17.887,10.618 15.274,10.356 14.986,12.333 Z M8.182,9 L6,9 L6,11 L8.389,11 C10.062,11 10.326,9 8.182,9 L8.182,9 Z M24,5 L24,19 C24,21.761 21.762,24 19,24 L5,24 C2.238,24 0,21.761 0,19 L0,5 C0,2.239 2.238,0 5,0 L19,0 C21.762,0 24,2.239 24,5 Z M14,8 L19,8 L19,7 L14,7 L14,8 Z M10.448,11.618 C12.355,10.644 12.285,7.068 8.635,7.014 L4,7.014 L4,16.992 L8.311,16.992 C12.833,16.992 12.756,12.458 10.448,11.618 Z M19.935,12.22 C19.661,10.457 18.407,9.27 16.352,9.27 C14.258,9.27 13,10.61 13,13.217 C13,15.848 14.367,17 16.416,17 C18.465,17 19.522,15.865 19.816,15 L17.705,15 C16.969,15.855 14.812,15.521 14.938,13.647 L19.998,13.647 C20.008,13.013 19.986,12.558 19.935,12.22 Z" id="Behance" fill="#000000" fill-rule="nonzero"></path>
    </g>
</svg>