<?xml version="1.0" encoding="UTF-8"?>
<svg width="980px" height="980px" viewBox="0 0 980 980" version="1.1" xmlns="http://www.w3.org/2000/svg" xmlns:xlink="http://www.w3.org/1999/xlink">
    <!-- Generator: Sketch 64 (93537) - https://sketch.com -->
    <title>4a1bd9f3094ba5fefb822bdbfd3358c9</title>
    <desc>Created with Sketch.</desc>
    <g id="Page-1" stroke="none" stroke-width="1" fill="none" fill-rule="evenodd">
        <g id="4a1bd9f3094ba5fefb822bdbfd3358c9" fill="#000000" fill-rule="nonzero">
            <path d="M952.6,952.6 C916.1,989.1 856.9,989.1 820.4,952.6 L490,622.2 L159.6,952.6 C123.1,989.1 63.9,989.1 27.4,952.6 C-9.1,916.1 -9.1,856.9 27.4,820.4 L357.8,490 L27.4,159.6 C-9.1,123.1 -9.1,63.9 27.4,27.4 C63.9,-9.1 123.1,-9.1 159.6,27.4 L490,357.8 L820.4,27.4 C856.9,-9.1 916.1,-9.1 952.6,27.4 C989.1,63.9 989.1,123.1 952.6,159.6 L622.2,490 L952.6,820.4 C989.1,856.9 989.1,916.1 952.6,952.6 Z" id="Path"></path>
        </g>
    </g>
</svg>