<?xml version="1.0" encoding="UTF-8"?>
<svg width="448px" height="512px" viewBox="0 0 448 512" version="1.1" xmlns="http://www.w3.org/2000/svg" xmlns:xlink="http://www.w3.org/1999/xlink">
    <!-- Generator: Sketch 64 (93537) - https://sketch.com -->
    <title>Shape</title>
    <desc>Created with Sketch.</desc>
    <g id="Page-1" stroke="none" stroke-width="1" fill="none" fill-rule="evenodd">
        <g id="copy" fill="#007AFF" fill-rule="nonzero">
            <path d="M433.941,65.941 L382.059,14.059 C373.057305,5.05723856 360.848366,-1.0658141e-14 348.118,-1.0658141e-14 L176,-1.0658141e-14 C149.49,-1.0658141e-14 128,21.49 128,48 L128,96 L48,96 C21.49,96 0,117.49 0,144 L0,464 C0,490.51 21.49,512 48,512 L272,512 C298.51,512 320,490.51 320,464 L320,416 L400,416 C426.51,416 448,394.51 448,368 L448,99.882 C448,87.151634 442.942761,74.9426949 433.941,65.941 Z M266,464 L54,464 C50.6862915,464 48,461.313708 48,458 L48,150 C48,146.686292 50.6862915,144 54,144 L128,144 L128,368 C128,394.51 149.49,416 176,416 L272,416 L272,458 C272,461.313708 269.313708,464 266,464 Z M394,368 L182,368 C178.686292,368 176,365.313708 176,362 L176,54 C176,50.6862915 178.686292,48 182,48 L288,48 L288,136 C288,149.255 298.745,160 312,160 L400,160 L400,362 C400,365.313708 397.313708,368 394,368 L394,368 Z M400,112 L336,112 L336,48 L345.632,48 C347.223,48 348.749,48.632 349.875,49.757 L398.243,98.125 C399.368175,99.2503651 400,100.776628 400,102.368 L400,112 L400,112 Z" id="Shape"></path>
        </g>
    </g>
</svg>