<?xml version="1.0" encoding="UTF-8"?>
<svg width="601px" height="614px" viewBox="0 0 601 614" version="1.1" xmlns="http://www.w3.org/2000/svg" xmlns:xlink="http://www.w3.org/1999/xlink">
    <title>Shape</title>
    <g id="Page-1" stroke="none" stroke-width="1" fill="none" fill-rule="evenodd">
        <path d="M533.1,112.9 C574.9,165.1 600.2,231.6 600.9,304.1 C591,302 491.7,281.4 391.9,294.2 C389.8,288.9 387.6,283.7 385.4,278.4 C379.2,263.4 372.5,248.6 365.5,233.9 C476.4,187.6 526.8,121.6 533.1,112.9 Z M300.7,0.1 C377,0.1 446.7,29.4 499.7,77.4 C494.3,85.3 449.1,147.4 342.4,188.3 C293.2,95.9 238.7,20 230.4,8.6 C252.9,3 276.5,0.1 300.7,0.1 Z M173,29.2 C180.9,40.3 234.6,116.3 284.3,206.7 C143.9,244.8 20.2,244.3 6.7,244.1 C26.3,148.9 89.1,69.7 173,29.2 Z M0.5,307 C0.5,303.9 0.6,300.7 0.7,297.6 C13.8,297.9 159.3,299.8 309.3,253.9 C317.9,271.1 326.1,288.5 333.6,306 C329.6,307.1 325.7,308.4 321.8,309.7 C167,360.9 84.6,500.3 77.8,512.2 C29.7,457.8 0.5,385.8 0.5,307 Z M300.7,613.9 C231.3,613.9 167.3,589.7 116.4,549.1 C121.8,537.8 182.6,417.8 351.9,357.4 C352.6,357.2 353.2,356.9 353.9,356.7 C396,468.7 413.5,562.5 417.9,589.4 C381.9,605.2 342.3,613.9 300.7,613.9 Z M468.4,561.4 C465.3,542.7 449.3,452.9 410.1,342.6 C504.2,327.2 586.8,352.4 597.1,355.7 C583.7,441.1 535.8,514.8 468.4,561.4 Z" id="Shape" fill="#000000" fill-rule="nonzero"></path>
    </g>
</svg>