<?xml version="1.0" encoding="UTF-8"?>
<svg width="32px" height="32px" viewBox="0 0 32 32" version="1.1" xmlns="http://www.w3.org/2000/svg" xmlns:xlink="http://www.w3.org/1999/xlink">
    <title>Shape</title>
    <g id="Page-1" stroke="none" stroke-width="1" fill="none" fill-rule="evenodd">
        <path d="M16,32 C24.836,32 32,24.836 32,16 C32,7.164 24.836,0 16,0 C7.164,0 0,7.164 0,16 C0,24.836 7.164,32 16,32 Z M18,18 C18,19.1045695 17.1045695,20 16,20 C14.8954305,20 14,19.1045695 14,18 L14,8 C14,6.8954305 14.8954305,6 16,6 C17.1045695,6 18,6.8954305 18,8 L18,18 Z M15.9999999,21.9685 C16.714531,21.9686786 17.3746898,22.3500415 17.7318007,22.9689329 C18.0889116,23.5878244 18.0887211,24.35022 17.7313008,24.9689329 C17.3738806,25.5876457 16.7135313,25.9686785 15.9990001,25.9685 C14.8944307,25.9682238 13.999224,25.0725696 13.9995,23.9680001 C13.9997762,22.8634307 14.8954304,21.968224 15.9999999,21.9685 Z" id="Shape" fill="#DF2549" fill-rule="nonzero"></path>
    </g>
</svg>