<?xml version="1.0" encoding="UTF-8"?>
<svg width="120px" height="120px" viewBox="0 0 120 120" version="1.1" xmlns="http://www.w3.org/2000/svg" xmlns:xlink="http://www.w3.org/1999/xlink">
    <!-- Generator: Sketch 64 (93537) - https://sketch.com -->
    <title>Artboard Copy 10</title>
    <desc>Created with Sketch.</desc>
    <g id="Artboard-Copy-10" stroke="none" stroke-width="1" fill="none" fill-rule="evenodd">
        <g id="Group-2" fill-rule="nonzero">
            <path d="M110.305183,69.9512657 C110.066236,69.9716539 109.824411,69.9820593 109.580135,69.9820593 L103.936647,69.9820593 L103.936647,115.743072 C103.936647,118.094108 102.047223,120 99.7165002,120 L19.5337083,120 C17.2029855,120 15.3135614,118.094108 15.3135614,115.743072 L15.3135614,69.9820593 L10.5601413,69.9820593 C10.2953458,69.9820593 10.033431,69.9698324 9.77494018,69.9459169 C8.00502629,70.075386 6.1914573,69.457581 4.83817315,68.0925021 L1.85407863,65.0823992 C-0.618026211,62.5887483 -0.618026211,58.5457414 1.85407863,56.0520905 L55.56778,1.87023817 C56.7926619,0.634680548 58.3946271,0.0113187388 60,4.26325641e-14 C52.0869713,5.32297858 52.2821727,5.09587259 52.4958419,4.88034108 L55.4799364,1.87023817 C56.7271594,0.612144829 58.3653465,-0.0112169799 60,4.26325641e-14 C61.6346539,-0.0112168382 63.2728407,0.612144972 64.5200636,1.87023817 L67.5041581,4.88034108 C67.7178273,5.09587259 67.9130287,5.32297858 68.0897621,5.55965824 L81.7808757,19.370099 L81.7808757,14.6410232 C81.7808757,11.1144683 84.6150119,8.2556307 88.1110961,8.2556307 L97.6064267,8.2556307 C101.102511,8.2556307 103.936647,11.1144683 103.936647,14.6410232 L103.936647,41.7189729 L118.145921,56.0520905 C120.618026,58.5457414 120.618026,62.5887483 118.145921,65.0823992 L115.161827,68.0925021 C113.828956,69.4369895 112.049583,70.0565773 110.305183,69.9512657 L110.305183,69.9512657 Z" id="Path" fill="#2E2E2E"></path>
            <path d="M14.8271384,73.1199763 L31.7385855,73.0727156 L38.0841258,64.0165987 C38.4812463,63.4498428 39.2801317,63.3005084 39.8684862,63.6830506 C40.1402261,63.8597326 40.3316029,64.129768 40.4034569,64.4379017 L48.9371096,101.032996 C49.0926835,101.700148 49.7802453,102.119493 50.4728221,101.96963 C50.953175,101.86569 51.3296833,101.50656 51.4423144,101.044889 L63.2720515,52.5551222 C63.4344442,51.88948 64.1262633,51.4766827 64.8172729,51.6331136 C65.2848728,51.7389689 65.6521736,52.0871588 65.7695447,52.5358379 L76.5460109,93.7314375 C76.7194598,94.3944862 77.4180598,94.7965478 78.1063772,94.6294664 C78.5005537,94.5337845 78.8245065,94.2641168 78.9799318,93.9022946 L87.90724,73.1199763 L104.827138,73.1199763" id="Path-6" stroke="#F2F2F7" stroke-width="6.48" stroke-linecap="round" stroke-linejoin="round"></path>
        </g>
    </g>
</svg>