<?xml version="1.0" encoding="UTF-8"?>
<svg width="512px" height="512px" viewBox="0 0 512 512" version="1.1" xmlns="http://www.w3.org/2000/svg" xmlns:xlink="http://www.w3.org/1999/xlink">
    <!-- Generator: Sketch 64 (93537) - https://sketch.com -->
    <title>instagram</title>
    <desc>Created with Sketch.</desc>
    <g id="Page-1" stroke="none" stroke-width="1" fill="none" fill-rule="evenodd">
        <g id="instagram" fill="#000000" fill-rule="nonzero">
            <path d="M437,0 L75,0 C33.648438,0 0,33.648438 0,75 L0,437 C0,478.351562 33.648438,512 75,512 L437,512 C478.351562,512 512,478.351562 512,437 L512,75 C512,33.648438 478.351562,0 437,0 Z M257,390 C182.558594,390 122,329.441406 122,255 C122,180.558594 182.558594,120 257,120 C331.441406,120 392,180.558594 392,255 C392,329.441406 331.441406,390 257,390 Z M407,150 C382.1875,150 362,129.8125 362,105 C362,80.1875 382.1875,60 407,60 C431.8125,60 452,80.1875 452,105 C452,129.8125 431.8125,150 407,150 Z" id="Shape"></path>
            <path d="M257,150 C199.109375,150 152,197.109375 152,255 C152,312.890625 199.109375,360 257,360 C314.890625,360 362,312.890625 362,255 C362,197.109375 314.890625,150 257,150 Z" id="Path"></path>
        </g>
    </g>
</svg>