<?xml version="1.0" encoding="UTF-8"?>
<svg width="44px" height="44px" viewBox="0 0 44 44" version="1.1" xmlns="http://www.w3.org/2000/svg" xmlns:xlink="http://www.w3.org/1999/xlink">
    <title>Combined Shape</title>
    <g id="Page-1" stroke="none" stroke-width="1" fill="none" fill-rule="evenodd">
        <path d="M30.5,1 C34.4,1.2 37.4,2.3 39.5,4.5 C41.6,6.7 42.8,9.6 43,13.5 C43,15.0428571 43.0929847,17.7945153 43.0996265,21.8446383 L43.0994306,24.4702123 C43.0968112,27.5942602 43.0821429,29.7857143 43,31.1 C42.8,35 41.7,38 39.5,40.1 C37.3,42.2 34.4,43.4 30.5,43.6 C29.1962963,43.6814815 26.9631001,43.6965706 23.9086064,43.6993649 L19.5297877,43.6994306 C16.4057398,43.6968112 14.2142857,43.6821429 12.9,43.6 C9,43.4 6,42.3 3.9,40.1 C1.8,38 0.6,35 0.4,31.1 C0.307407407,29.6185185 0.300548697,26.9367627 0.300040644,23.213499 L0.300040644,21.386501 C0.300548697,17.6632373 0.307407407,14.9814815 0.4,13.5 C0.6,9.6 1.7,6.6 3.9,4.5 C6,2.4 9,1.2 12.9,1 C14.3814815,0.907407407 17.0632373,0.900548697 20.786501,0.900040644 L22.6000364,0.900036443 C26.4076531,0.900510204 29.0142857,0.907142857 30.5,1 Z M21.6,11.3 C18.5,11.3 15.9,12.4 13.8,14.5 C11.7,16.7 10.6,19.2 10.6,22.3 C10.6,25.4 11.7,28 13.8,30.1 C16,32.2 18.5,33.3 21.6,33.3 C24.7,33.3 27.3,32.2 29.4,30.1 C31.5,27.9 32.6,25.4 32.6,22.3 C32.6,19.2 31.5,16.6 29.4,14.5 C27.3,12.3 24.7,11.3 21.6,11.3 Z M21.6,15.1 C23.6,15.1 25.3,15.8 26.7,17.2 C28.1,18.6 28.8,20.4 28.8,22.3 C28.8,24.2 28.1,25.9 26.7,27.3 C25.3,28.7 23.6,29.4 21.6,29.4 C19.6,29.4 17.9,28.7 16.5,27.3 C15.1,26 14.4,24.3 14.4,22.3 C14.4,20.3 15.1,18.6 16.5,17.2 C17.9,15.8 19.6,15.1 21.6,15.1 Z M33.1,8.2 C32.4,8.2 31.8,8.5 31.3,9 C30.8,9.5 30.5,10.1 30.5,10.8 C30.5,11.5 30.8,12.1 31.3,12.6 C31.8,13.1 32.4,13.4 33.1,13.4 C33.8,13.4 34.4,13.1 34.9,12.6 C35.4,12.1 35.7,11.5 35.7,10.8 C35.7,10.1 35.4,9.5 34.9,9 C34.4,8.5 33.8,8.2 33.1,8.2 Z" id="Combined-Shape" fill="#000000" fill-rule="nonzero"></path>
    </g>
</svg>