<?xml version="1.0" encoding="UTF-8"?>
<svg width="28px" height="18px" viewBox="0 0 28 18" version="1.1" xmlns="http://www.w3.org/2000/svg" xmlns:xlink="http://www.w3.org/1999/xlink">
    <title>menuLight</title>
    <g id="Page-1" stroke="none" stroke-width="1" fill="none" fill-rule="evenodd">
        <g id="menuLight" fill="#000000" fill-rule="nonzero">
            <path d="M26,14 L2,14 C0.896,14 0,14.896 0,16 C0,17.104 0.896,18 2,18 L26,18 C27.104,18 28,17.104 28,16 C28,14.896 27.104,14 26,14 Z" id="secondBar"></path>
            <path d="M2,4 L26,4 C27.104,4 28,3.104 28,2 C28,0.896 27.104,0 26,0 L2,0 C0.896,0 0,0.896 0,2 C0,3.104 0.896,4 2,4 Z" id="firstBar"></path>
        </g>
    </g>
</svg>