<?xml version="1.0" encoding="UTF-8"?>
<svg width="609px" height="609px" viewBox="0 0 609 609" version="1.1" xmlns="http://www.w3.org/2000/svg" xmlns:xlink="http://www.w3.org/1999/xlink">
    <!-- Generator: Sketch 64 (93537) - https://sketch.com -->
    <title>Artboard</title>
    <desc>Created with Sketch.</desc>
    <g id="Artboard" stroke="none" stroke-width="1" fill="none" fill-rule="evenodd">
        <path d="M444.005,47.995 C484.401868,47.995 517.15,80.743132 517.15,121.14 L517.15,486.86 C517.15,506.259667 509.442828,524.864628 495.724255,538.581326 C482.163366,552.140361 463.826745,559.822149 444.668633,559.996951 L444,560.000001 C403.605893,560.000001 370.86,527.254107 370.86,486.86 L370.86,121.14 C370.86,80.743132 403.608132,47.995 444.005,47.995 Z M166.005,47.995 C206.401868,47.995 239.15,80.743132 239.15,121.14 L239.15,486.86 C239.15,506.259667 231.442828,524.864628 217.724255,538.581326 C204.005681,552.298024 185.399667,560.000001 166,560.000001 C125.605893,560.000001 92.86,527.254107 92.86,486.86 L92.86,121.14 C92.86,80.743132 125.608132,47.995 166.005,47.995 Z" id="Combined-Shape" fill="#2E2E2E" fill-rule="nonzero"></path>
    </g>
</svg>