<?xml version="1.0" encoding="UTF-8"?>
<svg width="197px" height="109px" viewBox="0 0 197 109" version="1.1" xmlns="http://www.w3.org/2000/svg" xmlns:xlink="http://www.w3.org/1999/xlink">
    <title>Combined Shape Copy 2</title>
    <g id="Symbols" stroke="none" stroke-width="1" fill="none" fill-rule="evenodd">
        <g id="Rally-Logo*" fill="#FFFFFF" fill-rule="nonzero">
            <path d="M167.393123,22.2037037 L167.393123,57.5277778 C167.393123,59.4786725 167.461529,61.0601852 169.434977,61.0601852 C171.344765,61.0601852 171.470435,59.5790599 171.476555,57.7153802 L171.476831,22.2037037 L196.97212,22.2037037 C196.990626,22.5377992 197,22.8742989 197,23.212963 L197,74.1805556 C197,89.230315 190.487332,109 164.840807,109 C159.153393,109 153.723078,108.082944 149.016442,106.296903 L149.016442,85.51 C152.301983,87.4478328 155.612719,88.5 161.246636,88.5 C170.880553,88.5 173.486769,85.0535157 173.585974,85.1907196 C175.127533,87.3227402 175.997988,88.6797513 176.054056,88.756604 C176.199196,88.9555472 176.399706,89.1120526 176.656807,89.2228626 C176.913908,89.3336725 177.211639,89.3818396 177.549999,89.3673638 C178.226721,89.3384122 178.882919,89.0939669 179.520948,88.6323243 C180.156623,88.1723852 180.595198,87.6247132 180.831966,86.9927152 L185.511408,74.3599559 C185.645667,74.0657163 185.686789,73.7818723 185.640533,73.5113831 C185.595496,73.2376361 185.484711,73.0019626 185.310618,72.7978472 C185.136525,72.5937317 184.908196,72.4336082 184.622141,72.3176259 C184.337221,72.2031979 184.025623,72.1508157 183.687263,72.1652915 L170.394477,72.6810944 C169.707464,72.7008697 169.046731,72.9390981 168.408701,73.4007407 C167.770672,73.8623833 167.338987,74.4145688 167.108936,75.0607042 C166.990553,75.3767032 166.942281,75.6704696 166.965253,75.9435577 C166.988226,76.2166458 167.07346,76.4518097 167.218599,76.6507528 C167.282585,76.7384577 168.979136,79.0629667 170.868807,81.6520719 C164.893123,86.2451929 144,86.7963805 141.869954,65.6018519 L141.869954,23.212963 C141.869954,22.8742989 141.879328,22.5377992 141.897834,22.2037037 L167.393123,22.2037037 Z M109.736672,0 L109.736672,65.349537 C109.736672,72.3281735 113.030848,80.0600957 118.165854,84.0807893 C114.278689,86.4536453 110.3533,86.2916667 107.950051,86.2916667 C92.1132371,86.2916667 85.7448933,74.9498062 85.7448933,62.8263889 L85.7448933,0 L109.736672,0 Z M137.801779,0 L137.801779,65.349537 C137.801779,72.3281735 141.095955,80.0600957 146.230961,84.0807893 C142.343795,86.4536453 138.418407,86.2916667 136.015157,86.2916667 C120.178344,86.2916667 113.81,74.9498062 113.81,62.8263889 L113.81,0 L137.801779,0 Z M48.4940219,22.2252022 C50.8897341,22.2731185 53.5215594,22.4394865 56.266632,23.0138592 C67.3308587,24.8868608 81.6741421,32.0926494 81.6741421,47.1852078 L81.6741421,65.349537 C81.6741421,72.3281735 84.9683179,80.0600957 90.1033236,84.0807893 C86.2161582,86.4536453 82.2907698,86.2916667 79.8875202,86.2916667 C70.7686151,86.2916667 64.7889865,82.5312663 61.356795,77.0265145 C57.8453515,81.1490792 52.5858135,83.7685185 46.7074,83.7685185 C36.1353571,83.7685185 27.0675155,75.2961292 27.0675155,64.8449074 C27.0675155,54.3936856 35.6378496,45.9212963 46.2098925,45.9212963 C55.1839823,45.9212963 60.8132463,50.544521 63.8325659,56.3078057 L63.93,56.4959474 L63.93,56.4959474 C63.9926333,56.471403 64.0553522,56.4484235 64.1179437,56.4267017 C65.1519396,56.0678642 66.1511718,56.0522821 66.1555368,54.9954545 C66.1605522,53.7811769 64.8469488,51.3534359 63.7394724,49.8257976 C61.12442,46.2186287 55.6545026,42.68 48.4940219,42.1 L48.4940219,22.2252022 Z M22.9813158,22.2037037 L22.9813158,30.2073604 C30.2777608,23.2856669 38.6564487,22.3504942 44.9207781,22.2252022 L44.9207794,42.0511123 C32.6784663,42.8461479 23,52.8168587 23,65 C23,72.4205903 26.5905823,79.0203982 32.1641054,83.2259876 L32.4209607,83.07153 C28.5337954,85.4443861 24.6084069,86.2916667 22.2051574,86.2916667 C6.36834387,86.2916667 -1.49213975e-13,74.9498062 -1.49213975e-13,62.8263889 L-1.49213975e-13,22.2037037 L22.9813158,22.2037037 Z" id="Combined-Shape-Copy-2"></path>
        </g>
    </g>
</svg>