<?xml version="1.0" encoding="UTF-8"?>
<svg width="206px" height="68px" viewBox="0 0 206 68" version="1.1" xmlns="http://www.w3.org/2000/svg" xmlns:xlink="http://www.w3.org/1999/xlink">
    <title>Group</title>
    <g id="Page-1" stroke="none" stroke-width="1" fill="none" fill-rule="evenodd">
        <g id="Group" fill="#39D8FF" fill-rule="nonzero">
            <path d="M57.6896552,0.873834425 C61.8735632,3.26627107 63.0804598,10.6030768 61.2298851,19.6145881 C61.0689655,20.1728233 60.9885057,20.7310586 60.8275862,21.2892938 C61.7126437,21.5285374 62.5172414,21.847529 63.3218391,22.0867727 C71.6091954,24.9576966 77,29.4235784 77,33.969208 C77,38.6756407 71.4731209,43.3049188 62.8695145,46.1874666 L62.4367816,46.3301306 L60.9885057,46.808618 C61.1494253,47.526349 61.3103448,48.24408 61.4712644,48.8820631 C63.2413793,57.5745829 61.8735632,64.7518928 57.7701149,67.1443294 C53.7471264,69.3772703 47.2298851,67.1443294 40.7126437,61.5619773 C39.9885057,60.9239942 39.2643678,60.2860111 38.6206897,59.648028 C38.0574713,60.1265153 37.5747126,60.6050026 37.0114943,61.0834899 C30.2528736,66.9050858 23.2528736,69.3772703 19.1494253,66.9848337 C15.2068966,64.6721449 13.9195402,58.0530702 15.5287356,49.5997941 C15.7701149,48.7225673 15.9310345,47.7655926 16.1724138,46.8883659 C15.4482759,46.7288701 14.8045977,46.4896264 14.0804598,46.2503828 C5.63218391,43.3794588 0,38.5945855 0,33.8894601 C0,29.3438305 5.22988506,24.8779487 13.3563218,22.0867727 C14.2413793,21.7677811 15.2068966,21.4487896 16.1724138,21.2095459 C15.9310345,20.3323191 15.7701149,19.5348402 15.6091954,18.6576135 C13.9195402,10.1245894 15.1264368,3.26627107 19.1494253,0.953582313 C23.3333333,-1.43885433 30.3333333,1.11307809 37.2528736,7.25366547 C37.7356322,7.65240491 38.137931,8.05114435 38.5402299,8.44988379 C39.183908,7.81190069 39.8275862,7.25366547 40.4712644,6.69543026 C47.0689655,0.953582313 53.6666667,-1.43885433 57.6896552,0.873834425 Z M19.3103448,47.8453405 C19.0689655,48.7225673 18.908046,49.5200462 18.7471264,50.3972729 C17.3793103,57.5745829 18.4252874,62.9974393 20.8390805,64.3531534 C21.9655172,64.9911365 23.8965517,64.9113886 26.2298851,64.1139097 C29.3678161,62.8379435 32.3448276,61.0037421 34.8390805,58.8505491 C35.3218391,58.3720617 35.8045977,57.9733223 36.2873563,57.494835 C33.954023,54.9429026 31.7011494,52.2314744 29.6896552,49.3605504 C26.2298851,49.0415588 22.7701149,48.5630715 19.3103448,47.8453405 Z M57.9310345,47.6060969 C54.4712644,48.4035757 51.0114943,48.8820631 47.4712644,49.2010546 C45.5402299,52.0719786 43.3678161,54.7834068 41.0344828,57.3353392 C41.6781609,57.9733223 42.3218391,58.5315575 42.9655172,59.0897927 C48.5172414,63.874666 53.7471264,65.6291196 56.1609195,64.2734055 C57.2873563,63.6354224 58.1724138,62.0404646 58.6551724,59.5682801 C59.137931,56.2188688 58.9770115,52.8694575 58.2528736,49.5200462 C58.091954,48.8820631 57.9310345,48.3238278 57.9310345,47.6060969 Z M43.1264368,49.5200462 C41.9034483,49.5838445 40.6804598,49.5966041 39.4162759,49.5991561 L37.5431724,49.5991561 C36.3227586,49.5966041 35.1126437,49.5838445 33.954023,49.5200462 C35.4022989,51.4339955 37.0114943,53.2681969 38.6206897,55.0226504 C40.2298851,53.2681969 41.6781609,51.4339955 43.1264368,49.5200462 Z M31.3793103,22.0070248 C30.091954,23.9209741 28.8850575,25.9146713 27.6781609,27.9083685 C26.4712644,29.9020657 25.4252874,31.9755108 24.3793103,34.0489559 C25.4252874,36.122401 26.4712644,38.1958461 27.6781609,40.1895433 C28.8850575,42.1832405 30.091954,44.1769377 31.4597701,46.090887 C33.7126437,46.2503828 36.045977,46.3301306 38.4597701,46.3301306 C40.8735632,46.3301306 43.2873563,46.2503828 45.5402299,46.090887 C46.8275862,44.1769377 48.0344828,42.1832405 49.2413793,40.1895433 C50.3678161,38.1958461 51.4942529,36.122401 52.4597701,34.0489559 C51.4137931,31.9755108 50.3678161,29.9020657 49.1609195,27.9083685 C48.0344828,25.9146713 46.7471264,23.9209741 45.4597701,22.0070248 C40.7126437,21.6880332 36.045977,21.6880332 31.3793103,22.0070248 Z M22.6896552,37.8768545 C21.7241379,40.1097954 20.9195402,42.3427362 20.1954023,44.655425 C22.5287356,45.1339123 24.862069,45.5326518 27.2758621,45.7718954 C26.4712644,44.4959292 25.6666667,43.219963 24.862069,41.8642489 C24.137931,40.5085348 23.4137931,39.2325686 22.6896552,37.8768545 Z M54.3103448,37.7971066 C53.5862069,39.1528207 52.862069,40.5085348 52.0574713,41.784501 C51.3333333,43.1402151 50.5287356,44.4161813 49.7241379,45.6921475 C52.137931,45.4529039 54.4712644,45.0541644 56.8850575,44.4959292 C56.1609195,42.2629883 55.2758621,40.0300475 54.3103448,37.7971066 Z M17.0574713,24.4792093 C16.1724138,24.718453 15.2873563,24.9576966 14.4022989,25.2766882 C7.40229885,27.7488727 3.2183908,31.2577798 3.2183908,34.0489559 C3.2183908,35.3249221 4.18390805,36.9996277 6.11494253,38.5945855 C8.85057471,40.6680306 11.8275862,42.2629883 15.1264368,43.2997109 C15.6896552,43.4592067 16.3333333,43.6984503 17.0574713,43.937694 C18.1034483,40.5882827 19.3908046,37.3186193 20.8390805,34.1287038 C19.3103448,31.0185361 18.1034483,27.7488727 17.0574713,24.4792093 Z M60.0229885,24.4792093 C58.9770115,27.7488727 57.6896552,30.9387882 56.2413793,34.0489559 C57.6896552,37.1591235 59.0574713,40.349039 60.1034483,43.6984503 C60.5057471,43.5389546 60.9885057,43.4592067 61.3908046,43.2997109 C69.0344828,40.7477785 73.7011494,36.9198798 73.7816092,33.969208 C73.7816092,31.2577798 69.4367816,27.5893769 62.2758621,25.1969403 C61.5517241,24.9576966 60.8275862,24.718453 60.0229885,24.4792093 Z M38.4597701,27.2703854 C42.2413793,27.2703854 45.3793103,30.3008051 45.3793103,34.1287038 C45.3793103,37.8768545 42.3218391,40.9870221 38.4597701,40.9870221 C34.6781609,40.9870221 31.5402299,37.9566024 31.5402299,34.1287038 C31.6206897,30.3008051 34.6781609,27.2703854 38.4597701,27.2703854 Z M27.2758621,22.4855121 C24.9425287,22.8045037 22.6091954,23.2032431 20.2758621,23.6817304 C20.9195402,25.9146713 21.8045977,28.1476122 22.6896552,30.3008051 C23.4137931,28.945091 24.137931,27.5893769 24.862069,26.3134107 C25.5715645,24.9808981 26.3783084,23.7015283 27.2758621,22.4855121 Z M49.7241379,22.4057642 C50.5287356,23.6817304 51.3333333,24.9576966 52.0574713,26.2336628 C52.862069,27.5893769 53.5862069,28.8653431 54.2298851,30.1413094 C55.1954023,28.0678643 56,25.8349234 56.7241379,23.6019825 C54.5517241,23.1234952 52.2183908,22.7247558 49.7241379,22.4057642 Z M42.5632184,9.24736268 C42,9.72585 41.3563218,10.2840852 40.7931034,10.8423204 C43.1264368,13.3942529 45.2988506,16.1056811 47.3103448,18.8968571 C50.7701149,19.2158487 54.2298851,19.694336 57.6091954,20.4918149 C57.6896552,20.0133276 57.8505747,19.4550924 57.9310345,18.976605 C59.6206897,11.161312 58.5747126,5.25996827 56,3.7447584 C53.5862069,2.3890443 48.2758621,4.30299361 42.5632184,9.24736268 Z M20.7586207,3.82450628 C18.3448276,5.25996827 17.3793103,10.7625725 18.8275862,18.0993783 C18.9885057,18.8968571 19.1494253,19.694336 19.3103448,20.412067 C22.6896552,19.6145881 26.1494253,19.1361008 29.6091954,18.8171092 C31.6206897,16.0259332 33.8735632,13.314505 36.2068966,10.7625725 C35.8850575,10.443581 35.4827586,10.0448416 35.0804598,9.72585 C29.045977,4.46248939 23.3333333,2.30929641 20.7586207,3.82450628 Z M38.5402299,13.1550092 C36.9310345,14.9094627 35.4022989,16.7436642 33.954023,18.5778656 C37.0114943,18.4183698 39.9885057,18.4183698 43.045977,18.5778656 C41.6781609,16.6639163 40.1494253,14.9094627 38.5402299,13.1550092 Z" id="Combined-Shape"></path>
            <path d="M105.8,34.3 L96.9,34.3 L96.9,47.3 L92.9,47.3 L92.9,14.8 L104.9,14.8 C111.2,14.8 115.7,17.8 115.7,24 L115.7,25.1 C115.7,29.5 113.4,32.3 109.9,33.5 L117.6,47.3 L113.1,47.3 L105.8,34.3 Z M104.7,30.7 C108.8,30.7 111.7,28.8 111.7,25.1 L111.7,24.1 C111.7,20.3 108.8,18.4 104.7,18.4 L96.9,18.4 L96.9,30.7 L104.7,30.7 Z M124.7,38 C124.7,41.7 127,44.6 131,44.6 C134.3,44.6 136.3,42.9 136.6,40.4 L140.4,40.4 C140,44.7 136.3,47.8 131.1,47.8 C124.9,47.8 121,43.8 121,37.1 L121,35.6 C121,29 124.8,24.9 131,24.9 C137,24.9 140.5,28.8 140.5,35.1 L140.5,37.6 L124.7,37.6 L124.7,38 L124.7,38 Z M124.7,34.2 L124.7,34.4 L136.6,34.4 L136.6,33.9 C136.6,30.7 134.9,28 130.9,28 C127.7,27.8 124.9,30.3 124.7,33.5 L124.7,34.2 Z M162.8,33.9 L162.8,47.4 L159,47.4 L159,45.1 C157.2,46.9 154.7,47.9 152.1,47.8 C148.1,47.8 145.1,45.5 145.1,41.4 C145.1,36.6 148.9,34.8 153.8,34.8 C155.5,34.8 157.2,34.9 158.9,35.1 L158.9,33.4 C158.9,30.2 157.5,28.1 154.3,28.1 C151.7,28 149.5,29.9 149.4,32.5 L149.4,32.9 L145.6,32.9 C145.6,28.9 148.7,25 154.2,25 C160,24.8 162.8,28.2 162.8,33.9 L162.8,33.9 Z M148.9,41.2 C148.9,43.4 150.5,44.6 153.2,44.6 C155.5,44.5 157.6,43.5 159.1,41.8 L159.1,38.2 C157.5,38 155.8,37.9 154.2,37.9 C150.9,37.8 148.9,38.9 148.9,41.2 L148.9,41.2 Z M188.2,33.4 L184.7,33.4 C184.6,30.4 182.1,28 179.1,28 L178.9,28 C174.8,28 172.5,30.9 172.5,35.4 L172.5,37.2 C172.5,41.7 174.8,44.6 178.9,44.6 C181.8,44.8 184.4,42.6 184.6,39.7 L184.6,39.6 L188.2,39.6 C187.7,44.7 183.9,47.8 178.9,47.8 C172.7,47.8 168.7,44 168.7,37.1 L168.7,35.6 C168.7,28.7 172.7,24.9 178.9,24.9 C184.1,24.8 187.9,28.1 188.2,33.4 L188.2,33.4 Z M205.1,47.2 C203.7,47.7 202.3,47.9 200.8,47.8 C197,47.8 194.5,45.6 194.5,40.9 L194.5,28.4 L190.5,28.4 L190.5,25.2 L194.5,25.2 L194.5,17.5 L198.3,17.5 L198.3,25.2 L204.8,25.2 L204.8,28.4 L198.3,28.4 L198.2,40.2 C198.2,43.3 199.6,44.3 201.9,44.3 C202.9,44.3 204,44.1 204.9,43.7 L205.1,47.2 L205.1,47.2 Z" id="Shape"></path>
        </g>
    </g>
</svg>