<?xml version="1.0" encoding="UTF-8"?>
<svg width="26px" height="35px" viewBox="0 0 26 35" version="1.1" xmlns="http://www.w3.org/2000/svg" xmlns:xlink="http://www.w3.org/1999/xlink">
    <!-- Generator: Sketch 64 (93537) - https://sketch.com -->
    <title>share</title>
    <desc>Created with Sketch.</desc>
    <g id="Page-1" stroke="none" stroke-width="1" fill="none" fill-rule="evenodd">
        <g id="share" fill="#007AFF" fill-rule="nonzero">
            <polygon id="Path" points="18.3 8.7 13 3.4 7.7 8.7 6.3 7.3 13 0.6 19.7 7.3"></polygon>
            <polygon id="Path" points="12 2 14 2 14 23 12 23"></polygon>
            <path d="M23,35 L3,35 C1.3,35 0,33.7 0,32 L0,14 C0,12.3 1.3,11 3,11 L10,11 L10,13 L3,13 C2.4,13 2,13.4 2,14 L2,32 C2,32.6 2.4,33 3,33 L23,33 C23.6,33 24,32.6 24,32 L24,14 C24,13.4 23.6,13 23,13 L16,13 L16,11 L23,11 C24.7,11 26,12.3 26,14 L26,32 C26,33.7 24.7,35 23,35 Z" id="Path"></path>
        </g>
    </g>
</svg>