<?xml version="1.0" encoding="UTF-8"?>
<svg width="99px" height="99px" viewBox="0 0 99 99" version="1.1" xmlns="http://www.w3.org/2000/svg" xmlns:xlink="http://www.w3.org/1999/xlink">
    <!-- Generator: Sketch 64 (93537) - https://sketch.com -->
    <title>spotify-logo</title>
    <desc>Created with Sketch.</desc>
    <g id="Page-1" stroke="none" stroke-width="1" fill="none" fill-rule="evenodd">
        <g id="spotify-logo" fill="#000000" fill-rule="nonzero">
            <path d="M49.186,0.002 C22.022,0.002 0,22.021 0,49.186 C0,76.35 22.022,98.37 49.186,98.37 C76.35,98.37 98.372,76.349 98.372,49.185 C98.372,22.021 76.35,0.002 49.186,0.002 Z M68.116,72.547 C67.32,72.547 66.777,72.272 66.034,71.818 C58.905,67.505 50.015,65.238 40.585,65.238 C35.321,65.238 30.024,65.915 25.07,66.945 C24.265,67.12 23.253,67.429 22.645,67.429 C20.778,67.429 19.534,65.947 19.534,64.337 C19.534,62.273 20.724,61.241 22.209,60.958 C28.284,59.573 34.334,58.782 40.618,58.782 C51.38,58.782 60.972,61.253 69.226,66.2 C70.454,66.917 71.1730005,67.649 71.1730005,69.47 C71.174,71.245 69.732,72.547 68.116,72.547 Z M73.475,59.529 C72.408,59.529 71.737,59.097 71.01,58.675 C63.01,53.927 51.92,50.773 39.778,50.773 C33.55,50.773 28.174,51.646 23.725,52.831 C22.766,53.096 22.229,53.38 21.331,53.38 C19.217,53.38 17.489,51.654 17.489,49.524 C17.489,47.433 18.504,45.995 20.548,45.419 C26.077,43.899 31.725,42.73 39.942,42.73 C52.817,42.73 65.272,45.936 75.063,51.796 C76.705,52.735 77.309,53.933 77.309,55.683 C77.309,57.809 75.613,59.529 73.475,59.529 Z M79.577,44.389 C78.577,44.389 77.982,44.145 77.044,43.631 C68.143,38.293 54.325,35.354 40.965,35.354 C34.295,35.354 27.522,36.033 21.317,37.716 C20.602,37.895 19.701,38.253 18.796,38.253 C16.172,38.253 14.158,36.177 14.158,33.554 C14.158,30.88 15.814,29.38 17.6,28.853 C24.612,26.788 32.438,25.826 40.946,25.826 C55.389,25.826 70.585,28.797 81.684,35.314 C83.18,36.163 84.217,37.44 84.217,39.782 C84.215,42.462 82.061,44.389 79.577,44.389 Z" id="Shape"></path>
        </g>
    </g>
</svg>