<?xml version="1.0" encoding="UTF-8"?>
<svg width="454px" height="64px" viewBox="0 0 454 64" version="1.1" xmlns="http://www.w3.org/2000/svg" xmlns:xlink="http://www.w3.org/1999/xlink">
    <title>Shape</title>
    <g id="Page-1" stroke="none" stroke-width="1" fill="none" fill-rule="evenodd">
        <g id="Artboard" transform="translate(-79.000000, -79.000000)" fill="#FFFFFF" fill-rule="nonzero">
            <g id="zapierWordmark">
                <g id="squarespace-logo">
                    <path d="M242.1,109.9 C242.1,100.9 235.6,93.2 225.8,93.2 C216,93.2 209.3,101 209.3,109.9 C209.3,118.7 215.8,126.4 225.6,126.4 C229.7,126.4 232.9,125.2 235.8,122.9 L240.1,126.8 L242.5,124.1 L238.2,120.6 C240.7,117.6 242.1,113.8 242.1,109.9 Z M235.6,118.2 L229.7,112.9 L227.3,115.6 L233.2,120.7 C231.2,122.1 228.7,123.1 225.9,123.1 C218.6,123.1 213.3,117.2 213.3,109.8 C213.3,102.5 218.6,96.5 225.9,96.5 C233.2,96.5 238.5,102.4 238.5,109.8 C238.5,113.1 237.5,116 235.6,118.2 L235.6,118.2 Z M272.5,112.3 C272.5,119.2 268.8,122.9 262.7,122.9 C256.6,122.9 252.9,119 252.9,112.1 L252.9,93.5 L249.2,93.5 L249.2,112.3 C249.2,121.5 254.7,126.2 262.7,126.2 C270.7,126.2 276.2,121.3 276.2,111.9 L276.2,93.5 L272.5,93.5 L272.5,112.3 Z M490,123.1 C482.9,123.1 477.6,117.2 477.6,109.8 C477.6,102.5 482.9,96.5 490,96.5 C494.3,96.5 497.3,98.3 500.2,101 L502.6,98.3 C499.3,95.2 495.9,93.2 490,93.2 C480.6,93.2 473.7,100.7 473.7,109.9 C473.7,119.1 480.6,126.4 489.8,126.4 C495.7,126.4 499.4,124.2 502.7,120.7 L500.3,118.5 C497.4,121.3 494.5,123.1 490,123.1 Z M512.9,122.5 L512.9,111.3 L530.4,111.3 L530.4,108 L512.9,108 L512.9,97 L532.5,97 L532.5,93.7 L509.2,93.7 L509.2,126 L532.7,126 L532.7,122.5 L512.9,122.5 L512.9,122.5 Z M425.3,93.8 L413.3,93.8 L413.3,126 L417,126 L417,114.6 L424.8,114.6 C431.7,114.6 437.4,110.9 437.4,104 C437.4,97.6 432.7,93.8 425.3,93.8 Z M433.7,104.2 C433.7,108.5 430.2,111.3 424.9,111.3 L416.9,111.3 L416.9,97.2 L425.1,97.2 C430.2,97 433.7,99.5 433.7,104.2 Z M193,108 C185.9,106.6 184.2,104.7 184.2,101.7 C184.2,98.8 186.9,96.6 191.1,96.6 C194.4,96.6 197.4,97.6 200.5,100.1 L202.5,97.2 C199.2,94.5 196,93.3 191.3,93.3 C185.2,93.3 180.7,97 180.7,102.1 C180.7,107.4 184.2,109.9 191.5,111.5 C198.2,112.9 199.9,114.6 199.9,117.6 C199.9,120.9 197,123.1 192.8,123.1 C188.3,123.1 185,121.7 181.8,118.6 L179.6,121.3 C183.5,124.8 187.6,126.4 192.7,126.4 C199,126.4 203.7,122.7 203.7,117.2 C203.4,112.1 200.1,109.7 193,108 L193,108 Z M356.8,111.3 L374.3,111.3 L374.3,108 L356.8,108 L356.8,97 L376.4,97 L376.4,93.7 L353.1,93.7 L353.1,126 L376.6,126 L376.6,122.5 L356.8,122.5 L356.8,111.3 Z M395.6,108 C388.5,106.6 386.8,104.7 386.8,101.7 C386.8,98.8 389.5,96.6 393.7,96.6 C397,96.6 400,97.6 403.1,100.1 L405.1,97.2 C401.8,94.5 398.6,93.3 393.9,93.3 C387.8,93.3 383.3,97 383.3,102.1 C383.3,107.4 386.8,109.9 394.1,111.5 C400.8,112.9 402.5,114.6 402.5,117.6 C402.5,120.9 399.6,123.1 395.4,123.1 C390.9,123.1 387.6,121.7 384.4,118.6 L382.2,121.3 C386.1,124.8 390.2,126.4 395.3,126.4 C401.6,126.4 406.3,122.7 406.3,117.2 C406,112.1 402.7,109.7 395.6,108 L395.6,108 Z M295.6,93.6 L280.9,126 L284.6,126 L288.5,117.4 L306,117.4 L309.7,126 L313.6,126 L298.9,93.6 L295.6,93.6 L295.6,93.6 Z M289.9,114.2 L297.2,97.9 L304.5,114.2 L289.9,114.2 Z M452.7,93.6 L438,126 L441.7,126 L445.6,117.4 L463.1,117.4 L466.8,126 L470.7,126 L456,93.6 L452.7,93.6 Z M447,114.2 L454.3,97.9 L461.6,114.2 L447,114.2 L447,114.2 Z M345.4,103.4 C345.4,100.7 344.4,98.5 343,96.9 C341,94.9 337.9,93.6 333.8,93.6 L319.9,93.6 L319.9,125.8 L323.6,125.8 L323.6,113.4 L332.8,113.4 L342.2,125.8 L346.7,125.8 L336.9,112.7 C341.7,111.7 345.4,108.7 345.4,103.4 L345.4,103.4 Z M323.5,110.1 L323.5,97 L333.5,97 C338.6,97 341.7,99.4 341.7,103.3 C341.7,107.4 338.2,109.8 333.3,109.8 L323.5,109.8 L323.5,110.1 Z M92,113.8 C93.4,115.2 95.9,115.2 97.5,113.8 L121.8,89.5 C124.9,86.4 129.6,86.4 132.6,89.5 C134,90.9 136.5,90.9 138.1,89.5 C139.5,88.1 139.5,85.6 138.1,84 C132.2,78.1 122.4,78.1 116.5,84 L92,108.2 C90.4,109.9 90.4,112.1 92,113.8 Z M129.7,97.4 C131.1,96 131.1,93.5 129.7,91.9 C128.3,90.5 125.8,90.5 124.2,91.9 L100,116.4 C96.9,119.5 92.2,119.5 89.2,116.4 C86.1,113.3 86.1,108.6 89.2,105.6 L113.1,81.7 C110,78.6 105.3,78.6 102.3,81.7 L83.9,100.1 C78,106 78,115.8 83.9,121.7 C89.8,127.6 99.6,127.6 105.5,121.7 L129.7,97.4 L129.7,97.4 Z M132.6,100.1 L108.1,124.6 C106.7,126 106.7,128.5 108.1,130.1 C109.5,131.5 112,131.5 113.6,130.1 L137.9,105.8 C141,102.7 145.7,102.7 148.7,105.8 C151.7,108.9 151.8,113.6 148.7,116.6 L124.8,140.3 C127.9,143.4 132.6,143.4 135.6,140.3 L154.2,121.7 C160.1,115.8 160.1,106 154.2,100.1 C148.1,94.2 138.5,94.2 132.6,100.1 L132.6,100.1 Z M146.1,108.2 C144.7,106.8 142.2,106.8 140.6,108.2 L116.3,132.7 C113.2,135.8 108.5,135.8 105.5,132.7 C104.1,131.3 101.6,131.3 100,132.7 C98.6,134.1 98.6,136.6 100,138.2 C105.9,144.1 115.7,144.1 121.6,138.2 L145.9,113.9 C147.5,112.1 147.5,109.9 146.1,108.2 Z" id="Shape"></path>
                </g>
            </g>
        </g>
    </g>
</svg>