<?xml version="1.0" encoding="UTF-8"?>
<svg width="18px" height="18px" viewBox="0 0 18 18" version="1.1" xmlns="http://www.w3.org/2000/svg" xmlns:xlink="http://www.w3.org/1999/xlink">
    <!-- Generator: Sketch 64 (93537) - https://sketch.com -->
    <title>Steam</title>
    <desc>Created with Sketch.</desc>
    <g id="Page-1" stroke="none" stroke-width="1" fill="none" fill-rule="evenodd">
        <g id="Steam" fill="#000000" fill-rule="nonzero">
            <path d="M2,0 C0.898,0 0,0.898 0,2 L0,9.313 L3.594,10.5 C4.293,9.602 5.304,9 6.406,9 L8,6.5 L8,6 C8,3.8 9.8,2 12,2 C14.2,2 16,3.8 16,6 C16,8.102 14.29,9.898 12.187,10 L10,12 L10,12.5 C10,14.398 8.398,16 6.5,16 C4.602,16 3,14.398 3,12.5 L3,12.406 L0,11.406 L0,16 C0,17.102 0.898,18 2,18 L16,18 C17.102,18 18,17.102 18,16 L18,2 C18,0.898 17.102,0 16,0 L2,0 Z M12,3 C10.348,3 9,4.348 9,6 C9,7.652 10.348,9 12,9 C13.652,9 15,7.652 15,6 C15,4.348 13.652,3 12,3 Z M12,4 C13.11,4 14,4.89 14,6 C14,7.11 13.11,8 12,8 C10.89,8 10,7.11 10,6 C10,4.89 10.89,4 12,4 Z M6.5,10 C5.8,10 5.086,10.313 4.687,10.813 L6.907,11.5 C7.407,11.7 7.699,12.21 7.5,12.813 C7.3,13.211 6.898,13.5 6.5,13.5 C6.398,13.5 6.29,13.508 6.187,13.406 L4,12.688 C4.10646708,13.9909599 5.19270519,14.995513 6.5,15 C7.898,15 9,13.898 9,12.5 C9,11.102 7.898,10 6.5,10 Z" id="surface1"></path>
        </g>
    </g>
</svg>