<?xml version="1.0" encoding="UTF-8"?>
<svg width="512px" height="512px" viewBox="0 0 512 512" version="1.1" xmlns="http://www.w3.org/2000/svg" xmlns:xlink="http://www.w3.org/1999/xlink">
    <!-- Generator: Sketch 64 (93537) - https://sketch.com -->
    <title>success-svgrepo-com</title>
    <desc>Created with Sketch.</desc>
    <g id="Page-1" stroke="none" stroke-width="1" fill="none" fill-rule="evenodd">
        <g id="success-svgrepo-com" fill="#00C642" fill-rule="nonzero">
            <path d="M436.891,74.867 C337.072,-24.952 174.683,-24.952 74.864,74.867 C-24.955,174.664 -24.955,337.096 74.864,436.894 C124.763,486.814 190.32,511.753 255.877,511.753 C321.434,511.753 386.97,486.814 436.89,436.894 C536.709,337.096 536.709,174.664 436.891,74.867 Z M398.96,196.629 L249.627,345.963 C245.467,350.123 240.006,352.214 234.544,352.214 C229.083,352.214 223.621,350.123 219.461,345.963 L134.128,260.63 C125.787,252.289 125.787,238.806 134.128,230.465 C142.469,222.124 155.952,222.124 164.293,230.465 L234.544,300.716 L368.795,166.465 C377.136,158.124 390.619,158.124 398.96,166.465 C407.301,174.805 407.301,188.288 398.96,196.629 Z" id="Shape"></path>
        </g>
    </g>
</svg>