<?xml version="1.0" encoding="UTF-8"?>
<svg width="32px" height="32px" viewBox="0 0 32 32" version="1.1" xmlns="http://www.w3.org/2000/svg" xmlns:xlink="http://www.w3.org/1999/xlink">
    <title>Shape</title>
    <g id="Page-1" stroke="none" stroke-width="1" fill="none" fill-rule="evenodd">
        <path d="M27.3187956,4.68129913 C21.0771168,-1.56043304 10.9229379,-1.56043304 4.68125911,4.68129913 C-1.5604197,10.9216556 -1.5604197,21.0786101 4.68125911,27.3190292 C7.80144195,30.4405518 11.900719,32 16,32 C20.0992732,32 24.1972371,30.4405518 27.3187331,27.3190292 C33.5604119,21.0786101 33.5604119,10.9216556 27.3187956,4.68129913 Z M24.9469714,12.2951381 L15.6091838,21.6330681 C15.3490591,21.893195 15.007583,22.0239463 14.6660443,22.0239463 C14.3245681,22.0239463 13.9830295,21.893195 13.7229048,21.6330681 L8.3870351,16.2971528 C7.86547264,15.7755858 7.86547264,14.9324871 8.3870351,14.4109202 C8.90859755,13.8893533 9.7516891,13.8893533 10.2732516,14.4109202 L14.6660443,18.8037505 L23.0607549,10.408968 C23.5823174,9.88740113 24.425409,9.88740113 24.9469714,10.408968 C25.4685339,10.9304724 25.4685339,11.7735712 24.9469714,12.2951381 Z" id="Shape" fill="#00C642" fill-rule="nonzero"></path>
    </g>
</svg>