<?xml version="1.0" encoding="UTF-8"?>
<svg width="146px" height="35px" viewBox="0 0 146 35" version="1.1" xmlns="http://www.w3.org/2000/svg" xmlns:xlink="http://www.w3.org/1999/xlink">
    <title>Swift_logo_with_text</title>
    <g id="Page-1" stroke="none" stroke-width="1" fill="none" fill-rule="evenodd">
        <g id="Artboard" transform="translate(-18.000000, -15.000000)" fill="#FFFFFF" fill-rule="nonzero">
            <g id="Swift_logo_with_text" transform="translate(18.000000, 15.000000)">
                <path d="M35.3728333,22.9840833 C37.427,14.8 32.4135833,5.1241667 23.9298333,0.02958333 C27.6475833,5.0695 29.2914167,11.174 27.8309167,16.5125 C27.7006667,16.9886667 27.5440833,17.4456667 27.371,17.8898333 C27.1831667,17.7664167 26.9465,17.6263333 26.6286667,17.4510833 C26.6286667,17.4510833 18.1895833,12.2405 9.043,3.02425 C8.803,2.78233333 13.9203333,10.3384167 19.7279167,16.4741667 C16.99175,14.9385833 9.3664167,9.3905 4.53908333,4.97225 C5.13216667,5.9613333 5.83758333,6.91375 6.613,7.8306667 C10.64425,12.9430833 15.9015,19.251 22.1999167,24.09475 C17.7745833,26.8029167 11.5215,27.0135 5.29558333,24.0975833 C3.75566667,23.3759167 2.308,22.5051667 0.96791667,21.5158333 C3.60333333,25.73125 7.66225,29.36825 12.6023333,31.4915 C18.4935833,34.02325 24.352,33.8515833 28.7153333,31.533 L28.7119167,31.538 C28.7318333,31.5254167 28.7571667,31.5116667 28.7778333,31.4989167 C28.957,31.4025833 29.1348333,31.3045 29.30875,31.2009167 C31.4051667,30.11275 35.546,29.00875 37.7685833,33.33325 C38.3129167,34.3915833 39.4695833,28.7829167 35.2171667,23.5505833 C35.2684167,23.36025 35.3249167,23.1750833 35.3728333,22.9840833 Z" id="Path"></path>
                <path d="M54.2754997,25.1185833 C54.6621663,28.5521667 57.9369997,30.8033333 62.4849997,30.8033333 C66.8061663,30.8033333 69.921583,28.5521667 69.921583,25.43725 C69.921583,22.7536667 68.0342497,21.1155833 63.6902497,20.0245 L59.4832497,18.95575 C53.434083,17.4546667 50.7049163,14.7254167 50.7049163,10.2230833 C50.7049163,4.6743333 55.548833,0.83066667 62.439833,0.83066667 C69.125333,0.83066667 73.8784163,4.6966667 74.0377497,10.26875 L69.6034163,10.26875 C69.2619163,6.8575 66.4874997,4.7646667 62.3261663,4.7646667 C58.2094997,4.7646667 55.3442497,6.8798333 55.3442497,9.9724167 C55.3442497,12.3829167 57.1184163,13.8160833 61.4847497,14.9305 L64.986833,15.8399167 C71.7637497,17.5004167 74.538083,20.13825 74.538083,24.8913333 C74.538083,30.9405 69.739333,34.7385 62.0982497,34.7385 C55.0031663,34.7385 50.1592497,30.9628333 49.7954163,25.11875 L54.2754997,25.11875 L54.2754997,25.1185833 Z M102.707333,34.1923333 L98.249666,34.1923333 L93.041916,16.0448333 L92.951083,16.0448333 L87.766166,34.1923333 L83.3089997,34.1923333 L76.713833,10.4270833 L81.0344997,10.4270833 L85.6281663,29.5073333 L85.7194997,29.5073333 L90.904416,10.4270833 L95.088583,10.4270833 L100.319166,29.5073333 L100.4105,29.5073333 L105.00425,10.4270833 L109.27925,10.4270833 L102.707333,34.1923333 Z M112.157583,4.0368333 C112.157583,2.60475 113.3405,1.44466667 114.773166,1.44466667 C116.228666,1.44466667 117.411083,2.60475 117.411083,4.0368333 C117.411083,5.4699167 116.228666,6.6524167 114.773166,6.6524167 C113.3405,6.6524167 112.157583,5.47 112.157583,4.0368333 Z M112.61275,10.4270833 L116.95625,10.4270833 L116.95625,34.1923333 L112.61275,34.1923333 L112.61275,10.4270833 Z M145.321333,13.9296667 L145.321333,10.427 L140.727583,10.427 L140.727583,4.74225 L136.406416,4.74225 L136.406416,10.427 L132.8815,10.427 L128.103583,10.427 L128.103583,8.3351667 C128.125916,6.22 128.944916,5.3329167 130.900833,5.3329167 C131.537166,5.3329167 132.174083,5.4019167 132.697333,5.49225 L132.697333,2.081 C131.923916,1.96733333 131.219,1.89933333 130.4005,1.89933333 C125.761083,1.89933333 123.805333,3.8328333 123.805333,8.2671667 L123.805333,10.427 L120.485416,10.427 L120.485416,13.9296667 L123.805333,13.9296667 L123.805333,34.19225 L128.126,34.19225 L128.126,13.9296667 L132.881583,13.9296667 L136.4065,13.9296667 L136.4065,27.9614167 C136.4065,32.5551667 138.157833,34.32825 142.705833,34.32825 C143.68375,34.32825 144.798166,34.26025 145.298583,34.1465833 L145.298583,30.5993333 C145.00275,30.645 144.138416,30.713 143.661,30.713 C141.637166,30.713 140.72775,29.7579167 140.72775,27.6204167 L140.72775,13.9296667 L145.321333,13.9296667 Z" id="Shape"></path>
            </g>
        </g>
    </g>
</svg>