<?xml version="1.0" encoding="UTF-8"?>
<svg width="500px" height="84px" viewBox="0 0 500 84" version="1.1" xmlns="http://www.w3.org/2000/svg" xmlns:xlink="http://www.w3.org/1999/xlink">
    <title>TicketSpice</title>
    <g id="Page-1" stroke="none" stroke-width="1" fill="none" fill-rule="evenodd">
        <g id="Artboard-Copy" transform="translate(0.000000, -134.000000)" fill="#FFFFFF" fill-rule="nonzero">
            <g id="TicketSpice" transform="translate(0.000000, 134.000000)">
                <polygon id="Path" points="115.91056 26.0237069 132.957974 26.0237069 132.957974 67.9633621 142.866379 67.9633621 142.866379 26.0237069 159.913793 26.0237069 159.913793 17.2467672 115.91056 17.2467672"></polygon>
                <rect id="Rectangle" x="165.457974" y="32.1821121" width="9.3049569" height="35.78125"></rect>
                <rect id="Rectangle" x="165.15625" y="17.2467672" width="9.90840517" height="9.7575431"></rect>
                <path d="M193.071121,42.4730603 C193.909159,41.4683757 194.947877,40.6498805 196.12069,40.0700431 C197.484595,39.4295309 198.978494,39.1141522 200.484914,39.1487069 C202.066598,39.1188893 203.634399,39.4486619 205.070043,40.1131466 C206.400283,40.7526282 207.584971,41.6585661 208.550647,42.7747845 L208.696121,42.9418103 L214.622845,36.9127155 L214.488147,36.7726293 C212.761556,34.961614 210.684602,33.5207614 208.383621,32.5377155 C203.346282,30.4672478 197.69807,30.4537076 192.650862,32.5 C188.08553,34.4104972 184.483995,38.0819648 182.661638,42.6831897 C181.717817,45.0197246 181.238336,47.5177836 181.25,50.0377155 C181.219353,52.6817592 181.657146,55.3103418 182.543103,57.8017241 C183.3561,60.0511023 184.631754,62.1049982 186.287716,63.830819 C187.997395,65.5589409 190.066963,66.8889834 192.349138,67.7262931 C194.958405,68.6757219 197.719417,69.1395426 200.49569,69.0948276 C203.248739,69.1466393 205.979735,68.5949228 208.496767,67.4784483 C210.725828,66.4436727 212.737279,64.9935992 214.423491,63.205819 L214.552802,63.0711207 L208.992457,57.0366379 L208.841595,57.2036638 C207.836812,58.3477566 206.600969,59.2659164 205.215517,59.8976293 C203.726972,60.5726342 202.108475,60.9128865 200.474138,60.8943966 C197.589099,60.9863244 194.832457,59.700025 193.049569,57.4299569 C192.252581,56.3959454 191.650122,55.2257146 191.271552,53.9762931 C190.879207,52.7002175 190.679451,51.3727446 190.678879,50.0377155 C190.678168,48.6509613 190.87964,47.2715115 191.27694,45.9428879 C191.634171,44.6768372 192.244542,43.4964206 193.071121,42.4730603 Z" id="Path"></path>
                <polygon id="Path" points="252.349138 32.1821121 241.287716 32.1821121 228.825431 44.4234914 228.825431 17.2467672 219.520474 17.2467672 219.520474 67.9633621 228.825431 67.9633621 228.825431 55.3232759 232.429957 51.7887931 242.618534 67.9633621 253.739224 67.9633621 238.841595 45.4633621"></polygon>
                <path d="M285.560345,37.4730603 C284.136431,35.4969229 282.264051,33.8867501 280.096983,32.7747845 C277.524672,31.5084363 274.681612,30.890621 271.815733,30.9752155 C269.288719,30.9454938 266.782888,31.4389554 264.455819,32.424569 C262.303191,33.3541376 260.357835,34.7041629 258.733836,36.3954741 C257.113969,38.1091638 255.843854,40.1223139 254.994612,42.3221983 C254.093934,44.6686171 253.642484,47.1634695 253.663793,49.6767241 C253.632255,52.3732351 254.082949,55.0536752 254.994612,57.5915948 C256.647741,62.2290083 260.222151,65.927148 264.800647,67.737069 C267.269742,68.7270733 269.910073,69.2196177 272.570043,69.1864224 C274.997298,69.2319801 277.41833,68.9252677 279.757543,68.2758621 C281.480115,67.782864 283.139858,67.0922082 284.703664,66.2176724 C285.784344,65.6154431 286.786843,64.8825694 287.688578,64.0355603 L289.067888,62.65625 L283.970905,56.9234914 L283.820043,57.0743534 C283.523707,57.3706897 283.081897,57.7586207 282.510776,58.2327586 C281.849486,58.762794 281.125693,59.2097359 280.355603,59.5635776 C279.316593,60.0389447 278.233942,60.4124592 277.122845,60.6788793 C275.668798,61.0240162 274.177458,61.1869052 272.68319,61.1637931 C271.510781,61.1568622 270.347542,60.9566176 269.240302,60.5711207 C268.11392,60.1926165 267.063285,59.6180501 266.136853,58.8739224 C265.232539,58.1413969 264.480265,57.2390339 263.922414,56.2176724 C263.389578,55.2220918 263.10146,54.1139455 263.081897,52.9849138 L289.482761,52.9849138 L289.482761,51.4709052 C289.483834,48.9628072 289.178042,46.4639987 288.572198,44.0301724 C287.987217,41.6753234 286.965591,39.4511401 285.560345,37.4730603 L285.560345,37.4730603 Z M279.924569,46.1368534 L262.984914,46.1368534 C263.023562,45.2967761 263.222923,44.4718999 263.572198,43.7068966 C263.973362,42.8089469 264.546254,41.9981133 265.258621,41.3200431 C266.06458,40.5634913 267.0035,39.9625095 268.028017,39.5474138 C269.236658,39.0628729 270.529938,38.8247336 271.831897,38.8469828 C273.04823,38.8261523 274.255022,39.0649392 275.371767,39.5474138 C276.325882,39.9610611 277.188442,40.559908 277.909483,41.3092672 C278.557535,42.0022456 279.067699,42.812291 279.412716,43.6961207 C279.723511,44.4738812 279.896708,45.2997581 279.924569,46.1368534 Z" id="Shape"></path>
                <path d="M317.952586,59.1487069 C317.216487,59.6919873 316.431925,60.1663318 315.608836,60.5657328 C314.5748,60.9980669 313.458062,61.1967616 312.338362,61.1476293 C310.889009,61.1476293 309.876078,60.6519397 309.229526,59.6228448 C308.582974,58.59375 308.243534,57.0528017 308.243534,55.0915948 L308.243534,39.8275862 L317.747845,39.8275862 L317.747845,32.1821121 L308.243534,32.1821121 L308.243534,20.7165948 L298.938578,20.7165948 L298.938578,32.1821121 L292.904095,32.1821121 L292.904095,39.8275862 L298.938578,39.8275862 L298.938578,55.6950431 C298.922451,57.5268376 299.126867,59.3539145 299.547414,61.1368534 C299.905114,62.6897849 300.600465,64.1448713 301.584052,65.3987069 C302.578072,66.6135115 303.864848,67.5554168 305.323276,68.1357759 C307.096555,68.8146134 308.985395,69.1404017 310.883621,69.0948276 C312.858999,69.1217191 314.823552,68.7988538 316.686422,68.1411638 C318.606556,67.3906394 320.386227,66.3213799 321.950431,64.9784483 L322.095905,64.8599138 L318.09806,59.0301724 L317.952586,59.1487069 Z" id="Path"></path>
                <path d="M358.701509,42.2306034 C357.269166,40.9166108 355.631055,39.8463778 353.852371,39.0625 C352.023001,38.252875 350.11187,37.6423247 348.15194,37.2413793 C346.423861,36.9248519 344.720548,36.4855197 343.054957,35.9267241 C341.925617,35.5575875 340.861811,35.0120464 339.903017,34.3103448 C339.221235,33.8199902 338.666951,33.1733255 338.286638,32.424569 C337.962487,31.6921842 337.802496,30.8977477 337.817888,30.0969828 C337.833273,29.4596468 337.980011,28.832342 338.248922,28.2543103 C338.563404,27.5708135 339.023064,26.964063 339.595905,26.4762931 C340.277979,25.8969281 341.061751,25.4493194 341.907328,25.15625 C342.975789,24.7851225 344.100695,24.6028038 345.231681,24.6174569 C346.541627,24.5988899 347.845478,24.7992021 349.08944,25.2101293 C350.112809,25.556894 351.098439,26.0063846 352.03125,26.5517241 C352.763863,26.9818669 353.446861,27.4914055 354.067888,28.0711207 C354.639009,28.6099138 355.037716,28.9762931 355.290948,29.1756466 L355.425647,29.2834052 L361.955819,23.1465517 L361.831897,23.0010776 C361.530172,22.6508621 361.023707,22.0851293 360.317888,21.3038793 C359.424143,20.3662883 358.407327,19.5542855 357.295259,18.8900862 C355.775305,17.9718551 354.14622,17.2478176 352.446121,16.7349138 C350.195946,16.0817085 347.859855,15.772894 345.517241,15.8189655 C342.865082,15.766229 340.224305,16.1802182 337.715517,17.0420259 C335.679674,17.752346 333.800625,18.8501352 332.182112,20.2747845 C330.746684,21.5671479 329.61982,23.1653807 328.884698,24.9515086 C327.544605,28.3005382 327.464206,32.0218637 328.658405,35.4256466 C329.220136,37.0371111 330.077058,38.5298725 331.185345,39.8275862 C332.381324,41.2183047 333.817607,42.382661 335.425647,43.2650862 C337.315113,44.3048738 339.360127,45.032637 341.481681,45.4202586 C343.396934,45.7845321 345.289473,46.2594658 347.149784,46.8426724 C348.447027,47.2400272 349.687529,47.8032331 350.840517,48.518319 C351.67165,49.031592 352.349132,49.7593259 352.801724,50.625 C353.233442,51.4973943 353.45487,52.4587631 353.448276,53.4321121 C353.462165,55.2420414 352.701356,56.9715091 351.357759,58.1842672 C349.97306,59.5043103 347.796336,60.1670259 344.892241,60.1670259 C343.442128,60.189412 341.99888,59.9634488 340.625,59.4989224 C339.418465,59.0827701 338.267609,58.5200084 337.198276,57.8232759 C336.215339,57.1875874 335.290415,56.4663994 334.434267,55.6681034 C333.67506,54.9727088 332.955535,54.2351953 332.279095,53.4590517 L332.139009,53.3028017 L325.210129,59.6821121 L325.328664,59.8275862 C326.249699,60.9610456 327.25083,62.0269978 328.324353,63.0172414 C329.620592,64.2088116 331.052909,65.2432627 332.591595,66.0991379 C334.345168,67.083228 336.205246,67.864135 338.135776,68.4267241 C340.37595,69.0566592 342.694639,69.3632778 345.021552,69.3372845 C347.507964,69.3613334 349.980357,68.9623253 352.332974,68.1573276 C354.459418,67.4308386 356.427255,66.3042704 358.130388,64.8383621 C359.724511,63.4558957 361.023716,61.7663799 361.950431,59.8706897 C362.878255,57.9380654 363.350138,55.8182754 363.329741,53.674569 C363.390978,51.3761318 362.961153,49.0910782 362.068966,46.9719828 C361.2741,45.1826576 360.129125,43.5705319 358.701509,42.2306034 Z" id="Path"></path>
                <path d="M401.885776,37.3545259 C399.037936,33.5297969 394.496447,31.3436016 389.730603,31.5032328 C388.380655,31.4906002 387.034296,31.6444181 385.721983,31.9612069 C384.626885,32.2372707 383.562004,32.6217109 382.543103,33.1088362 C381.66879,33.5232315 380.846016,34.0385952 380.091595,34.6443966 C379.602153,35.0350511 379.136185,35.4542421 378.696121,35.8997845 L378.485991,32.1821121 L369.466595,32.1821121 L369.466595,83.049569 L378.696121,83.049569 L378.696121,67.3760776 L380.269397,67.9903017 C380.892045,68.2322839 381.529031,68.4356156 382.176724,68.5991379 C382.929812,68.7900224 383.694803,68.9304207 384.466595,69.0193966 C385.463076,69.12917 386.465206,69.1795464 387.467672,69.1702586 C390.013734,69.167033 392.535687,68.6769073 394.897629,67.7262931 C397.515446,66.6044515 399.81186,64.8469545 401.578664,62.6131466 C402.850343,61.0488045 403.878461,59.3013676 404.628233,57.4299569 C405.492998,55.1421982 405.908273,52.7090877 405.851293,50.2640086 C405.85485,47.9205574 405.520965,45.5888028 404.859914,43.3405172 C404.235829,41.1828599 403.22838,39.1551871 401.885776,37.3545259 L401.885776,37.3545259 Z M396.012931,46.0883621 C396.342073,47.4556487 396.50489,48.8576809 396.497845,50.2640086 C396.499952,51.6263404 396.274134,52.9794263 395.829741,54.2672414 C395.398732,55.5281719 394.733322,56.6962959 393.868534,57.7101293 C392.99443,58.7269644 391.924249,59.5570877 390.721983,60.1508621 C389.41123,60.784425 387.969583,61.1000736 386.514009,61.0721983 C383.060345,61.0721983 380.436422,60.3717672 378.72306,58.9924569 L378.72306,48.6045259 C378.726102,47.5566978 378.925295,46.5187012 379.310345,45.544181 C379.733925,44.4773743 380.335095,43.4899971 381.088362,42.6239224 C381.866359,41.7362918 382.806221,41.0048816 383.857759,40.46875 C384.970808,39.898232 386.206238,39.607869 387.456897,39.6228448 C388.916943,39.5641621 390.370586,39.846405 391.702586,40.4471983 C392.789688,40.9776376 393.735196,41.7587895 394.461207,42.7262931 C395.194968,43.7337655 395.722319,44.8763592 396.012931,46.0883621 L396.012931,46.0883621 Z" id="Shape"></path>
                <rect id="Rectangle" x="412.376078" y="32.1821121" width="9.3049569" height="35.78125"></rect>
                <rect id="Rectangle" x="412.074353" y="17.2467672" width="9.90840517" height="9.7575431"></rect>
                <path d="M439.989224,42.4730603 C440.830833,41.465434 441.875472,40.6466131 443.054957,40.0700431 C444.416721,39.4288471 445.909038,39.113413 447.413793,39.1487069 C448.997217,39.118823 450.566786,39.4485797 452.00431,40.1131466 C453.33335,40.7545818 454.517667,41.6602362 455.484914,42.7747845 L455.625,42.9418103 L461.551724,36.9127155 L461.417026,36.7726293 C459.691425,34.9628993 457.616505,33.5221864 455.317888,32.5377155 C450.278631,30.4675071 444.628863,30.4539678 439.579741,32.5 C437.312731,33.466525 435.259859,34.8729533 433.539871,36.637931 C431.852284,38.3864569 430.518558,40.4446766 429.612069,42.6993534 C428.670494,45.03655 428.191098,47.5341642 428.200431,50.0538793 C428.168769,52.6984573 428.608468,55.3275294 429.498922,57.8178879 C430.307856,60.067995 431.581955,62.1223421 433.238147,63.8469828 C434.940479,65.5712512 437.000406,66.9010073 439.272629,67.7424569 C441.880045,68.6918262 444.63928,69.1556553 447.413793,69.1109914 C450.168653,69.1635924 452.901573,68.6118588 455.420259,67.4946121 C457.649653,66.460408 459.661207,65.0102609 461.346983,63.2219828 L461.476293,63.0872845 L455.915948,57.0528017 L455.770474,57.2198276 C454.764128,58.3645326 453.526396,59.2827319 452.139009,59.9137931 C450.650683,60.5894686 449.032035,60.9297526 447.397629,60.9105603 C444.51259,61.0024882 441.755949,59.7161888 439.97306,57.4461207 C439.161715,56.4064706 438.548099,55.2267207 438.162716,53.9655172 C437.770371,52.6894417 437.570615,51.3619688 437.570043,50.0269397 C437.570159,48.6406344 437.769762,47.2615592 438.162716,45.9321121 C438.533478,44.6682965 439.15463,43.4919557 439.989224,42.4730603 Z" id="Path"></path>
                <path d="M499.962284,51.4709052 C499.963359,48.9628072 499.657568,46.4639987 499.051724,44.0301724 C498.480686,41.6771715 497.471732,39.452721 496.077586,37.4730603 C494.653672,35.4969229 492.781292,33.8867501 490.614224,32.7747845 C488.043608,31.509089 485.202451,30.8912853 482.338362,30.9752155 C479.811348,30.9454938 477.305517,31.4389554 474.978448,32.424569 C472.82582,33.3541376 470.880465,34.7041629 469.256466,36.3954741 C467.634727,38.107711 466.364367,40.121251 465.517241,42.3221983 C464.614723,44.6682627 464.161444,47.1631265 464.181034,49.6767241 C464.153151,52.3681397 464.605642,55.0429457 465.517241,57.575431 C467.17037,62.2128445 470.74478,65.9109842 475.323276,67.7209052 C477.792213,68.7114565 480.432653,69.2040214 483.092672,69.1702586 C485.527089,69.2171439 487.955422,68.9104262 490.301724,68.2596983 C492.024296,67.7667002 493.684039,67.0760444 495.247845,66.2015086 C496.327803,65.6007228 497.32869,64.8677047 498.227371,64.0193966 L499.606681,62.6400862 L494.515086,56.9073276 L494.358836,57.0581897 C494.0625,57.3545259 493.626078,57.7424569 493.054957,58.2165948 C492.384456,58.7473517 491.651664,59.1942641 490.872845,59.5474138 C488.464225,60.6519976 485.839168,61.2042535 483.189655,61.1637931 C482.017247,61.1568622 480.854008,60.9566176 479.746767,60.5711207 C478.619213,60.1915404 477.566987,59.6171017 476.637931,58.8739224 C475.735165,58.1412789 474.98468,57.2388668 474.428879,56.2176724 C473.892105,55.2236364 473.603734,54.1145144 473.588362,52.9849138 L499.989224,52.9849138 L499.962284,51.4709052 Z M490.431034,46.1368534 L473.491379,46.1368534 C473.525498,45.2967367 473.723153,44.4713405 474.073276,43.7068966 C474.472841,42.8094003 475.043879,41.9985997 475.75431,41.3200431 C476.559196,40.5647305 477.496111,39.9638628 478.518319,39.5474138 C479.729,39.063422 481.023927,38.8253166 482.327586,38.8469828 C483.542169,38.826258 484.747182,39.0650563 485.862069,39.5474138 C486.816958,39.9596704 487.679776,40.5586972 488.399784,41.3092672 C489.636675,42.6286725 490.354349,44.3510911 490.420259,46.1584052 L490.431034,46.1368534 Z" id="Shape"></path>
                <path d="M81.2769397,48.2273707 C75.2155172,59.1056034 67.9525862,65.1939655 52.262931,66.9827586 C34.8976293,68.9655172 20.5926724,57.5269397 14.9461207,48.9709052 C17.575431,50.1346983 26.7618534,52.7424569 37.4353448,51.7456897 C51.5355603,50.4471983 59.5258621,44.8114224 65.3609914,35.5818966 C66.2392241,34.1971983 68.59375,29.8760776 64.4612069,28.4213362 C60.6896552,27.0905172 57.1821121,27.0528017 54.4827586,31.0775862 C50.1077586,37.6131466 44.9407328,40.1239224 34.1756466,41.325431 C19.8275862,42.9256466 2.59698276,33.3297414 0.603448276,35.3286638 C-2.96336207,38.9116379 8.68534483,78.2543103 51.2931034,77.7747845 C66.6648707,77.5969828 77.4568966,72.3060345 87.5592672,59.0732759 C89.9892241,55.8890086 89.2564655,52.0150862 86.5625,48.3674569 C84.9030172,46.1206897 82.5431034,45.9536638 81.2769397,48.2273707 Z" id="Path"></path>
                <path d="M92.4461207,24.6336207 C98.1573276,9.57435345 92.6400862,0.0915948276 90.5172414,0.538793103 C88.7984914,0.915948276 85.5657328,10.8243534 81.0398707,16.5840517 C65.7327586,9.52586207 56.1368534,15.9590517 56.3523707,19.3965517 C56.5355603,22.2467672 69.1325431,20.1939655 80.9267241,30.5387931 C93.5614224,41.5948276 93.9008621,53.4590517 97.5215517,53.4160654 C100.366379,53.3782328 106.487069,41.8157328 92.4461207,24.6336207 Z" id="Path"></path>
            </g>
        </g>
    </g>
</svg>