<?xml version="1.0" encoding="UTF-8"?>
<svg width="120px" height="120px" viewBox="0 0 120 120" version="1.1" xmlns="http://www.w3.org/2000/svg" xmlns:xlink="http://www.w3.org/1999/xlink">
    <!-- Generator: Sketch 64 (93537) - https://sketch.com -->
    <title>Artboard Copy 9</title>
    <desc>Created with Sketch.</desc>
    <g id="Artboard-Copy-9" stroke="none" stroke-width="1" fill="none" fill-rule="evenodd">
        <path d="M22.3155066,21.9072585 L84.7371239,29.5649027 C86.5523927,29.7875929 87.8434328,31.4396851 87.6207426,33.2549539 C87.6160089,33.2935407 87.6105961,33.332041 87.6045067,33.3704372 L74.307606,117.212488 C74.0211362,119.01879 72.3246094,120.250857 70.5183074,119.964388 C70.2896664,119.928126 70.0654581,119.867989 69.8493603,119.784964 L11.6244657,97.4146358 C10.1955889,96.8656534 9.32918318,95.4088837 9.52896193,93.8912674 L18.6291399,24.7619001 C18.8663463,22.9599657 20.51155,21.685956 22.3155066,21.9072585 Z M32.4248909,0.0280905417 L107.009461,9.18147175 C109.18777,9.44880452 110.736923,11.4313895 110.46959,13.6096993 C110.463925,13.6558593 110.457451,13.7019163 110.450169,13.7478489 L94.56078,113.976308 C94.2171493,116.143892 92.181408,117.622498 90.0138245,117.278867 C89.7391977,117.23533 89.469899,117.163089 89.210354,117.063331 L83.0286505,114.687358 C83.2376512,114.147843 83.4047333,113.584603 83.5253605,113.000897 L83.6070497,112.559331 L96.7983659,31.9123264 C96.8233087,31.7598347 96.8449132,31.6068157 96.8631638,31.4533792 C97.5430779,25.7372076 93.5384602,20.5434488 87.8766862,19.7168932 L87.5922306,19.6792226 L27.5186703,12.5337298 C27.28239,12.5056253 27.0469782,12.4855288 26.8127093,12.4732281 L28.0010351,3.4538396 C28.2855917,1.29135118 30.260003,-0.237595038 32.4248909,0.0280905417 Z" id="Combined-Shape" fill="#2E2E2E"></path>
    </g>
</svg>