<?xml version="1.0" encoding="UTF-8"?>
<svg width="500px" height="229px" viewBox="0 0 500 229" version="1.1" xmlns="http://www.w3.org/2000/svg" xmlns:xlink="http://www.w3.org/1999/xlink">
    <title>Shape</title>
    <g id="Page-1" stroke="none" stroke-width="1" fill="none" fill-rule="evenodd">
        <g id="Artboard" fill="#FFFFFF" fill-rule="nonzero">
            <g id="zapierWordmark">
                <path d="M300.033,99.59 L287.57,99.59 C287.314,98.57 287.123,97.387 286.996,96.044 C286.742207,93.4301461 286.742207,90.7978539 286.996,88.184 C287.123,86.844 287.314,85.662 287.57,84.636 L318.63,84.636 L318.63,182.989 C317.075075,183.259391 315.507372,183.450305 313.933,183.561 C312.369133,183.680923 310.801444,183.744297 309.233,183.751 C307.730546,183.741431 306.228917,183.678057 304.731,183.561 C303.157222,183.449487 301.590176,183.25757 300.036,182.986 L300.036,99.586 L300.036,99.588 L300.033,99.59 Z M408.16,124.324 C408.16,120.744 407.68,117.326 406.724,114.064 C405.764,110.807 404.354,107.964 402.506,105.534 C400.649,103.108 398.286,101.157 395.41,99.688 C392.535,98.218 389.115,97.482 385.153,97.482 C377.357,97.482 371.381,99.85 367.228,104.577 C363.074,109.305 360.551,115.887 359.655,124.324 L408.161,124.324 L408.16,124.324 Z M359.464,138.51 C359.72,149.246 362.5,157.108 367.804,162.09 C373.106,167.074 380.936,169.57 391.289,169.57 C400.361,169.57 408.989,167.97 417.169,164.775 C418.189,166.692 419.019,169.025 419.659,171.773 C420.286888,174.448495 420.671786,177.175243 420.809,179.92 C416.594,181.714 411.957,183.05 406.912,183.947 C401.86,184.839 396.269,185.289 390.138,185.289 C381.188,185.289 373.518,184.039 367.131,181.549 C360.739,179.054 355.467,175.539 351.313,171.004 C347.16,166.468 344.123,161.099 342.206,154.899 C340.29,148.702 339.329,141.895 339.329,134.482 C339.329,127.197 340.255,120.39 342.109,114.062 C343.959,107.739 346.809,102.242 350.639,97.577 C354.475,92.91 359.299,89.205 365.115,86.457 C370.928,83.709 377.797,82.333 385.725,82.333 C392.498,82.333 398.441,83.485 403.555,85.785 C408.665,88.085 412.948,91.249 416.4,95.275 C419.85,99.302 422.47,104.095 424.26,109.652 C426.048,115.214 426.946,121.252 426.946,127.772 C426.946,129.562 426.878,131.446 426.751,133.426 C426.646059,135.120943 426.518714,136.814424 426.369,138.506 L359.46,138.506 L359.462,138.509 L359.464,138.51 Z M447.854,84.636 C449.188253,84.3937885 450.53122,84.2023173 451.88,84.062 C453.155,83.937 454.5,83.872 455.906,83.872 C457.312,83.872 458.716,83.937 460.124,84.062 C461.529,84.192 462.808,84.384 463.959,84.636 C464.339,86.554 464.723,89.081 465.105,92.209 C465.488,95.341 465.683,97.991 465.683,100.165 C468.366,95.821 471.913,92.048 476.321,88.852 C480.731,85.659 486.386,84.059 493.287,84.059 C494.309,84.059 495.363,84.093 496.45,84.157 C497.38,84.207 498.31,84.301 499.23,84.442 C499.484,85.594 499.68,86.81 499.806,88.086 C499.932,89.363 499.996,90.706 499.996,92.111 C499.996,93.646 499.901,95.245 499.71,96.903 C499.525621,98.5055381 499.302222,100.103346 499.04,101.695 C498.004334,101.440009 496.941594,101.311406 495.875,101.312 L493.285,101.312 C489.835,101.312 486.543,101.792 483.412,102.749 C480.278,103.709 477.468,105.403 474.976,107.829 C472.486,110.259 470.503,113.583 469.036,117.801 C467.563,122.019 466.83,127.451 466.83,134.096 L466.83,182.986 C465.275,183.256 463.707,183.449 462.132,183.56 C460.409,183.688 458.842,183.75 457.437,183.75 C455.869211,183.743776 454.302171,183.680401 452.739,183.56 C451.101376,183.44091 449.469794,183.249724 447.849,182.987 L447.849,84.637 L447.854,84.636 Z M313.3,32.12 C313.30019,34.414708 312.885871,36.6905801 312.077,38.838 C309.928862,39.6468981 307.65239,40.0615411 305.357,40.0620002 L305.329,40.0620002 C303.033632,40.062299 300.757084,39.6479809 298.609,38.839 C297.798805,36.6911895 297.383791,34.4145403 297.384,32.119 L297.384,32.089 C297.384,29.724 297.818,27.459 298.604,25.369 C300.752465,24.5588882 303.029877,24.1445362 305.326,24.1459961 L305.352,24.1459961 C307.718,24.1459961 309.982,24.58 312.072,25.369 C312.881768,27.5168662 313.296112,29.7935585 313.295,32.089 L313.295,32.119 L313.298,32.119 L313.3,32.12 Z M336.726,26.8 L318.15,26.8 L331.284,13.665 C329.21867,10.7644796 326.683071,8.22955641 323.782,6.165 L310.646,19.3 L310.646,0.723 C308.899311,0.42918598 307.131228,0.281009588 305.36,0.28 L305.326,0.28 C303.524,0.28 301.759,0.434 300.039,0.723 L300.039,19.3 L286.9,6.164 C285.453032,7.19387307 284.094944,8.34323067 282.84,9.6 L282.834,9.606 C281.579109,10.8618371 280.430819,12.2198494 279.401,13.666 L292.54,26.8 L273.96,26.8 C273.96,26.8 273.518,30.29 273.518,32.094 L273.518,32.116 C273.518,33.92 273.671,35.688 273.961,37.409 L292.541,37.409 L279.4,50.542 C281.466833,53.4421519 284.002573,55.9775532 286.903,58.044 L300.04,44.91 L300.04,63.488 C301.758,63.776 303.52,63.928 305.32,63.93 L305.365,63.93 C307.134171,63.9283749 308.900182,63.7805384 310.645,63.488 L310.645,44.91 L323.783,58.047 C325.230171,57.0161872 326.58918,55.8668994 327.846,54.611 L327.849,54.611 C329.103302,53.3538249 330.251232,51.9948384 331.281,50.548 L318.147,37.41 L336.727,37.41 C337.015,35.69 337.167,33.928 337.167,32.128 L337.167,32.082 C337.167,30.312 337.019,28.547 336.727,26.802 L336.727,26.8 L336.726,26.8 Z M0,180.306 L51.764,99.782 L6.134,99.782 C5.752,97.482 5.561,94.928 5.561,92.115 C5.561,89.432 5.755,86.937 6.138,84.635 L79.948,84.635 L80.908,87.132 L28.761,167.844 L77.647,167.844 C78.03,170.401 78.223,173.019 78.223,175.702 C78.223,178.262 78.031,180.689 77.648,182.989 L0.96,182.989 L0,180.303 L0,180.306 Z M149.346,136.783 C147.429,136.53 145,136.277 142.061,136.018 C139.121,135.765 136.629,135.635 134.587,135.635 C126.661,135.635 120.622,137.105 116.471,140.045 C112.314,142.987 110.241,147.458 110.241,153.465 C110.241,157.299 110.941,160.303 112.348,162.475 C113.752,164.651 115.511,166.309 117.62,167.46 C119.73,168.61 122.06,169.314 124.615,169.57 C127.17,169.825 129.6,169.952 131.9,169.952 C134.84,169.952 137.875,169.792 141.007,169.472 C144.137,169.155 146.917,168.674 149.347,168.035 L149.347,136.783 L149.346,136.783 Z M149.346,118.189 C149.346,110.645 147.429,105.405 143.596,102.465 C139.76,99.525 134.201,98.055 126.916,98.055 C122.439,98.055 118.256,98.409 114.359,99.111 C110.502599,99.8031411 106.69215,100.73054 102.949,101.888 C100.519,97.67 99.309,92.625 99.309,86.742 C103.649,85.338 108.441,84.252 113.684,83.485 C118.924,82.717 123.972,82.333 128.831,82.333 C141.611,82.333 151.324,85.243 157.971,91.058 C164.615,96.878 167.941,106.175 167.941,118.954 L167.941,180.496 C163.465,181.518 158.035,182.572 151.645,183.659 C145.183942,184.75 138.64252,185.295258 132.09,185.289053 C125.828,185.289053 120.17,184.716 115.124,183.565 C110.074,182.412 105.792,180.563 102.278,178.003 C98.76,175.449 96.048,172.189 94.128,168.228 C92.212,164.265 91.253,159.473 91.253,153.848 C91.253,148.354 92.371,143.528 94.608,139.372 C96.8060928,135.26584 99.9231506,131.723045 103.716,129.02 C107.55,126.276 111.959,124.228 116.944,122.888 C121.93,121.545 127.168,120.873 132.664,120.873 C136.754,120.873 140.109,120.971 142.73,121.163 C145.348,121.353 147.554,121.577 149.344,121.833 L149.344,118.19 L149.346,118.189 Z M207.626,166.881 C210.046298,167.77508 212.552156,168.417797 215.104,168.799 C217.66,169.184 220.98,169.375 225.074,169.375 C229.674,169.375 233.89,168.642 237.724,167.172 C241.56,165.705 244.85,163.434 247.598,160.365 C250.346,157.299 252.518,153.435 254.116,148.765 C255.713,144.103 256.514,138.577 256.514,132.183 C256.514,121.959 254.626,113.843 250.858,107.835 C247.085,101.829 240.918,98.825 232.358,98.825 C229.163,98.825 226.093,99.399 223.158,100.551 C220.214,101.701 217.596,103.427 215.295,105.727 C212.995,108.027 211.142,110.937 209.737,114.451 C208.327,117.969 207.627,122.151 207.627,127.009 L207.627,166.884 L207.627,166.882 L207.626,166.881 Z M188.646,84.634 C189.946,84.378 191.256,84.187 192.576,84.06 C193.946672,83.9331744 195.322473,83.8697734 196.699,83.87 C197.973,83.87 199.314,83.936 200.723,84.06 C202.127,84.19 203.469,84.383 204.749,84.635 C204.875,84.895 205.037,85.69 205.229,87.033 C205.419,88.376 205.611,89.813 205.804,91.345 C205.996,92.88 206.187,94.353 206.379,95.755 C206.571,97.163 206.667,98.058 206.667,98.441 C207.942,96.398 209.477,94.415 211.267,92.498 C213.057,90.58 215.2,88.855 217.692,87.323 C220.184,85.788 222.994,84.575 226.127,83.679 C229.257,82.785 232.74,82.334 236.575,82.334 C242.325,82.334 247.662,83.294 252.585,85.212 C257.503,87.132 261.718,90.099 265.235,94.126 C268.748,98.153 271.495,103.266 273.478,109.463 C275.458,115.667 276.448,122.983 276.448,131.417 C276.448,148.287 271.878,161.487 262.738,171.007 C253.598,180.53 240.661,185.289 223.918,185.289 C221.105,185.289 218.231,185.097 215.291,184.714 C212.349,184.329 209.795,183.817 207.621,183.181 L207.621,228.235 C206.001595,228.498522 204.371339,228.690375 202.735,228.81 C201.008,228.935 199.441,229 198.035,229 C196.467889,228.993253 194.901534,228.929879 193.339,228.81 C191.764892,228.698469 190.197514,228.506552 188.643,228.235 L188.643,84.635 L188.646,84.634 Z" id="Shape"></path>
            </g>
        </g>
    </g>
</svg>