<?xml version="1.0" encoding="UTF-8"?>
<svg width="50px" height="50px" viewBox="0 0 50 50" version="1.1" xmlns="http://www.w3.org/2000/svg" xmlns:xlink="http://www.w3.org/1999/xlink">
    <!-- Generator: Sketch 64 (93537) - https://sketch.com -->
    <title>Zeplin Copy 27</title>
    <desc>Created with Sketch.</desc>
    <g id="Zeplin-Copy-27" stroke="none" stroke-width="1" fill="none" fill-rule="evenodd">
        <rect id="Rectangle" opacity="0" x="0" y="0" width="50" height="50" rx="6"></rect>
        <g id="Adobe_Photoshop_CC_icon" transform="translate(7.000000, 7.000000)" fill-rule="nonzero">
            <path d="M29.625,36 L6.375,36 C2.85,36 0,33.0769231 0,29.4615385 L0,6.53846154 C0,2.92307692 2.85,0 6.375,0 L29.625,0 C33.15,0 36,2.92307692 36,6.53846154 L36,29.4615385 C36,33.0769231 33.15,36 29.625,36 Z" id="Path" fill="#D291FF"></path>
            <path d="M29.0674733,34.5 L6.94746479,34.5 C3.94610678,34.5 1.5,31.9864486 1.5,28.8869159 L1.5,7.11308411 C1.5,4.0135514 3.94610678,1.5 6.94746479,1.5 L29.0524665,1.5 C32.0688313,1.5 34.5,4.0135514 34.5,7.09766355 L34.5,28.8869159 C34.5149381,31.9864486 32.0688313,34.5 29.0674733,34.5 Z" id="Path" fill="#1F0040"></path>
        </g>
        <g id="Adobe_Illustrator_CC_icon" transform="translate(15.500000, 16.500000)"></g>
        <path d="M31.8620238,20.8707085 C35.1305232,20.8707085 36.27,23.6329417 36.27,25.8819731 C36.27,26.6064933 36.2250207,27.1951659 36.1500551,27.4819552 C36.1200688,27.6027085 36.0750895,27.647991 35.9551446,27.6781794 C35.6552822,27.7234619 34.7706884,27.7838386 33.4512941,27.7838386 L29.5230976,27.7687444 C29.5530838,29.8064574 30.5126433,31.1800269 32.791597,31.1800269 C33.6761909,31.1800269 34.4408398,31.0592735 35.235475,30.7121076 C35.3404268,30.6668251 35.4153924,30.6819193 35.4153924,30.8177668 L35.4153924,32.7045381 C35.4153924,32.8554798 35.370413,32.9309507 35.2654612,33.0064215 C34.470826,33.39887 33.4812803,33.58 32.2518448,33.58 C28.2936621,33.58 26.8093435,30.6366368 26.8093435,27.3461076 C26.8093435,23.7838834 28.6385037,20.8707085 31.8620238,20.8707085 Z M21.1869249,16.75 C21.2918767,16.75 21.336856,16.7801883 21.3668423,16.9009417 L26.1346533,33.1573632 C26.1646395,33.2781166 26.1346533,33.3535874 26.0147084,33.3535874 L23.5408442,33.3535874 C23.4208992,33.3535874 23.3459336,33.3083049 23.3159474,33.2026457 L22.0715188,28.6743946 L17.2737215,28.6743946 L16.0892653,33.1875516 C16.0592791,33.3083049 16.0142997,33.3535874 15.8643686,33.3535874 L13.6603804,33.3535874 C13.5104493,33.3535874 13.480463,33.3083049 13.5104493,33.1271749 L17.7684943,18.1386637 C17.8434599,17.8669686 17.8884393,17.6556502 17.9184255,16.9009417 C17.9184255,16.7952825 17.9634049,16.75 18.0383704,16.75 L21.1869249,16.75 Z M19.6726201,19.1348789 L19.6426339,19.1348789 C19.3277784,20.9008969 18.503157,23.8895426 17.8884393,26.229139 L21.4867872,26.229139 C21.06698,24.5536861 20.047448,20.9008969 19.6726201,19.1348789 Z M31.757072,23.0744574 C30.3177328,23.0744574 29.703015,24.3423677 29.5530838,25.6857489 L33.0207112,25.6853779 C33.4455275,25.6841412 33.618525,25.6787823 33.6761909,25.6555605 C33.6761909,25.5499013 33.7061771,25.4744305 33.7061771,25.3989596 C33.7061771,24.5838744 33.3163561,23.0744574 31.757072,23.0744574 Z" id="Combined-Shape" fill="#D291FF" fill-rule="nonzero"></path>
    </g>
</svg>