<?xml version="1.0" encoding="UTF-8"?>
<svg width="50px" height="50px" viewBox="0 0 50 50" version="1.1" xmlns="http://www.w3.org/2000/svg" xmlns:xlink="http://www.w3.org/1999/xlink">
    <!-- Generator: Sketch 64 (93537) - https://sketch.com -->
    <title>Zeplin Copy 10</title>
    <desc>Created with Sketch.</desc>
    <g id="Zeplin-Copy-10" stroke="none" stroke-width="1" fill="none" fill-rule="evenodd">
        <rect id="Rectangle" opacity="0" x="0" y="0" width="50" height="50" rx="6"></rect>
        <g id="CSS3_logo_and_wordmark" transform="translate(24.000000, 12.500000)">
            <g id="Group" transform="translate(0.085450, 0.780986)"></g>
        </g>
        <g id="Group-2" transform="translate(9.585450, 7.780986)" fill-rule="nonzero">
            <polygon id="polygon2989" fill="#264DE4" points="30.9956055 0 28.1718262 31.6334895 15.4788329 35.1524043 2.82078861 31.6384456 8.8817842e-15 0"></polygon>
            <polygon id="polygon2991" fill="#2965F1" points="25.7543614 29.6191776 28.1674682 2.58691207 15.4978028 2.58691207 15.4978028 32.4626959"></polygon>
            <polygon id="polygon2993" fill="#EBEBEB" points="6.46659657 14.3211568 6.8143779 18.2014395 15.4978028 18.2014395 15.4978028 14.3211568"></polygon>
            <polygon id="polygon2995" fill="#EBEBEB" points="15.4978028 6.46728017 15.4843871 6.46728017 5.7677868 6.46728017 6.12052423 10.3476483 15.4978028 10.3476483"></polygon>
            <polygon id="polygon2997" fill="#EBEBEB" points="15.4978028 28.435952 15.4978028 24.3987832 15.4807982 24.4033121 11.159252 23.2364074 10.8829923 20.1416663 8.78305952 20.1416663 6.98775587 20.1416663 7.53138851 26.2343338 15.4799437 28.4409081"></polygon>
            <polygon id="polygon3005" fill="#FFFFFF" points="20.2625779 18.2014395 19.8121712 23.2339294 15.4843871 24.4020303 15.4843871 28.4390282 23.4392656 26.2343338 23.497628 25.5787617 24.4094645 15.3631336 24.504143 14.3211568 25.2046618 6.46728017 15.4843871 6.46728017 15.4843871 10.3476483 20.9521591 10.3476483 20.5990799 14.3211568 15.4843871 14.3211568 15.4843871 18.2014395"></polygon>
        </g>
    </g>
</svg>