<?xml version="1.0" encoding="UTF-8"?>
<svg width="50px" height="50px" viewBox="0 0 50 50" version="1.1" xmlns="http://www.w3.org/2000/svg" xmlns:xlink="http://www.w3.org/1999/xlink">
    <!-- Generator: Sketch 64 (93537) - https://sketch.com -->
    <title>Zeplin Copy 25</title>
    <desc>Created with Sketch.</desc>
    <g id="Zeplin-Copy-25" stroke="none" stroke-width="1" fill="none" fill-rule="evenodd">
        <rect id="Rectangle" opacity="0" x="0" y="0" width="50" height="50" rx="6"></rect>
        <g id="foursquare-svgrepo-com" transform="translate(12.500000, 7.000000)" fill="#FF4175" fill-rule="nonzero">
            <path d="M24.8062128,1.38791489 C24.0529362,0.50587234 22.9555745,0 21.7955745,0 L3.97693617,0 C1.79378723,0 0.0177021277,1.77608511 0.0177021277,3.95923404 L0.0177021277,34.1744681 C0.0177021277,34.9267234 0.482723404,35.6006809 1.18604255,35.8676596 C1.39548936,35.9471489 1.61293617,35.985617 1.82842553,35.985617 C2.33651064,35.985617 2.83310638,35.7714894 3.18365957,35.3762553 L12.7401702,24.6031489 L19.1533617,24.6031489 C21.112766,24.6031489 22.7573617,23.1985532 23.0638298,21.263234 L25.7062128,4.57855319 C25.8875745,3.43285106 25.5595745,2.26995745 24.8062128,1.38791489 Z M20.3784681,10.1064681 L11.9086809,10.1064681 C10.8933617,10.1064681 10.0378723,10.9373617 10.0571064,11.9525957 C10.0757447,12.9366809 10.8793191,13.7286809 11.8678298,13.7286809 L19.5285106,13.7286809 C20.0857021,13.7286809 20.5111489,14.2264681 20.4243404,14.7768511 L19.5662979,20.2188085 C19.496766,20.6599149 19.1165106,20.9846809 18.6699574,20.9845106 L11.9255319,20.9811064 C11.4075745,20.9811064 10.914383,21.2028936 10.5707234,21.590383 L3.63974468,29.4037447 L3.63974468,3.95923404 C3.63974468,3.77310638 3.7906383,3.62212766 3.97685106,3.62212766 L21.056,3.62212766 C21.6086809,3.62212766 22.0329362,4.11234043 21.9535319,4.65931915 L21.2759149,9.32970213 C21.2113191,9.77565957 20.8291064,10.1064681 20.3784681,10.1064681 Z" id="Shape"></path>
        </g>
    </g>
</svg>