<?xml version="1.0" encoding="UTF-8"?>
<svg width="50px" height="50px" viewBox="0 0 50 50" version="1.1" xmlns="http://www.w3.org/2000/svg" xmlns:xlink="http://www.w3.org/1999/xlink">
    <!-- Generator: Sketch 64 (93537) - https://sketch.com -->
    <title>Zeplin Copy 15</title>
    <desc>Created with Sketch.</desc>
    <g id="Zeplin-Copy-15" stroke="none" stroke-width="1" fill="none" fill-rule="evenodd">
        <rect id="Rectangle" opacity="0" x="0" y="0" width="50" height="50" rx="6"></rect>
        <g id="Git-icon-black" transform="translate(7.000000, 6.500000)" fill="#100F0D" fill-rule="nonzero">
            <g id="g10" transform="translate(18.000000, 18.457328) scale(-1, 1) rotate(-180.000000) translate(-18.000000, -18.457328) translate(0.000000, 0.457328)">
                <g id="g12">
                    <path d="M34.973806,19.4102069 L19.4103233,34.9730302 C18.5144741,35.8695388 17.0607802,35.8695388 16.1636897,34.9730302 L12.9321853,31.740944 L17.0316853,27.641444 C17.9844052,27.9631552 19.0769741,27.7472328 19.8361552,26.9878966 C20.5999138,26.2238276 20.8140129,25.1218707 20.4839612,24.1656983 L24.4352716,20.2148534 C25.391444,20.5444397 26.4938664,20.3313879 27.257625,19.5665819 C28.3244353,18.5000819 28.3244353,16.7711897 27.257625,15.7037974 C26.1900388,14.6363664 24.4614957,14.6363664 23.393444,15.7037974 C22.5910862,16.506931 22.3925431,17.6860086 22.799444,18.6746509 L19.1140991,22.3596853 L19.1140991,12.6626121 C19.3739741,12.533819 19.6194569,12.3622759 19.8361552,12.1461983 C20.9029655,11.0795043 20.9029655,9.35080603 19.8361552,8.28248276 C18.7693448,7.21613793 17.0395603,7.21613793 15.9735259,8.28248276 C14.9067155,9.35080603 14.9067155,11.0795043 15.9735259,12.1461983 C16.2372026,12.4095647 16.5425431,12.608806 16.8683276,12.7421767 L16.8683276,22.5289397 C16.5425431,22.6623103 16.2379397,22.8598836 15.9735259,23.1250733 C15.1655431,23.9327845 14.9711121,25.1188448 15.3855388,26.11125 L11.3441121,30.1532974 L0.672210776,19.4823233 C-0.224120948,18.5850776 -0.224120948,17.1313836 0.672210776,16.2349138 L16.2364267,0.672059483 C17.1324698,-0.224272629 18.5856983,-0.224272629 19.4830603,0.672059483 L34.973806,16.1627974 C35.8705862,17.0594224 35.8705862,18.5138534 34.973806,19.4102069" id="path14"></path>
                </g>
            </g>
        </g>
    </g>
</svg>