<?xml version="1.0" encoding="UTF-8"?>
<svg width="50px" height="50px" viewBox="0 0 50 50" version="1.1" xmlns="http://www.w3.org/2000/svg" xmlns:xlink="http://www.w3.org/1999/xlink">
    <!-- Generator: Sketch 64 (93537) - https://sketch.com -->
    <title>Zeplin Copy 15</title>
    <desc>Created with Sketch.</desc>
    <g id="Zeplin-Copy-15" stroke="none" stroke-width="1" fill="none" fill-rule="evenodd">
        <rect id="Rectangle" opacity="0" x="0" y="0" width="50" height="50" rx="6"></rect>
        <g id="Git_icon" transform="translate(7.000000, 7.000000)" fill="#F05133" fill-rule="nonzero">
            <path d="M35.1135484,16.416 L19.5836129,0.88683871 C18.6894194,-0.00774193548 17.2389677,-0.00774193548 16.344,0.88683871 L13.1194839,4.11212903 L17.2099355,8.20258065 C18.1606452,7.88129032 19.2507097,8.09690323 20.0082581,8.85483871 C20.7704516,9.61741935 20.984129,10.7167742 20.6547097,11.6709677 L24.5976774,15.6135484 C25.551871,15.2845161 26.652,15.4974194 27.4138065,16.2603871 C28.4783226,17.3249032 28.4783226,19.0498065 27.4138065,20.1150968 C26.3485161,21.18 24.6236129,21.18 23.5579355,20.1150968 C22.7574194,19.3138065 22.5592258,18.1370323 22.9652903,17.1507097 L19.287871,13.4736774 L19.287871,23.1499355 C19.5472258,23.2784516 19.7922581,23.4495484 20.0082581,23.6655484 C21.0727742,24.7300645 21.0727742,26.4549677 20.0082581,27.5206452 C18.9437419,28.5847742 17.2176774,28.5847742 16.1539355,27.5206452 C15.0894194,26.4545806 15.0894194,24.7296774 16.1539355,23.6655484 C16.4171613,23.4027097 16.7218065,23.2037419 17.0469677,23.0705806 L17.0469677,13.304129 C16.7218065,13.1709677 16.4179355,12.9739355 16.1539355,12.7091613 C15.3476129,11.9032258 15.1536774,10.7194839 15.5670968,9.72929032 L11.5347097,5.69612903 L0.885677419,16.344 C-0.00890322581,17.2393548 -0.00890322581,18.6898065 0.885677419,19.5843871 L16.4163871,35.1139355 C17.3105806,36.0085161 18.7606452,36.0085161 19.656,35.1139355 L35.1135484,19.6563871 C36.008129,18.7618065 36.008129,17.3105806 35.1135484,16.416 Z" id="Path"></path>
        </g>
    </g>
</svg>