<?xml version="1.0" encoding="UTF-8"?>
<svg width="50px" height="50px" viewBox="0 0 50 50" version="1.1" xmlns="http://www.w3.org/2000/svg" xmlns:xlink="http://www.w3.org/1999/xlink">
    <!-- Generator: Sketch 64 (93537) - https://sketch.com -->
    <title>Zeplin Copy 22</title>
    <desc>Created with Sketch.</desc>
    <g id="Zeplin-Copy-22" stroke="none" stroke-width="1" fill="none" fill-rule="evenodd">
        <rect id="Rectangle" opacity="0" x="0" y="0" width="50" height="50" rx="6"></rect>
        <path d="M30.96829,41.9873261 C33.6120551,32.4503864 32.6607422,27.6429675 28.0258569,26.7193199 C28.7338107,29.9576507 29.5302588,33.2850077 26.1453545,35.5329212 C24.3754699,36.7125193 22.9706241,36.2562597 19.8290789,33.8302937 C18.3799859,36.8238022 18.8667042,39.8061824 19.5414727,43 C15.0393288,42.2098918 11.4884978,40.3292117 9.84029279,35.955796 C8.13677887,31.9718702 9.07703006,27.3536321 12.1743281,24.3489954 C13.2583824,23.2361669 14.4309309,22.223493 15.6809119,21.3109737 C20.7472065,17.4828439 21.7317048,13.7659969 19.0547544,8.01267388 C18.9330748,7.67882535 18.8335188,7.34497682 18.7671482,7 C24.3975935,7.8568779 29.7293708,10.1381762 34.2647001,13.6102009 C44.1428684,21.7338485 42.9481963,36.3452859 32.0412826,41.709119 C31.6651821,41.7313756 31.3112052,41.8204019 30.96829,41.9873261 L30.96829,41.9873261 Z" id="Path" fill="#EE4854" fill-rule="nonzero"></path>
    </g>
</svg>