<?xml version="1.0" encoding="UTF-8"?>
<svg width="50px" height="50px" viewBox="0 0 50 50" version="1.1" xmlns="http://www.w3.org/2000/svg" xmlns:xlink="http://www.w3.org/1999/xlink">
    <!-- Generator: Sketch 64 (93537) - https://sketch.com -->
    <title>Zeplin Copy 9</title>
    <desc>Created with Sketch.</desc>
    <g id="Zeplin-Copy-9" stroke="none" stroke-width="1" fill="none" fill-rule="evenodd">
        <rect id="Rectangle" opacity="0" x="0" y="0" width="50" height="50" rx="6"></rect>
        <g id="HTML5_Badge" transform="translate(9.000000, 7.000000)" fill-rule="nonzero">
            <polyline id="Path" fill="#E34F26" points="2.8828125 32.34375 0 0 31.7109375 0 28.828125 32.34375 15.8203125 36"></polyline>
            <polyline id="Path" fill="#EF652A" points="15.890625 33.1875 26.3671875 30.3046875 28.828125 2.6015625 15.890625 2.6015625"></polyline>
            <path d="M15.890625,14.625 L10.6171875,14.625 L10.265625,10.546875 L15.890625,10.546875 L15.890625,6.609375 L15.8203125,6.609375 L5.90625,6.609375 L5.9765625,7.6640625 L6.9609375,18.6328125 L15.890625,18.6328125 L15.890625,14.625 Z M15.890625,24.9609375 L15.8203125,24.9609375 L11.390625,23.765625 L11.109375,20.6015625 L9,20.6015625 L7.171875,20.6015625 L7.6640625,26.859375 L15.8203125,29.109375 L15.890625,29.109375 L15.890625,24.9609375 Z" id="Shape" fill="#EBEBEB"></path>
            <path d="M15.8203125,14.625 L15.8203125,18.6328125 L20.7421875,18.6328125 L20.25,23.765625 L15.8203125,24.9609375 L15.8203125,29.109375 L23.9765625,26.859375 L24.046875,26.15625 L24.9609375,15.6796875 L25.1015625,14.625 L23.9765625,14.625 L15.8203125,14.625 Z M15.8203125,6.609375 L15.8203125,9.0703125 L15.8203125,10.546875 L15.8203125,10.546875 L25.453125,10.546875 L25.453125,10.546875 L25.453125,10.546875 L25.5234375,9.703125 L25.734375,7.6640625 L25.8046875,6.609375 L15.8203125,6.609375 Z" id="Shape" fill="#FFFFFF"></path>
        </g>
    </g>
</svg>