<?xml version="1.0" encoding="UTF-8"?>
<svg width="50px" height="50px" viewBox="0 0 50 50" version="1.1" xmlns="http://www.w3.org/2000/svg" xmlns:xlink="http://www.w3.org/1999/xlink">
    <!-- Generator: Sketch 64 (93537) - https://sketch.com -->
    <title>Zeplin Copy 21</title>
    <desc>Created with Sketch.</desc>
    <g id="Zeplin-Copy-21" stroke="none" stroke-width="1" fill="none" fill-rule="evenodd">
        <rect id="Rectangle" opacity="0" x="0" y="0" width="50" height="50" rx="6"></rect>
        <g id="Adobe_Photoshop_CC_icon" transform="translate(7.000000, 7.000000)" fill-rule="nonzero">
            <path d="M29.625,36 L6.375,36 C2.85,36 0,33.0769231 0,29.4615385 L0,6.53846154 C0,2.92307692 2.85,0 6.375,0 L29.625,0 C33.15,0 36,2.92307692 36,6.53846154 L36,29.4615385 C36,33.0769231 33.15,36 29.625,36 Z" id="Path" fill="#FF7C00"></path>
            <path d="M29.0674733,34.5 L6.94746479,34.5 C3.94610678,34.5 1.5,31.9864486 1.5,28.8869159 L1.5,7.11308411 C1.5,4.0135514 3.94610678,1.5 6.94746479,1.5 L29.0524665,1.5 C32.0688313,1.5 34.5,4.0135514 34.5,7.09766355 L34.5,28.8869159 C34.5149381,31.9864486 32.0688313,34.5 29.0674733,34.5 Z" id="Path" fill="#261300"></path>
        </g>
        <g id="Adobe_Illustrator_CC_icon" transform="translate(15.500000, 16.500000)" fill="#FF7C00" fill-rule="nonzero">
            <path d="M3.74838243,12.2118036 L2.57187939,16.6795367 C2.54209451,16.7986762 2.49741718,16.8284611 2.34849274,16.8284611 L0.159303551,16.8284611 C0.0103791166,16.8284611 -0.0194057704,16.7837838 0.0103791166,16.6050745 L4.23983306,1.80198566 C4.31429528,1.53392168 4.35897261,1.29564258 4.38875749,0.565912852 C4.38875749,0.461665747 4.43343483,0.416988417 4.50789704,0.416988417 L7.63531017,0.416988417 C7.73955727,0.416988417 7.7842346,0.446773304 7.81401949,0.565912852 L12.5498165,16.6348593 C12.5796014,16.7539989 12.5498165,16.8284611 12.430677,16.8284611 L9.95853135,16.8284611 C9.8393918,16.8284611 9.76492959,16.7986762 9.7351447,16.6944291 L8.49907189,12.2118036 L3.74838243,12.2118036 L3.74838243,12.2118036 Z M7.88848171,9.7992278 C7.47149329,8.14616657 6.48859202,4.54219526 6.11628094,2.79977937 L6.08649605,2.79977937 C5.77375474,4.54219526 4.98445523,7.49089906 4.35897261,9.7992278 L7.88848171,9.7992278 Z M14.5900813,1.51902923 C14.5900813,0.565912852 15.2602412,3.55271368e-15 16.1091105,3.55271368e-15 C17.0175496,3.55271368e-15 17.6281397,0.610590182 17.6281397,1.51902923 C17.6281397,2.5019305 16.9877647,3.03805847 16.0793256,3.03805847 C15.2155639,3.03805847 14.5900813,2.5019305 14.5900813,1.51902923 L14.5900813,1.51902923 Z M14.7687906,4.8996139 C14.7687906,4.78047435 14.8134679,4.72090458 14.9474999,4.72090458 L17.2856135,4.72090458 C17.4047531,4.72090458 17.4643229,4.76558191 17.4643229,4.8996139 L17.4643229,16.6497518 C17.4643229,16.7688913 17.434538,16.8284611 17.2856135,16.8284611 L14.9772848,16.8284611 C14.8283604,16.8284611 14.783683,16.7539989 14.783683,16.6348593 L14.783683,4.8996139 L14.7687906,4.8996139 Z" id="Shape"></path>
        </g>
    </g>
</svg>