<?xml version="1.0" encoding="UTF-8"?>
<svg width="50px" height="50px" viewBox="0 0 50 50" version="1.1" xmlns="http://www.w3.org/2000/svg" xmlns:xlink="http://www.w3.org/1999/xlink">
    <!-- Generator: Sketch 64 (93537) - https://sketch.com -->
    <title>Zeplin Copy 11</title>
    <desc>Created with Sketch.</desc>
    <g id="Zeplin-Copy-11" stroke="none" stroke-width="1" fill="none" fill-rule="evenodd">
        <rect id="Rectangle" opacity="0" x="0" y="0" width="50" height="50" rx="6"></rect>
        <g id="Group-2" transform="translate(9.585450, 7.780986)" fill-rule="nonzero">
            <polygon id="polygon2989" fill="#264DE4" points="30.9956055 0 28.1718262 31.6334895 15.4788329 35.1524043 2.82078861 31.6384456 8.8817842e-15 0"></polygon>
            <polygon id="polygon2991" fill="#2965F1" points="25.7543614 29.6191776 28.1674682 2.58691207 15.4978028 2.58691207 15.4978028 32.4626959"></polygon>
            <polygon id="polygon2993" fill="#EBEBEB" points="6.46659657 14.3211568 6.8143779 18.2014395 15.4978028 18.2014395 15.4978028 14.3211568"></polygon>
            <polygon id="polygon2995" fill="#EBEBEB" points="15.4978028 6.46728017 15.4843871 6.46728017 5.7677868 6.46728017 6.12052423 10.3476483 15.4978028 10.3476483"></polygon>
            <polygon id="polygon2997" fill="#EBEBEB" points="15.4978028 28.435952 15.4978028 24.3987832 15.4807982 24.4033121 11.159252 23.2364074 10.8829923 20.1416663 8.78305952 20.1416663 6.98775587 20.1416663 7.53138851 26.2343338 15.4799437 28.4409081"></polygon>
            <polygon id="polygon3005" fill="#FFFFFF" points="20.2625779 18.2014395 19.8121712 23.2339294 15.4843871 24.4020303 15.4843871 28.4390282 23.4392656 26.2343338 23.497628 25.5787617 24.4094645 15.3631336 24.504143 14.3211568 25.2046618 6.46728017 15.4843871 6.46728017 15.4843871 10.3476483 20.9521591 10.3476483 20.5990799 14.3211568 15.4843871 14.3211568 15.4843871 18.2014395"></polygon>
        </g>
        <g id="Javascript-shield" transform="translate(9.500000, 7.000000)" fill-rule="nonzero">
            <path d="M0.10455993,0.668887369 L0.109459756,1.06087343 C0.112159756,1.27646577 0.73676446,8.41458371 1.49748789,16.9232943 L2.88061699,32.3937282 L9.09711768,34.1342381 C12.5161855,35.0915166 15.3841767,35.8795678 15.4704136,35.8856549 C15.5566505,35.8916645 18.4625145,35.1115322 21.9279246,34.1519997 C27.4839695,32.6135956 28.2340286,32.3818887 28.2738112,32.1914571 C28.3292381,31.9261469 31.0500564,1.23247239 31.0472677,0.904079007 L31.0452742,0.668887369 L15.574841,0.668887369 L0.10455993,0.668887369 Z" id="path118" fill="#FFFFFF"></path>
            <path d="M9.14634172,34.2383613 L2.87456472,32.4852719 L2.79260436,32.0213822 C2.71974904,31.6090301 0,1.23210784 0,0.830743902 C0,0.685480923 1.5879865,0.668989286 15.5749132,0.668989286 C30.3389357,0.668989286 31.1497636,0.678512195 31.1486249,0.851915854 C31.1437003,1.60087186 28.3285474,32.3800275 28.2593658,32.4412902 C28.1719443,32.5187044 16.0328085,35.900608 15.6271782,35.9608287 C15.5121954,35.9775478 12.5958191,35.2025608 9.14634172,34.2383613 Z M19.5296104,28.0439608 C21.6376275,27.4625655 23.392789,26.9569035 23.4299666,26.9202677 C23.4671449,26.8836319 23.7138201,24.3841461 23.9781324,21.3658534 C24.2424455,18.3475607 24.4853796,15.6781356 24.517985,15.4337974 L24.5772706,14.989547 L20.0238264,14.989547 L15.4703838,14.989547 L15.4703838,16.9233444 L15.4703838,18.8571426 L17.9288208,18.8571426 L20.3872578,18.8571426 L20.3383537,19.0923342 C20.3114564,19.2216896 20.2069027,20.3333111 20.1060125,21.5626045 C19.9991093,22.8651664 19.8723669,23.8478911 19.8022343,23.9180245 C19.7360459,23.9842129 18.7343028,24.2909373 17.5761376,24.5996341 L15.4703838,25.1609025 L15.4703838,27.1309735 C15.4703838,28.4756307 15.5063305,29.1010453 15.5836176,29.1010453 C15.6458963,29.1010453 17.4215932,28.6253569 19.5296104,28.0439608 L19.5296104,28.0439608 Z M24.517339,12.5592334 C24.4482429,12.0470347 23.8327526,5.17713005 23.8327526,4.91809547 C23.8327526,4.76075854 23.4708977,4.74564434 19.7038333,4.74564434 L15.5749132,4.74564434 L15.5749132,6.76780009 L15.5749132,8.78995662 L17.4303141,8.86146899 C18.450784,8.90080009 19.5247333,8.96065871 19.8168664,8.99448868 L20.3480169,9.05599834 L20.4769599,10.6377554 C20.547878,11.5077214 20.6323808,12.3959054 20.6647432,12.6114977 L20.7235842,13.0034838 L22.650427,13.0034838 L24.5772706,13.0034838 L24.517339,12.5592334 Z" id="path88" fill="#EAEBEC"></path>
            <path d="M9.09710279,34.1342326 L2.88061699,32.3937282 L1.4974824,16.9233444 C0.736758188,8.41463389 0.112138589,1.27656768 0.109438589,1.06097535 L0.104530923,0.668989286 L15.5749132,0.668989286 L31.0452962,0.668989286 L31.0473053,0.904180923 C31.0500941,1.2325743 28.3292153,31.9262551 28.2737885,32.1915653 C28.2340058,32.3819969 27.4839726,32.613721 21.9279277,34.1521252 C18.4625177,35.1116577 15.5566247,35.8917813 15.4703877,35.8857694 C15.3841508,35.8796822 12.5161746,35.0915111 9.09710749,34.1342326 L9.09710279,34.1342326 Z M19.5343307,28.1178792 C21.6832641,27.5204328 23.4719796,26.9822697 23.5092528,26.9219611 C23.5465244,26.8616524 23.8032431,24.2345046 24.0797368,21.0838547 C24.3562296,17.9332056 24.6050929,15.2730831 24.6327648,15.1724736 C24.680301,14.9996422 24.3146556,14.989547 18.0071208,14.989547 L11.3311646,14.989547 L11.6154055,11.98432 C11.7717382,10.3314457 11.903411,8.97481411 11.9080113,8.96958345 C11.9126132,8.96435436 12.8924216,8.93309974 14.0853661,8.90013136 C16.0414542,8.84607021 20.0752871,9.00211672 20.2102369,9.13706655 C20.2606526,9.18748223 20.5923348,12.4415381 20.5923348,12.8857429 C20.5923348,13.1047699 20.6218897,13.1080139 22.6178216,13.1080139 L24.64331,13.1080139 L24.5955787,12.6637628 C24.5693258,12.4194246 24.3977503,10.5261319 24.2142977,8.45644547 L23.8807474,4.69337927 L16.0692946,4.66658153 C9.85484869,4.6452622 8.25766463,4.66663249 8.25698258,4.77111089 C8.2564338,4.84334216 8.21096263,5.30226455 8.15576472,5.79094024 C8.02219547,6.97344852 7.00348508,18.3989767 7.00348508,18.7145318 L7.00348508,18.961672 L13.6503031,18.961672 L20.2971222,18.961672 L20.2378688,19.353658 C20.2052791,19.5692503 20.1019563,20.6628915 20.0082622,21.7839716 C19.9145681,22.9050517 19.8077425,23.8512591 19.7708707,23.8866562 C19.6734873,23.9801441 15.7632554,25.024754 15.5194228,25.0224209 C15.4062141,25.021339 14.396342,24.7693712 13.2752618,24.4624955 L11.2369343,23.9045402 L11.1621881,23.0271821 C11.1210774,22.5446362 11.0585352,21.855836 11.0232055,21.4965157 L10.9589699,20.8432051 L8.98122779,20.8432051 L7.00348508,20.8432051 L7.00786748,21.2351911 C7.01605215,21.9682537 7.49140816,26.9060362 7.56043769,26.975065 C7.64027193,27.0549008 15.2364841,29.1901868 15.4703885,29.1985585 C15.5566254,29.201625 17.3854019,28.7153255 19.5343361,28.1178792 L19.5343307,28.1178792 Z" id="path80" fill="#F0BE25"></path>
            <path d="M9.09710279,34.1342326 L2.88061699,32.3937282 L1.4974824,16.9233444 C0.736758188,8.41463389 0.112138589,1.27656768 0.109438589,1.06097535 L0.104530923,0.668989286 L15.5749132,0.668989286 L31.0452962,0.668989286 L31.0473053,0.904180923 C31.0500941,1.2325743 28.3292153,31.9262551 28.2737885,32.1915653 C28.2340058,32.3819969 27.4839726,32.613721 21.9279277,34.1521252 C18.4625177,35.1116577 15.5566247,35.8917813 15.4703877,35.8857694 C15.3841508,35.8796822 12.5161746,35.0915111 9.09710749,34.1342326 L9.09710279,34.1342326 Z M20.6900428,31.8057719 C23.4246308,31.0512112 25.7133873,30.3809151 25.7761686,30.3162248 C25.8738711,30.2155495 28.2356545,4.33113868 28.2261798,3.46515679 L28.2229997,3.17770009 L21.8989584,3.17770009 L15.5749163,3.17770009 L15.5749163,3.90940714 L15.5749163,4.64111498 L11.9163763,4.64111498 C9.05969085,4.64111498 8.25765209,4.6697527 8.25698258,4.77177648 C8.2564338,4.84364085 8.21096263,5.30226455 8.15576472,5.79094024 C8.02219547,6.97344852 7.00348508,18.3989767 7.00348508,18.7145318 L7.00348508,18.961672 L11.2891986,18.961672 L15.5749132,18.961672 L15.5749132,21.9930311 C15.5749132,24.349482 15.5458223,25.023952 15.4442509,25.0224209 C15.3723873,25.0213312 14.396342,24.7693712 13.2752618,24.4624955 L11.2369343,23.9045402 L11.1621881,23.0271821 C11.1210774,22.5446362 11.0585352,21.855836 11.0232055,21.4965157 L10.9589699,20.8432051 L8.98122779,20.8432051 L7.00348508,20.8432051 L7.00786748,21.2351911 C7.02038909,22.3563873 7.50541539,26.9330425 7.61916661,27.0033444 C7.68830511,27.046074 9.50663336,27.5685491 11.6598951,28.1643977 L15.5749132,29.2477594 L15.5749132,31.2127291 C15.5749132,32.2934629 15.6071219,33.1777001 15.646489,33.1777001 C15.6858546,33.1777001 17.9554539,32.5603325 20.6900428,31.8057719 Z M11.6043915,12.0124105 C11.7546664,10.3749852 11.8980988,9.01674251 11.9231302,8.99409277 C11.9481609,8.9714446 12.7800525,8.93046324 13.7717773,8.90302578 L15.5749132,8.85313772 L15.5749132,11.921342 L15.5749132,14.989547 L13.4530385,14.989547 L11.3311646,14.989547 L11.6043915,12.0124105 Z" id="path78" fill="#E4A126"></path>
        </g>
    </g>
</svg>