<?xml version="1.0" encoding="UTF-8"?>
<svg width="50px" height="50px" viewBox="0 0 50 50" version="1.1" xmlns="http://www.w3.org/2000/svg" xmlns:xlink="http://www.w3.org/1999/xlink">
    <!-- Generator: Sketch 64 (93537) - https://sketch.com -->
    <title>Zeplin Copy 23</title>
    <desc>Created with Sketch.</desc>
    <g id="Zeplin-Copy-23" stroke="none" stroke-width="1" fill="none" fill-rule="evenodd">
        <rect id="Rectangle" opacity="0" x="0" y="0" width="50" height="50" rx="6"></rect>
        <path d="M40.6875795,29.807921 L40.1050177,28.1603381 C40.1050177,28.1603381 42.5323588,24.4775058 36.5125528,23.2175895 C36.5125528,23.2175895 36.9009274,18.6625074 34.7648672,16.5303414 C39.4253622,11.9752593 38.3573321,5.09417794 27.7741248,9.55234335 C22.3368807,-0.817737051 1.36465348,23.5083394 10.1030815,27.385005 C9.22923869,28.5480046 9.22923869,34.363003 15.2490447,34.9445028 C19.3269777,43.6670004 29.2305295,44.2485002 34.9590545,41.631751 C40.6875795,39.0150017 43.9887634,30.6801707 40.6875795,29.807921 Z M15.151951,33.6845865 C10.2001751,33.2000033 9.71470691,26.4158386 13.9868273,25.7374221 C18.2589476,25.0590056 19.3269777,34.0722531 15.151951,33.6845865 Z M13.6955463,24.4775058 C12.3362353,24.4775058 10.6856434,26.3189219 10.6856434,26.3189219 C4.08327552,23.1206728 22.6281616,1.89592885 26.6090011,10.1338432 C26.6090011,10.1338432 16.8996366,14.7858419 13.6955463,24.4775058 Z M33.1142753,32.7154201 C33.1142753,32.3277536 31.0753087,33.29692 27.3857502,32.0370037 C27.6770312,30.0017542 32.0462452,33.7815032 39.3282685,28.8387546 L39.9108304,30.874004 C42.6294524,30.3894208 39.9108304,39.5965015 31.1724024,39.4995849 C24.0845663,39.4026682 21.8514125,32.1339203 25.7351583,28.1603381 C26.5119074,27.385005 22.9194426,25.8343387 23.5990981,22.4422564 C23.890379,20.9885068 25.1525964,18.8563407 28.3566867,19.4378406 C31.5607769,20.0193404 32.2404325,17.1118412 34.3764926,18.1779242 C36.5125528,19.2440073 35.2503354,23.3145061 35.5416164,23.896006 C35.8328973,24.4775058 38.9398939,24.5744224 39.5224558,26.2220053 C40.1050177,27.8695882 35.5416164,31.4555038 28.4537803,30.4863374 C26.8031884,30.2925042 25.8322519,32.4246702 26.900282,33.7815032 C29.0363422,36.8828356 37.7747702,34.8475862 39.2311749,31.8431704 C35.5416164,34.6537529 27.9683121,35.719836 27.3857502,32.7154201 C29.5218104,33.6845865 33.1142753,33.1030867 33.1142753,32.7154201 Z M20.3950078,17.4025911 C22.531068,14.7858419 25.3467837,13.2351756 25.3467837,13.2351756 L24.7642218,14.6889252 C24.7642218,14.6889252 26.8031884,13.138259 29.0363422,13.138259 L28.259593,13.9135921 C30.7840278,14.0105088 31.8520579,14.9796752 31.8520579,14.9796752 C31.8520579,14.9796752 25.9293456,13.2351756 20.3950078,17.4025911 Z M33.5026498,21.1823401 C34.7648672,21.0854234 34.3764926,23.9929226 34.3764926,23.9929226 L33.5997435,23.9929226 C33.5997435,23.9929226 32.2404325,21.2792567 33.5026498,21.1823401 Z M27.7741248,24.3805892 C26.900282,24.4775058 25.9293456,24.962089 26.0264392,24.5744224 C26.4148138,23.0237562 30.0072786,23.4114228 29.910185,24.7682557 C29.8130913,26.1250887 29.0363422,24.1867559 27.7741248,24.3805892 Z M29.8130913,25.5435888 C29.910185,25.7374221 29.1334358,25.5435888 28.550874,25.6405055 C27.9683121,25.7374221 27.3857502,26.028172 27.3857502,25.8343387 C27.3857502,25.6405055 29.618904,24.7682557 29.8130913,25.5435888 Z M31.7549642,25.8343387 C32.0462452,25.2528389 33.2113689,25.8343387 32.920088,26.4158386 C32.628807,26.9973384 31.4636833,26.4158386 31.7549642,25.8343387 Z M34.1823053,26.028172 C33.5997435,26.028172 33.5997435,24.7682557 34.1823053,24.7682557 C34.7648672,24.7682557 34.7648672,26.1250887 34.1823053,26.1250887 L34.1823053,26.028172 Z M16.7054493,31.1647539 C16.9967303,31.4555038 16.1228875,32.0370037 15.4432319,31.5524205 C14.7635764,31.0678373 16.2199811,28.7418379 14.4722955,28.1603381 C12.7246099,27.5788383 13.2100781,29.807921 12.7246099,29.517171 C12.2391417,29.2264211 13.4042654,26.1250887 15.4432319,27.385005 C17.4821985,28.6449213 14.8606701,30.5832541 16.0257938,31.1647539 C17.1909175,31.7462537 16.511262,30.9709206 16.7054493,31.1647539 Z" id="Shape" fill="#1E1E1E" fill-rule="nonzero"></path>
    </g>
</svg>