<?xml version="1.0" encoding="UTF-8"?>
<svg width="50px" height="50px" viewBox="0 0 50 50" version="1.1" xmlns="http://www.w3.org/2000/svg" xmlns:xlink="http://www.w3.org/1999/xlink">
    <!-- Generator: Sketch 64 (93537) - https://sketch.com -->
    <title>Zeplin Copy 23</title>
    <desc>Created with Sketch.</desc>
    <g id="Zeplin-Copy-23" stroke="none" stroke-width="1" fill="none" fill-rule="evenodd">
        <rect id="Rectangle" opacity="0" x="0" y="0" width="50" height="50" rx="6"></rect>
        <g id="iconfinder_mailchimp_4691307" transform="translate(8.000000, 7.000000)" fill="#000000" fill-rule="nonzero">
            <path d="M25.47,17.0115 C25.7175,16.98 25.968,16.98 26.2155,17.0115 C26.349,16.704 26.3715,16.1745 26.2515,15.5985 C26.0715,14.742 25.8315,14.223 25.332,14.304 C24.8325,14.385 24.813,15.006 24.993,15.8625 C25.0935,16.344 25.272,16.7565 25.4715,17.0115 L25.47,17.0115 Z M21.18,17.6895 C21.5385,17.847 21.7575,17.9505 21.843,17.8605 C21.8985,17.8035 21.882,17.6955 21.798,17.556 C21.621,17.2665 21.258,16.974 20.8725,16.8105 C20.0602773,16.4733231 19.1309392,16.5847981 18.4215,17.1045 C18.1815,17.28 17.9565,17.5245 17.9865,17.6715 C17.9985,17.7195 18.033,17.7555 18.117,17.7675 C18.315,17.79 19.0035,17.442 19.797,17.3925 C20.358,17.358 20.823,17.5335 21.18,17.691 L21.18,17.6895 Z M20.46,18.1005 C19.995,18.1755 19.7385,18.3285 19.5735,18.471 C19.4325,18.594 19.3455,18.7305 19.3455,18.8265 L19.3815,18.912 L19.458,18.942 C19.563,18.942 19.8,18.846 19.8,18.846 C20.2781712,18.6654748 20.7949145,18.6117335 21.3,18.69 C21.5325,18.717 21.645,18.732 21.6945,18.651 C21.7095,18.6285 21.729,18.5775 21.6825,18.501 C21.573,18.324 21.102,18.0255 20.4615,18.102 L20.46,18.1005 Z M24.0225,19.6095 C24.3375,19.7655 24.6855,19.704 24.7995,19.4745 C24.9135,19.242 24.7485,18.9285 24.432,18.774 C24.117,18.618 23.769,18.6795 23.655,18.909 C23.541,19.1415 23.706,19.455 24.0225,19.6095 Z M26.055,17.8305 C25.7985,17.826 25.584,18.108 25.5795,18.462 C25.5735,18.8145 25.776,19.104 26.0325,19.1085 C26.289,19.113 26.5035,18.831 26.5095,18.4785 C26.514,18.126 26.3115,17.8365 26.055,17.8305 L26.055,17.8305 Z M8.799,24.195 C8.736,24.1155 8.631,24.1395 8.529,24.1635 C8.45069545,24.1844964 8.37006547,24.195583 8.289,24.1965 C8.11507448,24.2003469 7.95072588,24.1170469 7.851,23.9745 C7.734,23.7945 7.7415,23.526 7.869,23.2185 L7.929,23.0805 C8.136,22.6185 8.481,21.843 8.094,21.105 C7.803,20.55 7.3275,20.202 6.756,20.13 C6.20743222,20.0597472 5.65859876,20.2579526 5.2815,20.6625 C4.713,21.2895 4.6245,22.1445 4.7355,22.4475 C4.776,22.557 4.839,22.5885 4.884,22.5945 C4.9815,22.608 5.124,22.5375 5.214,22.2945 L5.2395,22.2165 C5.2785,22.089 5.3535,21.852 5.475,21.6615 C5.62463359,21.4319772 5.85939805,21.2713792 6.12754737,21.2151045 C6.39569669,21.1588297 6.67521795,21.2114978 6.9045,21.3615 C7.3035,21.624 7.4565,22.1115 7.287,22.578 C7.1985,22.8195 7.056,23.28 7.0875,23.658 C7.152,24.426 7.623,24.7335 8.0445,24.768 C8.4555,24.783 8.7435,24.5505 8.8155,24.381 C8.8605,24.282 8.823,24.2205 8.8005,24.1935 L8.8005,24.195 L8.799,24.195 Z M32.5365,22.791 C32.5215,22.7355 32.4195,22.362 32.2785,21.912 L31.9935,21.147 C32.556,20.3025 32.565,19.548 32.4915,19.122 C32.4105,18.5925 32.1915,18.141 31.7475,17.676 C31.305,17.208 30.3975,16.731 29.1225,16.374 L28.455,16.188 C28.452,16.161 28.4205,14.6085 28.3905,13.9425 C28.371,13.4625 28.329,12.7095 28.0965,11.97 C27.819,10.9665 27.336,10.0905 26.7315,9.5295 C28.3965,7.8015 29.436,5.8965 29.433,4.263 C29.4285,1.1205 25.5765,0.168 20.829,2.139 L19.824,2.5665 C19.2097809,1.96220471 18.5947804,1.3587042 17.979,0.756 C12.564,-3.975 -4.3575,14.868 1.0515,19.446 L2.235,20.448 C1.91520556,21.3061177 1.80214956,22.2275241 1.905,23.1375 C2.0325,24.3975 2.6805,25.6035 3.732,26.5365 C4.7295,27.4215 6.042,27.984 7.3155,27.9825 C9.42,32.8425 14.2305,35.8245 19.8705,35.9925 C25.9215,36.1725 31.0005,33.3285 33.1305,28.2195 C33.27,27.8595 33.8595,26.244 33.8595,24.819 C33.8595,23.385 33.051,22.791 32.5365,22.791 Z M7.782,26.616 C7.59674642,26.6475829 7.40886905,26.6611462 7.221,26.6565 C5.394,26.607 3.42,24.96 3.2235,23.004 C3.006,20.844 4.1085,19.182 6.0585,18.789 C6.32846859,18.7351623 6.60407133,18.7150086 6.879,18.729 C7.9725,18.789 9.5835,19.629 9.951,22.0155 C10.2765,24.1275 9.759,26.28 7.782,26.6175 L7.782,26.616 Z M5.742,17.496 C4.527,17.7315 3.456,18.4215 2.802,19.374 C2.4105,19.047 1.6815,18.414 1.5525,18.168 C0.507,16.1805 2.6925,12.315 4.2195,10.1325 C7.995,4.7385 13.902,0.6555 16.6395,1.3965 C17.0835,1.5225 18.5565,3.2325 18.5565,3.2325 C18.5565,3.2325 15.822,4.752 13.2855,6.8715 C9.8685,9.507 7.287,13.338 5.7405,17.496 L5.742,17.496 Z M24.9225,25.809 C24.9637709,25.790241 24.9889336,25.747704 24.9855,25.7025 C24.9828563,25.6757861 24.9696352,25.6512401 24.9487836,25.6343335 C24.9279321,25.6174269 24.9011834,25.6095649 24.8745,25.6125 C24.8745,25.6125 22.0125,26.037 19.308,25.044 C19.602,24.0855 20.385,24.432 21.57,24.528 C23.410229,24.6371127 25.2557404,24.4373513 27.03,23.937 C28.254,23.5845 29.862,22.89 31.113,21.903 C31.533,22.83 31.683,23.85 31.683,23.85 C31.683,23.85 32.0085,23.7915 32.2815,23.9595 C32.538,24.1185 32.727,24.4485 32.598,25.302 C32.3355,26.8965 31.659,28.191 30.522,29.382 C29.811831,30.1515597 28.9662892,30.7840636 28.0275,31.248 C27.5053048,31.5232229 26.9608858,31.7540365 26.4,31.938 C22.113,33.3405 17.724,31.7985 16.3095,28.488 C16.1943745,28.234771 16.0990881,27.972984 16.0245,27.705 C15.423,25.5225 15.9345,22.905 17.535,21.2565 C17.6325,21.1515 17.733,21.027 17.733,20.8725 C17.733,20.742 17.6505,20.6055 17.58,20.508 C17.0205,19.695 15.081,18.309 15.471,15.627 C15.75,13.6995 17.433,12.3435 19.0005,12.4245 L19.398,12.447 C20.0775,12.4875 20.67,12.5745 21.231,12.5985 C22.167,12.639 23.0085,12.5025 24.006,11.67 C24.342,11.3895 24.612,11.145 25.068,11.0685 C25.116,11.061 25.2345,11.0175 25.473,11.0295 C25.7166977,11.0388 25.9532191,11.1145284 26.157,11.2485 C26.9565,11.781 27.069,13.071 27.111,14.016 C27.135,14.556 27.1995,15.858 27.222,16.233 C27.273,17.088 27.4965,17.208 27.951,17.358 C28.206,17.4435 28.4445,17.5065 28.794,17.604 C29.8515,17.9025 30.4785,18.204 30.8745,18.5925 C31.1115,18.834 31.2195,19.092 31.254,19.338 C31.38,20.25 30.549,21.3765 28.347,22.3995 C25.9395,23.5185 23.022,23.802 21.0045,23.577 L20.298,23.4975 C18.684,23.28 17.7645,25.368 18.732,26.799 C19.356,27.7215 21.057,28.3215 22.7565,28.3215 C26.6565,28.3215 29.6535,26.655 30.768,25.2135 L30.858,25.086 C30.912,25.0035 30.867,24.9585 30.798,25.005 C29.8875,25.629 25.842,28.1085 21.513,27.3615 C21.513,27.3615 20.988,27.276 20.508,27.0885 C20.127,26.94 19.329,26.5725 19.233,25.752 C22.725,26.8335 24.9225,25.8105 24.9225,25.8105 L24.9225,25.809 Z M12.7095,10.11 C14.052,8.556 15.7035,7.206 17.1825,6.4485 C17.2335,6.423 17.2875,6.4785 17.2605,6.528 C17.142,6.741 16.9155,7.1985 16.845,7.5435 C16.8397941,7.56731333 16.8495126,7.59190948 16.8695896,7.605733 C16.8896666,7.61955651 16.9161114,7.61985966 16.9365,7.6065 C17.8575,6.978 19.458,6.3045 20.8635,6.219 C20.9235,6.2145 20.9535,6.2925 20.904,6.33 C20.673,6.5085 20.4645,6.717 20.2875,6.9495 C20.2740153,6.96746521 20.2716951,6.99145785 20.2814873,7.01167412 C20.2912796,7.03189038 20.3115439,7.0449436 20.334,7.0455 C21.3195,7.053 22.71,7.398 23.616,7.908 C23.676,7.9425 23.634,8.061 23.565,8.046 C22.194,7.731 19.95,7.491 17.619,8.061 C15.5385,8.5695 13.95,9.354 12.792,10.1985 C12.732,10.242 12.663,10.164 12.7095,10.1085 L12.7095,10.11 Z" id="Shape"></path>
        </g>
    </g>
</svg>