<?xml version="1.0" encoding="UTF-8"?>
<svg width="50px" height="50px" viewBox="0 0 50 50" version="1.1" xmlns="http://www.w3.org/2000/svg" xmlns:xlink="http://www.w3.org/1999/xlink">
    <title>Zeplin Copy 23</title>
    <g id="Zeplin-Copy-23" stroke="none" stroke-width="1" fill="none" fill-rule="evenodd">
        <rect id="Rectangle" opacity="0" x="0" y="0" width="50" height="50" rx="6"></rect>
        <g id="mailchimp_icon_130881" transform="translate(7.000000, 7.000000)" fill="#FFE01B" fill-rule="nonzero">
            <rect id="Rectangle" x="0" y="0" width="35.5263158" height="35.5263158" rx="10.6578947"></rect>
        </g>
        <path d="M36.9963843,28.6059407 L36.5508959,27.3702536 C36.5508959,27.3702536 38.4070979,24.6081293 33.8037169,23.6631921 C33.8037169,23.6631921 34.1007092,20.2468806 32.4672514,18.647756 C36.0311593,15.2314445 35.2144304,10.0706335 27.1213896,13.4142575 C22.963497,5.63669721 6.92591148,23.8812546 13.6082388,26.7887537 C12.9400061,27.6610035 12.9400061,32.0222523 17.5433871,32.4583771 C20.6618065,39.0002503 28.2351108,39.4363752 32.6157476,37.4738132 C36.9963843,35.5112513 39.5208191,29.260128 36.9963843,28.6059407 Z M17.469139,31.5134399 C13.6824869,31.1500025 13.3112465,26.0618789 16.578162,25.5530666 C19.8450776,25.0442542 20.6618065,31.8041898 17.469139,31.5134399 Z M16.3554178,24.6081293 C15.3159447,24.6081293 14.0537273,25.9891915 14.0537273,25.9891915 C9.00485775,23.5905046 23.1862413,7.67194664 26.2304126,13.8503824 C26.2304126,13.8503824 18.8056045,17.3393814 16.3554178,24.6081293 Z M31.205034,30.7865651 C31.205034,30.4958152 29.6458243,31.22269 26.8243972,30.2777527 C27.0471415,28.7513157 30.3883051,31.5861274 35.9569112,27.8790659 L36.4023997,29.405503 C38.481346,29.0420656 36.4023997,35.9473761 29.7200724,35.8746887 C24.2999625,35.8020012 22.5922566,30.3504402 25.5621798,27.3702536 C26.1561645,26.7887537 23.4089855,25.6257541 23.9287221,23.0816923 C24.1514663,21.9913801 25.1166914,20.3922555 27.566878,20.8283804 C30.0170647,21.2645053 30.5368013,19.0838809 32.1702591,19.8834432 C33.8037169,20.6830055 32.8384918,23.7358796 33.061236,24.1720045 C33.2839803,24.6081293 35.6599189,24.6808168 36.1054074,25.916504 C36.5508959,27.1521911 33.061236,29.8416279 27.6411261,29.1147531 C26.3789087,28.9693781 25.6364279,30.5685027 26.4531568,31.5861274 C28.0866146,33.9121267 34.7689419,32.3856897 35.8826631,30.1323778 C33.061236,32.2403147 27.2698857,33.039877 26.8243972,30.7865651 C28.457855,31.5134399 31.205034,31.077315 31.205034,30.7865651 Z M21.4785354,19.3019433 C23.1119932,17.3393814 25.2651875,16.1763817 25.2651875,16.1763817 L24.819699,17.2666939 C24.819699,17.2666939 26.3789087,16.1036943 28.0866146,16.1036943 L27.49263,16.6851941 C29.4230801,16.7578816 30.239809,17.4847564 30.239809,17.4847564 C30.239809,17.4847564 25.710676,16.1763817 21.4785354,19.3019433 Z M31.5020263,22.136755 C32.4672514,22.0640676 32.1702591,24.244692 32.1702591,24.244692 L31.5762744,24.244692 C31.5762744,24.244692 30.5368013,22.2094425 31.5020263,22.136755 Z M27.1213896,24.5354419 C26.4531568,24.6081293 25.710676,24.9715667 25.7849241,24.6808168 C26.0819164,23.5178172 28.8290954,23.8085671 28.7548473,24.8261918 C28.6805993,25.8438165 28.0866146,24.3900669 27.1213896,24.5354419 Z M28.6805993,25.4076916 C28.7548473,25.5530666 28.1608627,25.4076916 27.7153742,25.4803791 C27.2698857,25.5530666 26.8243972,25.771129 26.8243972,25.6257541 C26.8243972,25.4803791 28.5321031,24.8261918 28.6805993,25.4076916 Z M30.1655609,25.6257541 C30.3883051,25.1896292 31.2792821,25.6257541 31.0565379,26.0618789 C30.8337936,26.4980038 29.9428166,26.0618789 30.1655609,25.6257541 Z M32.0217629,25.771129 C31.5762744,25.771129 31.5762744,24.8261918 32.0217629,24.8261918 C32.4672514,24.8261918 32.4672514,25.8438165 32.0217629,25.8438165 L32.0217629,25.771129 Z M18.6571083,29.6235654 C18.8798525,29.8416279 18.2116198,30.2777527 17.6918832,29.9143154 C17.1721467,29.550878 18.2858679,27.8063784 16.9494024,27.3702536 C15.612937,26.9341287 15.9841774,28.6059407 15.612937,28.3878783 C15.2416966,28.1698158 16.1326735,25.8438165 17.6918832,26.7887537 C19.251093,27.733691 17.2463948,29.1874406 18.1373717,29.6235654 C19.0283487,30.0596903 18.5086121,29.4781905 18.6571083,29.6235654 Z" id="Shape" fill="#000000" fill-rule="nonzero"></path>
    </g>
</svg>