<?xml version="1.0" encoding="UTF-8"?>
<svg width="50px" height="50px" viewBox="0 0 50 50" version="1.1" xmlns="http://www.w3.org/2000/svg" xmlns:xlink="http://www.w3.org/1999/xlink">
    <!-- Generator: Sketch 64 (93537) - https://sketch.com -->
    <title>Zeplin Copy 24</title>
    <desc>Created with Sketch.</desc>
    <g id="Zeplin-Copy-24" stroke="none" stroke-width="1" fill="none" fill-rule="evenodd">
        <rect id="Rectangle" opacity="0" x="0" y="0" width="50" height="50" rx="6"></rect>
        <g id="19537650081540553618-(1)" transform="translate(7.000000, 7.000000)" fill="#4264FB" fill-rule="nonzero">
            <path d="M18,0 C8.05849269,0 0,8.05849269 0,18 C0,27.9415073 8.05849269,36 18,36 C27.9415073,36 36,27.9415073 36,18 C36,8.05849269 27.9415073,0 18,0 Z M26.544432,22.4139482 C20.3892013,28.5691788 9.39482564,26.6051744 9.39482564,26.6051744 C9.39482564,26.6051744 7.41057367,15.6310462 13.5860517,9.45556806 C17.007874,6.03374579 22.6771654,6.17547807 26.2609674,9.73903262 C29.8447694,13.3025872 29.9662542,18.992126 26.544432,22.4139482 L26.544432,22.4139482 Z M20.0652418,10.5489314 L18.303712,14.1732284 L14.6794151,15.9347582 L18.303712,17.696288 L20.0652418,21.3205849 L21.8267716,17.696288 L25.4510686,15.9347582 L21.8267716,14.1732284 L20.0652418,10.5489314 Z" id="Shape"></path>
        </g>
    </g>
</svg>