<?xml version="1.0" encoding="UTF-8"?>
<svg width="50px" height="50px" viewBox="0 0 50 50" version="1.1" xmlns="http://www.w3.org/2000/svg" xmlns:xlink="http://www.w3.org/1999/xlink">
    <!-- Generator: Sketch 64 (93537) - https://sketch.com -->
    <title>Zeplin Copy 19</title>
    <desc>Created with Sketch.</desc>
    <defs>
        <linearGradient x1="-9.38508662%" y1="24.2054684%" x2="108.876928%" y2="79.3429899%" id="linearGradient-1">
            <stop stop-color="#FFFFFF" stop-opacity="0.2" offset="0%"></stop>
            <stop stop-color="#FFFFFF" stop-opacity="0" offset="100%"></stop>
        </linearGradient>
    </defs>
    <g id="Zeplin-Copy-19" stroke="none" stroke-width="1" fill="none" fill-rule="evenodd">
        <rect id="Rectangle" opacity="0" x="0" y="0" width="50" height="50" rx="6"></rect>
        <g id="mysql" transform="translate(7.000000, 7.000000)" fill-rule="nonzero">
            <g id="Group" fill="#546E7A">
                <path d="M35.8623281,34.8165 C35.2456172,33.9470859 34.2466172,33.2256797 33.1889766,32.4617344 C32.0500547,31.6406953 30.8804062,30.7961719 30.2944219,29.81475 C32.5173516,29.3504063 35.3298516,28.5088359 35.4653437,28.4685469 C35.7070781,28.3960547 35.8967109,28.2063516 35.9685,27.9646172 C36.0409922,27.7228828 35.9867812,27.4606875 35.8242187,27.2673281 C35.6791641,27.0952031 32.2741406,23.0998359 26.7780937,21.139875 C26.5356562,20.6542969 26.265375,20.03175 25.9512187,19.31175 C23.7377812,14.2332891 19.1425781,3.69372656 7.01880469,2.27573437 C6.05271094,1.62316406 3.52075781,0.000140625 2.25,0.000140625 C0.673101562,0.000140625 0,0.673242188 0,2.25014062 C0,3.01774219 0.624726562,3.91492969 1.64355469,5.31604688 C2.14157812,6.00089063 2.97513281,7.147125 3.00002344,7.50016406 C3.00002344,8.72767969 4.42385156,12.7018125 5.85576563,14.4017578 C5.81477344,14.4889453 5.77371094,14.5745859 5.73342188,14.6595938 C5.09913281,15.9962344 4.5,17.2589062 4.5,20.2501406 C4.5,24.1891172 6.38669531,26.2501172 8.24997656,26.2501172 C9.40647656,26.2501172 9.982125,24.9375938 10.2590156,23.4009844 C11.2866328,25.4861719 12.9653437,28.2027656 15.3171562,29.863125 C15.6562734,30.1004297 16.1242734,30.0198516 16.3630547,29.6829141 C16.6018359,29.3437969 16.5212578,28.8765 16.1828437,28.6370156 C12.4533281,26.0046563 10.4823984,20.0771719 10.4626406,20.017125 C10.3483828,19.6670391 9.98950781,19.4501953 9.63203906,19.5095391 C9.26803125,19.5674063 8.99992969,19.8816328 8.99992969,20.25 C8.99992969,22.3095938 8.607375,24.5039063 8.24990625,24.75 C7.16814844,24.75 5.99990625,23.0295234 5.99990625,20.25 C5.99990625,17.5964063 6.48035156,16.5842578 7.08827344,15.3024609 C7.20182813,15.0629766 7.31896875,14.8168828 7.43547656,14.5546875 C7.56949219,14.2522031 7.49039063,13.8976875 7.2399375,13.6816172 C6.08421094,12.6864141 4.5,8.49621094 4.5,7.50009375 C4.5,6.73249219 3.87527344,5.83530469 2.85644531,4.4341875 C2.35842187,3.74934375 1.52486719,2.60310937 1.49997656,2.25007031 C1.49997656,1.50004688 1.49997656,1.50004688 2.25,1.50004688 C2.85792187,1.50004688 4.83911719,2.59938281 6.32594531,3.61891406 C6.42775781,3.68852344 6.54567187,3.73246875 6.66942187,3.74561719 C18.0681328,4.98192188 22.3022109,14.6938359 24.5763984,19.9116563 C24.9594609,20.7905625 25.2904922,21.5500781 25.5893203,22.1052656 C25.6793906,22.2729609 25.8295781,22.3997344 26.0090156,22.4604844 C29.7524531,23.7290625 32.5437187,26.0998594 33.8518125,27.3728672 C32.5744453,27.7310391 30.5346797,28.2759609 29.1269531,28.5103125 C28.920375,28.5447656 28.7372812,28.6641562 28.6230234,28.8391641 C28.5080625,29.0142422 28.4714297,29.2288359 28.5226875,29.4316875 C28.983375,31.2773906 30.7514531,32.5532813 32.3107734,33.6782813 C33.265125,34.3667813 34.1659687,35.0171719 34.6376953,35.6836641 C34.7841562,35.8902422 35.015625,36.0000703 35.25075,36.0000703 C35.4008672,36.0000703 35.5517578,35.9554219 35.6835937,35.8623984 C36.0212344,35.6229141 36.1018125,35.1549141 35.8623281,34.8165 Z" id="Path"></path>
                <path d="M6.75,6.00011719 C6.75,6.41467969 7.08546094,6.75014062 7.50002344,6.75014062 C7.9138125,6.75014062 8.25004688,7.08630469 8.25004688,7.50016406 C8.25004688,7.91472656 8.58550781,8.2501875 9.00007031,8.2501875 C9.41463281,8.2501875 9.75009375,7.91472656 9.75009375,7.50016406 C9.75009375,6.25942969 8.74082813,5.25016405 7.50009375,5.25016405 C7.08546094,5.25009375 6.75,5.58555469 6.75,6.00011719 Z" id="Path"></path>
            </g>
            <path d="M35.8623281,34.8165 C35.2456172,33.9470859 34.2466172,33.2256797 33.1889766,32.4617344 C32.0500547,31.6406953 30.8804062,30.7961719 30.2944219,29.81475 C32.5173516,29.3504063 35.3298516,28.5088359 35.4653437,28.4685469 C35.7070781,28.3960547 35.8967109,28.2063516 35.9685,27.9646172 C36.0409922,27.7228828 35.9867812,27.4606875 35.8242187,27.2673281 C35.6791641,27.0952031 32.2741406,23.0998359 26.7780937,21.139875 C26.5356562,20.6542969 26.265375,20.03175 25.9512187,19.31175 C23.7377812,14.2332891 19.1425781,3.69372656 7.01880469,2.27573437 C6.05271094,1.62316406 3.52075781,0.000140625 2.25,0.000140625 C0.673101562,0.000140625 0,0.673242187 0,2.25014062 C0,3.01774219 0.624726562,3.91492969 1.64355469,5.31604687 C2.14157812,6.00089062 2.97513281,7.147125 3.00002344,7.50016406 C3.00002344,8.72767969 4.42385156,12.7018125 5.85576563,14.4017578 C5.81477344,14.4889453 5.77371094,14.5745859 5.73342188,14.6595937 C5.09913281,15.9962344 4.5,17.2589062 4.5,20.2501406 C4.5,24.1891172 6.38669531,26.2501172 8.24997656,26.2501172 C9.40647656,26.2501172 9.982125,24.9375938 10.2590156,23.4009844 C11.2866328,25.4861719 12.9653437,28.2027656 15.3171562,29.863125 C15.6562734,30.1004297 16.1242734,30.0198516 16.3630547,29.6829141 C16.6018359,29.3437969 16.5212578,28.8765 16.1828437,28.6370156 C12.4533281,26.0046563 10.4823984,20.0771719 10.4626406,20.017125 C10.3483828,19.6670391 9.98950781,19.4501953 9.63203906,19.5095391 C9.26803125,19.5674063 8.99992969,19.8816328 8.99992969,20.25 C8.99992969,22.3095938 8.607375,24.5039063 8.24990625,24.75 C7.16814844,24.75 5.99990625,23.0295234 5.99990625,20.25 C5.99990625,17.5964063 6.48035156,16.5842578 7.08827344,15.3024609 C7.20182813,15.0629766 7.31896875,14.8168828 7.43547656,14.5546875 C7.56949219,14.2522031 7.49039063,13.8976875 7.2399375,13.6816172 C6.08421094,12.6864141 4.5,8.49621094 4.5,7.50009375 C4.5,6.73249219 3.87527344,5.83530469 2.85644531,4.4341875 C2.35842187,3.74934375 1.52486719,2.60310937 1.49997656,2.25007031 C1.49997656,1.50004687 1.49997656,1.50004687 2.25,1.50004687 C2.85792187,1.50004687 4.83911719,2.59938281 6.32594531,3.61891406 C6.42775781,3.68852344 6.54567187,3.73246875 6.66942187,3.74561719 C18.0681328,4.98192188 22.3022109,14.6938359 24.5763984,19.9116563 C24.9594609,20.7905625 25.2904922,21.5500781 25.5893203,22.1052656 C25.6793906,22.2729609 25.8295781,22.3997344 26.0090156,22.4604844 C29.7524531,23.7290625 32.5437187,26.0998594 33.8518125,27.3728672 C32.5744453,27.7310391 30.5346797,28.2759609 29.1269531,28.5103125 C28.920375,28.5447656 28.7372812,28.6641562 28.6230234,28.8391641 C28.5080625,29.0142422 28.4714297,29.2288359 28.5226875,29.4316875 C28.983375,31.2773906 30.7514531,32.5532813 32.3107734,33.6782813 C33.265125,34.3667813 34.1659687,35.0171719 34.6376953,35.6836641 C34.7841562,35.8902422 35.015625,36.0000703 35.25075,36.0000703 C35.4008672,36.0000703 35.5517578,35.9554219 35.6835937,35.8623984 C36.0212344,35.6229141 36.1018125,35.1549141 35.8623281,34.8165 Z M6.75,6.00011719 C6.75,6.41467969 7.08546094,6.75014062 7.50002344,6.75014062 C7.9138125,6.75014062 8.25004688,7.08630469 8.25004688,7.50016406 C8.25004688,7.91472656 8.58550781,8.2501875 9.00007031,8.2501875 C9.41463281,8.2501875 9.75009375,7.91472656 9.75009375,7.50016406 C9.75009375,6.25942969 8.74082813,5.25016405 7.50009375,5.25016405 C7.08546094,5.25009375 6.75,5.58555469 6.75,6.00011719 Z" id="Shape" fill="url(#linearGradient-1)"></path>
        </g>
    </g>
</svg>