<?xml version="1.0" encoding="UTF-8"?>
<svg width="50px" height="50px" viewBox="0 0 50 50" version="1.1" xmlns="http://www.w3.org/2000/svg" xmlns:xlink="http://www.w3.org/1999/xlink">
    <!-- Generator: Sketch 64 (93537) - https://sketch.com -->
    <title>Zeplin Copy 29</title>
    <desc>Created with Sketch.</desc>
    <defs>
        <radialGradient cx="50%" cy="-50%" fx="50%" fy="-50%" r="100%" id="radialGradient-1">
            <stop stop-color="#20C6B7" offset="0%"></stop>
            <stop stop-color="#4D9ABF" offset="100%"></stop>
        </radialGradient>
    </defs>
    <g id="Zeplin-Copy-29" stroke="none" stroke-width="1" fill="none" fill-rule="evenodd">
        <rect id="Rectangle" opacity="0" x="0" y="0" width="50" height="50" rx="6"></rect>
        <g id="netlify" transform="translate(7.000000, 7.000000)" fill="url(#radialGradient-1)" fill-rule="nonzero">
            <path d="M26.0904375,12.4929844 L26.0772188,12.4873594 C26.0691699,12.4849662 26.0617665,12.4807837 26.0555625,12.475125 C26.0337147,12.4516768 26.0239983,12.4194102 26.0292656,12.3877969 L26.755875,7.95065625 L30.1630781,11.3550469 L26.6196094,12.861 C26.6097853,12.8649545 26.5992592,12.8668684 26.5886719,12.8666456 L26.5744688,12.8666456 C26.5675329,12.8621023 26.5612007,12.8567152 26.555625,12.8505938 C26.4237349,12.7039474 26.2660632,12.5827384 26.0904375,12.4929844 L26.0904375,12.4929844 Z M31.0325625,12.2225625 L34.6755938,15.8616562 C35.4321562,16.6183594 35.8111406,16.9957969 35.9492344,17.4334219 C35.9699063,17.4981094 35.9867812,17.5629375 36,17.6295937 L27.2934844,13.9463438 C27.2888178,13.944417 27.28413,13.9425418 27.2794219,13.9407188 C27.2445469,13.9266563 27.2041875,13.910625 27.2041875,13.8750469 C27.2041875,13.8393281 27.2455313,13.8224531 27.2802656,13.8083906 L27.2915156,13.8036094 L31.0325625,12.2225625 L31.0325625,12.2225625 Z M35.8515,18.797625 C35.6634844,19.1505937 35.296875,19.5167813 34.6765781,20.1373594 L30.5690625,24.2393906 L25.2566719,23.1343594 L25.2285469,23.1287344 C25.1814375,23.1211406 25.1316563,23.1127031 25.1316563,23.0705156 C25.0907957,22.6278886 24.8677865,22.2221626 24.516,21.9504375 C24.4943438,21.9287813 24.5001094,21.8950312 24.5065781,21.8639531 C24.5065781,21.8593125 24.5065781,21.8546719 24.5085469,21.850875 L25.5076875,15.7237031 L25.5113438,15.7030312 C25.5169688,15.6560625 25.5254063,15.6016406 25.5677344,15.6016406 C26.0001668,15.5479843 26.392985,15.3230536 26.6581406,14.9772656 C26.6665781,14.9678437 26.6722031,14.9575781 26.6834531,14.9519531 C26.7135469,14.9378906 26.7492656,14.9519531 26.7803438,14.9650312 L35.8506563,18.797625 L35.8515,18.797625 L35.8515,18.797625 Z M29.624625,25.1829844 L22.8702656,31.9298906 L24.0262031,24.8318438 L24.0281719,24.8224219 C24.0290532,24.8131972 24.0309394,24.8040964 24.0337969,24.7952813 C24.0432188,24.7727813 24.0675469,24.7633594 24.0911719,24.7539375 L24.1024219,24.7491563 C24.3555469,24.6412969 24.5794219,24.4749375 24.7557656,24.2638594 C24.7782656,24.2375625 24.8055469,24.2121094 24.8402813,24.2074688 C24.8492812,24.2060625 24.8585625,24.2060625 24.8675625,24.2074688 L29.6235,25.1839688 L29.6244844,25.1829844 L29.624625,25.1829844 Z M21.4405312,33.3579375 L20.6791875,34.1184375 L12.2622187,21.9673125 C12.2591683,21.9628427 12.256027,21.9584355 12.2527969,21.9540938 C12.2397187,21.9362344 12.2255156,21.9185156 12.2284688,21.8978438 C12.2293125,21.8827969 12.2387344,21.8697188 12.2491406,21.8584688 L12.2584219,21.8462344 C12.2837344,21.8085469 12.3055313,21.771 12.3290156,21.7306406 L12.3477188,21.697875 L12.3505312,21.6950625 C12.36375,21.6725625 12.3758438,21.6509063 12.3984844,21.6386719 C12.4181719,21.62925 12.4455937,21.6330469 12.4671094,21.6376875 L21.7920937,23.558625 C21.81825,23.5628437 21.8427187,23.5733906 21.8635313,23.5895625 C21.8757656,23.6019375 21.8785781,23.6150156 21.8813906,23.6300625 C22.0134042,24.128569 22.3708658,24.5367026 22.847625,24.7332656 C22.8739219,24.7463437 22.8626719,24.7754531 22.8504375,24.8063906 C22.8443492,24.8199953 22.8396382,24.8341754 22.836375,24.8487187 C22.7189531,25.56225 21.711375,31.7008125 21.4405313,33.3579375 L21.4405312,33.3579375 Z M19.8502031,34.9455938 C19.2891094,35.5005 18.9582188,35.7942656 18.5841562,35.9126719 C18.2153218,36.0291542 17.8195532,36.0291542 17.4507188,35.9126719 C17.0126719,35.7735937 16.6338281,35.3962969 15.877125,34.6394531 L7.4244375,26.1960469 L9.63225,22.775625 C9.6416046,22.7584452 9.65444057,22.743406 9.6699375,22.7314688 C9.69342187,22.7145937 9.7273125,22.7221875 9.7554375,22.7314688 C10.2622082,22.8841923 10.806235,22.856663 11.295,22.6535625 C11.3203125,22.6442964 11.3457656,22.6376719 11.3655937,22.6555312 C11.3754375,22.6645312 11.3842969,22.6745156 11.3918906,22.6854844 L19.8502031,34.9465781 L19.8502031,34.9455937 L19.8502031,34.9455938 Z M6.60951563,25.3819688 L4.6704375,23.4451406 L8.49965625,21.8133281 C8.50946138,21.8090438 8.52003439,21.8067953 8.53073437,21.8067187 C8.56265625,21.8067187 8.5815,21.8386406 8.598375,21.86775 C8.63690625,21.9268125 8.6776875,21.9844688 8.72071875,22.0405781 L8.7328125,22.0554844 C8.7440625,22.0715156 8.73660938,22.0874063 8.72535938,22.1024531 L6.61035937,25.3819688 L6.60951563,25.3819688 L6.60951563,25.3819688 Z M3.81234375,22.5878906 L1.35914062,20.1373594 C0.941765625,19.7205469 0.639140625,19.4182031 0.428625,19.1581875 L7.88779687,20.7036563 L7.91592188,20.7082969 C7.96204688,20.71575 8.01295312,20.7241875 8.01295312,20.7673594 C8.01295312,20.8143281 7.95740625,20.8359844 7.91029688,20.8537031 L7.88878125,20.863125 L3.81234375,22.5878906 Z M0,17.8980469 C0.0085330474,17.740224 0.0369771492,17.5841122 0.08465625,17.4334219 C0.223734375,16.9957969 0.60159375,16.6183594 1.35914062,15.8616563 L4.49845312,12.7257188 C5.9439142,14.8212547 7.39329173,16.9140865 8.84657813,19.0042031 C8.87189063,19.0379531 8.90001563,19.0755 8.87104688,19.103625 C8.73379688,19.2547969 8.59654688,19.4200312 8.49979688,19.5994687 C8.48925,19.6223906 8.47307813,19.6425 8.4526875,19.6575469 C8.44045313,19.6651406 8.427375,19.6623281 8.4133125,19.6595156 L8.41134375,19.6595156 L0,17.8972031 L0,17.8981875 L0,17.8980469 Z M5.33882813,11.8863281 L9.55996875,7.66982812 C9.95653125,7.8435 11.4003281,8.45282812 12.6916875,8.99732812 C13.6693125,9.410625 14.5603125,9.78623438 14.8404375,9.90815625 C14.8685625,9.91940625 14.8940156,9.93065625 14.90625,9.95878125 C14.9137031,9.97565625 14.9100469,9.9973125 14.90625,10.0151719 C14.7705364,10.6335697 14.9553379,11.2787363 15.397875,11.7315 C15.426,11.759625 15.397875,11.7999844 15.3734062,11.8347187 L15.3601875,11.8544062 L11.0742188,18.4858594 C11.0629687,18.5047031 11.0525625,18.5205937 11.0337188,18.5328281 C11.0112188,18.5468906 10.9792969,18.5402812 10.9528594,18.5338125 C10.7861677,18.4901922 10.6148173,18.466867 10.4425312,18.4643438 C10.2884062,18.4643438 10.1210625,18.4924687 9.95189062,18.5234062 L9.95090625,18.5234062 C9.93220312,18.5262188 9.9151875,18.5300156 9.90028125,18.5187656 C9.88366921,18.5052323 9.86937262,18.4890834 9.85795312,18.4709531 L5.33882813,11.8863281 Z M10.4125781,6.81820313 L15.8772656,1.3595625 C16.6338281,0.603703125 17.0126719,0.225421875 17.4505781,0.087328125 C17.819456,-0.029183777 18.2152784,-0.029183777 18.5841562,0.087328125 C19.0222031,0.225421875 19.4009062,0.603703125 20.1576094,1.3595625 L21.3419531,2.54264063 L17.4553594,8.55520313 C17.4457365,8.57268606 17.4326211,8.5880033 17.4168281,8.60020313 C17.3933437,8.61623437 17.3604375,8.609625 17.3321719,8.60020313 C16.7101141,8.41163867 16.0350913,8.54161461 15.5275312,8.9476875 C15.5022187,8.97398437 15.4645312,8.9589375 15.4326094,8.944875 C14.9249531,8.72423437 10.9773281,7.0576875 10.4124375,6.81834375 L10.4125781,6.81820313 Z M22.1671406,3.36698437 L25.7558906,6.95151563 L24.8910469,12.3014531 L24.8910469,12.3155156 C24.8903008,12.3277194 24.8877904,12.3397506 24.8835938,12.3512344 C24.8741719,12.3699375 24.8553281,12.3737344 24.8364844,12.3793594 C24.65166,12.4353127 24.4775718,12.5219765 24.3215156,12.6357188 C24.3147938,12.64047 24.3084897,12.6457862 24.3026719,12.6516094 C24.2922656,12.6628594 24.282,12.6732656 24.265125,12.6751441 C24.2513255,12.6755167 24.2375741,12.6732726 24.224625,12.6684844 L18.7561406,10.3476094 L18.745875,10.3428281 C18.711,10.3287656 18.6696563,10.3118906 18.6696563,10.2761719 C18.6375021,9.97173452 18.537969,9.67827532 18.3782813,9.41709375 C18.3519844,9.37392187 18.322875,9.32892187 18.345375,9.28476562 L22.1671406,3.36698437 L22.1671406,3.36698437 Z M18.471375,11.446875 L23.5977188,13.6157344 C23.6258438,13.6288125 23.6569219,13.6410469 23.6691563,13.6701563 C23.6740329,13.687635 23.6740329,13.706115 23.6691563,13.7235938 C23.6541094,13.7988281 23.6410313,13.8841875 23.6410313,13.9706719 L23.6410313,14.11425 C23.6410313,14.1499688 23.6043281,14.164875 23.5704375,14.1789375 L23.5601719,14.1827344 C22.7480625,14.5292344 12.1588594,19.0396406 12.1428281,19.0396406 C12.1269375,19.0396406 12.1099219,19.0396406 12.0940312,19.02375 C12.0659062,18.995625 12.0940312,18.95625 12.1193437,18.9203906 L12.1325625,18.9016875 L16.3452656,12.3858281 L16.3527188,12.3745781 C16.3771875,12.3350625 16.4054531,12.2909062 16.4505937,12.2909062 L16.4927813,12.2975156 C16.5886875,12.3105937 16.6733438,12.3228281 16.7588437,12.3228281 C17.3979844,12.3228281 17.9901562,12.0120469 18.3473438,11.480625 C18.3557812,11.4665625 18.3666094,11.4539062 18.3792656,11.4430781 C18.4045781,11.424375 18.4422656,11.4337969 18.471375,11.446875 L18.471375,11.446875 Z M12.6005625,20.0705625 L24.1429219,15.1536094 C24.1429219,15.1536094 24.1597969,15.1536094 24.1758281,15.1696406 C24.2386875,15.2325 24.2922656,15.2746875 24.3440156,15.3142031 L24.3693281,15.3300937 C24.3929531,15.3433125 24.4164375,15.3582188 24.4182656,15.3826875 C24.4182656,15.3921094 24.4182656,15.3977344 24.4164375,15.4061719 L23.4275625,21.4732969 L23.4237656,21.4977656 C23.4172969,21.5445938 23.4106875,21.5981719 23.3665313,21.5981719 C22.8315171,21.634142 22.3486716,21.9316784 22.0760156,22.3934063 L22.0712344,22.4008594 C22.0581563,22.4225156 22.0459219,22.4430469 22.0242656,22.4542969 C22.0045781,22.4638594 21.9792656,22.4600625 21.9584531,22.4554219 L12.7538438,20.5588125 C12.7444219,20.5569844 12.6109688,20.0715469 12.6005625,20.0705625 L12.6005625,20.0705625 Z" id="Shape"></path>
        </g>
    </g>
</svg>