<?xml version="1.0" encoding="UTF-8"?>
<svg width="50px" height="50px" viewBox="0 0 50 50" version="1.1" xmlns="http://www.w3.org/2000/svg" xmlns:xlink="http://www.w3.org/1999/xlink">
    <!-- Generator: Sketch 64 (93537) - https://sketch.com -->
    <title>Zeplin Copy 17</title>
    <desc>Created with Sketch.</desc>
    <g id="Zeplin-Copy-17" stroke="none" stroke-width="1" fill="none" fill-rule="evenodd">
        <rect id="Rectangle" opacity="0" x="0" y="0" width="50" height="50" rx="6"></rect>
        <g id="nodejs-icon-(1)" transform="translate(8.500000, 7.000000)" fill="#8CC84B" fill-rule="nonzero">
            <path d="M14.8635587,0.386667922 C15.7560892,-0.124210279 16.9186096,-0.126517884 17.8103709,0.386667922 C22.2967404,2.92170068 26.7845201,5.45275922 31.2701205,7.98933038 C32.1138067,8.4645689 32.6781444,9.40350791 32.6696517,10.3756508 L32.6696517,25.6273842 C32.6758368,26.639782 32.0557319,27.6011561 31.1656372,28.0656258 C26.6940107,30.5866847 22.2246918,33.1108204 17.7538345,35.6318793 C16.8428432,36.1527572 15.6569904,36.1126305 14.7744595,35.5490619 C13.433869,34.7719117 12.0909708,33.9986075 10.7502521,33.2222265 C10.476288,33.0588993 10.1674535,32.9289042 9.97399925,32.6632732 C10.1450184,32.432769 10.4507762,32.4040521 10.6992284,32.3034149 C11.2588227,32.1254729 11.7727777,31.8398426 12.2868609,31.5626736 C12.416856,31.4737026 12.575568,31.5078038 12.7001787,31.5874162 C13.8465457,32.2446992 14.982785,32.921084 16.1329981,33.5720851 C16.3783735,33.7137464 16.6268257,33.5256766 16.8365614,33.4087579 C21.2246013,30.9287231 25.6180256,28.4580469 30.0052963,25.9772428 C30.1678543,25.8990407 30.2577227,25.7264831 30.2445181,25.5484128 C30.2475949,20.517192 30.2452873,15.4850738 30.2460565,10.453853 C30.2646455,10.2518093 30.1477268,10.0660471 29.9650414,9.98335787 C25.5089271,7.47383697 21.0551205,4.96047007 16.5997754,2.45030817 C16.4417727,2.34168316 16.2332438,2.34137755 16.0749234,2.44953897 C11.6195783,4.96047007 7.16654085,7.47614458 2.71119578,9.98553727 C2.52915136,10.0683547 2.40697647,10.2510401 2.42864232,10.453853 C2.42941152,15.4850738 2.42864232,20.517192 2.42864232,25.549182 C2.41281942,25.7271317 2.50950736,25.8961054 2.67094089,25.9726276 C3.85987048,26.646833 5.05033848,27.316295 6.24003727,27.9881928 C6.91026845,28.3489484 7.73318618,28.5632993 8.47161992,28.2868995 C9.12326205,28.0531903 9.58003972,27.3882154 9.56760429,26.6963183 C9.57375791,21.6944554 9.56452748,16.6918232 9.5722195,11.6907295 C9.55593806,11.4686866 9.76657116,11.2852319 9.98246047,11.3061286 C10.553721,11.3022826 11.1257508,11.2984366 11.6970113,11.307667 C11.9354639,11.3022826 12.0995602,11.5413761 12.0700742,11.7650857 C12.0677666,16.7986141 12.0762278,21.8322707 12.0662282,26.8657991 C12.0677666,28.2072871 11.5166335,29.6669757 10.2757828,30.3233613 C8.74712236,31.1152545 6.85770633,30.9473121 5.34750678,30.1879817 C4.04012011,29.5354422 2.79247477,28.765343 1.50829236,28.0662668 C0.61589006,27.6043611 -0.00113798946,26.639141 0.00503348326,25.6275124 L0.00503348326,10.3756508 C-0.00421479669,9.38338046 0.582557982,8.42739081 1.45252523,7.95907511 C5.92338253,5.43596498 10.3934706,2.91093185 14.8635587,0.386667922 Z" id="Path"></path>
            <path d="M18.7639247,10.9516547 C20.7138513,10.8261466 22.8013368,10.8772986 24.5560143,11.8379034 C25.9145529,12.5740296 26.6677297,14.1189714 26.6917031,15.6282735 C26.6537558,15.8318556 26.4409433,15.9441591 26.2465917,15.9301852 C25.6808437,15.929416 25.1149676,15.9378773 24.5492197,15.9263392 C24.3092287,15.9355697 24.1697468,15.7142959 24.1396197,15.5021244 C23.9770617,14.7799721 23.5832304,14.0647427 22.9035124,13.7164224 C21.8600902,13.1940062 20.6502639,13.2202873 19.5124863,13.2311843 C18.6818765,13.2752852 17.788705,13.3472056 17.0850136,13.8356487 C16.5447775,14.2056348 16.3806811,14.9525297 16.5734944,15.5540456 C16.7552824,15.9859524 17.2538534,16.1253061 17.6617867,16.2537628 C20.0116982,16.868355 22.5018609,16.8072035 24.8069023,17.6160192 C25.7612253,17.9457504 26.6947799,18.5867519 27.0214343,19.585945 C27.4487259,20.9251254 27.2614253,22.5258343 26.3086406,23.6009221 C25.5359774,24.4856323 24.4106352,24.9671527 23.2882415,25.2286813 C21.7950926,25.5616175 20.2455356,25.5700787 18.7291824,25.4222637 C17.3033387,25.2597058 15.8195484,24.8851045 14.7188206,23.9136026 C13.777574,23.0963257 13.3178477,21.8229121 13.363487,20.5938558 C13.374384,20.3862995 13.5810429,20.2415614 13.7798816,20.258612 C14.3496037,20.2539968 14.9193259,20.2524584 15.489048,20.2593812 C15.7166035,20.2430998 15.8853151,20.439759 15.8969814,20.6542381 C16.0021056,21.3422892 16.2606856,22.0644415 16.860663,22.4723748 C18.0185681,23.219398 19.4714622,23.168246 20.7973097,23.1891427 C21.8957299,23.1404266 23.1287604,23.1256835 24.0251369,22.3996852 C24.4980678,21.9855983 24.6381907,21.2928038 24.510375,20.6968006 C24.3719187,20.1936145 23.8455282,19.9591361 23.393494,19.8058085 C21.0737095,19.07199 18.5557274,19.338262 16.258378,18.5084215 C15.3257208,18.1788185 14.4238317,17.5556369 14.0655119,16.5974678 C13.5655307,15.241365 13.7946246,13.5639923 14.8472773,12.5251852 C15.8736489,11.4918908 17.3552598,11.0939571 18.7639247,10.9515265 L18.7639247,10.9516547 Z" id="Path"></path>
        </g>
    </g>
</svg>