<?xml version="1.0" encoding="UTF-8"?>
<svg width="50px" height="50px" viewBox="0 0 50 50" version="1.1" xmlns="http://www.w3.org/2000/svg" xmlns:xlink="http://www.w3.org/1999/xlink">
    <!-- Generator: Sketch 64 (93537) - https://sketch.com -->
    <title>Zeplin Copy 18</title>
    <desc>Created with Sketch.</desc>
    <g id="Zeplin-Copy-18" stroke="none" stroke-width="1" fill="none" fill-rule="evenodd">
        <rect id="Rectangle" opacity="0" x="0" y="0" width="50" height="50" rx="6"></rect>
        <g id="Apple_logo_black" transform="translate(9.500000, 7.000000)" fill="#000000" fill-rule="nonzero">
            <path d="M29.6679345,28.0359955 C29.1238748,29.2928855 28.4798852,30.4498455 27.7337455,31.5135394 C26.7166855,32.9636242 25.8839406,33.9673606 25.2421715,34.5247455 C24.2473191,35.4396545 23.1814052,35.9082121 22.0399888,35.9348606 C21.2205679,35.9348606 20.2323767,35.7016909 19.0820782,35.2286939 C17.9280048,34.7579121 16.8674203,34.5247455 15.8976606,34.5247455 C14.8806012,34.5247455 13.7898158,34.7579121 12.6230845,35.2286939 C11.4545755,35.7016909 10.5132409,35.9481848 9.79352667,35.9726121 C8.69896636,36.0192455 7.60796,35.5373636 6.51895061,34.5247455 C5.82388667,33.9185061 4.95450091,32.8792394 3.91301364,31.4069455 C2.79558109,29.8347248 1.87689661,28.0115682 1.15718267,25.9330364 C0.386393788,23.6879552 0,21.5139352 0,19.4092003 C0,16.9982367 0.520965424,14.9188164 1.56445058,13.1762691 C2.384538,11.7765918 3.47554515,10.6724824 4.84102455,9.86194333 C6.20650515,9.05140545 7.68190758,8.63836394 9.27078576,8.61193758 C10.1401709,8.61193758 11.2802555,8.88085879 12.6970321,9.40937455 C14.1098121,9.93966667 15.0169494,10.2085879 15.4146679,10.2085879 C15.7120133,10.2085879 16.7197461,9.89414273 18.4280952,9.26725303 C20.0436215,8.68588576 21.4071024,8.44516606 22.5240912,8.53998788 C25.5508427,8.78426 27.8247921,9.97741758 29.3370576,12.1270103 C26.6300809,13.7671855 25.2910264,16.0644515 25.3176739,19.0114809 C25.3421012,21.3069703 26.1748461,23.2171764 27.8114679,24.7338839 C28.5531658,25.43783 29.3814703,25.9818903 30.3030394,26.3682845 C30.1031833,26.9478748 29.8922212,27.5030385 29.6679345,28.0359955 Z M22.7261715,0.719734455 C22.7261715,2.5189293 22.068857,4.19883242 20.7586721,5.75373333 C19.1775655,7.60220636 17.2651394,8.6703403 15.1912703,8.50179303 C15.1648448,8.28594515 15.1495221,8.05877273 15.1495221,7.82005273 C15.1495221,6.09282758 15.9014358,4.24435545 17.2367155,2.73297839 C17.9033545,1.96774173 18.7512003,1.33145779 19.7793633,0.82388203 C20.8053052,0.323879606 21.7757312,0.047367497 22.6884191,1.59801139e-05 C22.7150688,0.240540224 22.7261715,0.481079606 22.7261715,0.719711121 L22.7261715,0.719734455 Z" id="path4"></path>
        </g>
    </g>
</svg>