<?xml version="1.0" encoding="UTF-8"?>
<svg width="50px" height="50px" viewBox="0 0 50 50" version="1.1" xmlns="http://www.w3.org/2000/svg" xmlns:xlink="http://www.w3.org/1999/xlink">
    <!-- Generator: Sketch 64 (93537) - https://sketch.com -->
    <title>Zeplin Copy 4</title>
    <desc>Created with Sketch.</desc>
    <defs>
        <circle id="path-1" cx="18" cy="18" r="18"></circle>
    </defs>
    <g id="Zeplin-Copy-4" stroke="none" stroke-width="1" fill="none" fill-rule="evenodd">
        <rect id="Rectangle" opacity="0" x="0" y="0" width="50" height="50" rx="6"></rect>
        <g id="OptimalSort_52px-square_colour" transform="translate(7.000000, 7.000000)">
            <mask id="mask-2" fill="white">
                <use xlink:href="#path-1"></use>
            </mask>
            <use id="Mask" fill="#D8D8D8" xlink:href="#path-1"></use>
            <g mask="url(#mask-2)" fill-rule="nonzero">
                <rect id="_52px_BG-Colour" fill="#FFEA8F" x="0" y="0" width="36" height="36"></rect>
                <path d="M25.6153846,9 L19.3846154,9 C19.0022644,9 18.6923077,9.30995671 18.6923077,9.69230769 L18.6923077,13.1538462 C18.6923077,13.5361971 19.0022644,13.8461538 19.3846154,13.8461538 L25.6153846,13.8461538 C25.9977356,13.8461538 26.3076923,13.5361971 26.3076923,13.1538462 L26.3076923,9.69230769 C26.3076923,9.30995671 25.9977356,9 25.6153846,9 Z M16.6153846,10.3846154 L10.3846154,10.3846154 C10.0022644,10.3846154 9.69230769,10.6945721 9.69230769,11.0769231 L9.69230769,14.5384615 L9.69230769,14.5384615 L9.69230769,18 C9.69230769,18.382351 10.0022644,18.6923077 10.3846154,18.6923077 L16.6153846,18.6923077 C16.9977356,18.6923077 17.3076923,18.382351 17.3076923,18 L17.3076923,14.5384615 L17.3076923,14.5384615 L17.3076923,11.0769231 C17.3076923,10.6945721 16.9977356,10.3846154 16.6153846,10.3846154 Z M16.6153846,20.0769231 L10.3846154,20.0769231 C10.0022644,20.0769231 9.69230769,20.3868798 9.69230769,20.7692308 L9.69230769,24.2307692 C9.69230769,24.6131202 10.0022644,24.9230769 10.3846154,24.9230769 L16.6153846,24.9230769 C16.9977356,24.9230769 17.3076923,24.6131202 17.3076923,24.2307692 L17.3076923,20.7692308 C17.3076923,20.3868798 16.9977356,20.0769231 16.6153846,20.0769231 Z M25.6153846,15.2307692 L19.3846154,15.2307692 C19.0022644,15.2307692 18.6923077,15.5407259 18.6923077,15.9230769 L18.6923077,19.3846154 L18.6923077,19.3846154 L18.6923077,22.8461538 L18.6923077,22.8461538 L18.6923077,26.3076923 C18.6923077,26.6900433 19.0022644,27 19.3846154,27 L25.6153846,27 C25.9977356,27 26.3076923,26.6900433 26.3076923,26.3076923 L26.3076923,22.8461538 L26.3076923,22.8461538 L26.3076923,19.3846154 L26.3076923,19.3846154 L26.3076923,15.9230769 C26.3076923,15.5407259 25.9977356,15.2307692 25.6153846,15.2307692 Z" id="Grey" fill="#40403F"></path>
                <path d="M15.9230769,13.8461538 L11.0769231,13.8461538 L11.0769231,11.7692308 L15.9230769,11.7692308 L15.9230769,13.8461538 Z M11.0769231,17.3076923 L15.9230769,17.3076923 L15.9230769,15.2307692 L11.0769231,15.2307692 L11.0769231,17.3076923 Z M24.9230769,16.6153846 L20.0769231,16.6153846 L20.0769231,18.6923077 L24.9230769,18.6923077 L24.9230769,16.6153846 Z M20.0769231,22.1538462 L24.9230769,22.1538462 L24.9230769,20.0769231 L20.0769231,20.0769231 L20.0769231,22.1538462 Z M20.0769231,25.6153846 L24.9230769,25.6153846 L24.9230769,23.5384615 L20.0769231,23.5384615 L20.0769231,25.6153846 Z" id="Colour" fill="#FFEA8F"></path>
                <path d="M24.9230769,12.4615385 L20.0769231,12.4615385 L20.0769231,10.3846154 L24.9230769,10.3846154 L24.9230769,12.4615385 Z M15.9230769,21.4615385 L11.0769231,21.4615385 L11.0769231,23.5384615 L15.9230769,23.5384615 L15.9230769,21.4615385 Z" id="White" fill="#FFFFFF"></path>
            </g>
        </g>
    </g>
</svg>