<?xml version="1.0" encoding="UTF-8"?>
<svg width="50px" height="50px" viewBox="0 0 50 50" version="1.1" xmlns="http://www.w3.org/2000/svg" xmlns:xlink="http://www.w3.org/1999/xlink">
    <!-- Generator: Sketch 64 (93537) - https://sketch.com -->
    <title>Zeplin Copy 2</title>
    <desc>Created with Sketch.</desc>
    <g id="Zeplin-Copy-2" stroke="none" stroke-width="1" fill="none" fill-rule="evenodd">
        <rect id="Rectangle" opacity="0" x="0" y="0" width="50" height="50" rx="6"></rect>
        <g id="Adobe_Photoshop_CC_icon" transform="translate(7.000000, 7.000000)" fill-rule="nonzero">
            <path d="M29.625,36 L6.375,36 C2.85,36 0,33.0769231 0,29.4615385 L0,6.53846154 C0,2.92307692 2.85,0 6.375,0 L29.625,0 C33.15,0 36,2.92307692 36,6.53846154 L36,29.4615385 C36,33.0769231 33.15,36 29.625,36 Z" id="Path" fill="#26C9FF"></path>
            <path d="M29.0674733,34.5 L6.94746479,34.5 C3.94610678,34.5 1.5,31.9864486 1.5,28.8869159 L1.5,7.11308411 C1.5,4.0135514 3.94610678,1.5 6.94746479,1.5 L29.0524665,1.5 C32.0688313,1.5 34.5,4.0135514 34.5,7.09766355 L34.5,28.8869159 C34.5149381,31.9864486 32.0688313,34.5 29.0674733,34.5 Z" id="Path" fill="#062026"></path>
            <path d="M8.5,9.755 C8.5,9.65 8.71,9.575 8.83,9.575 C9.79,9.53 11.215,9.5 12.7,9.5 C16.855,9.5 18.475,11.78 18.475,14.705 C18.475,18.515 15.715,20.15 12.325,20.15 C11.755,20.15 11.56,20.12 11.155,20.12 L11.155,25.88 C11.155,26 11.11,26.06 10.975,26.06 L8.68,26.06 C8.56,26.06 8.5,26.015 8.5,25.88 L8.5,9.755 L8.5,9.755 Z M11.17,17.72 C11.515,17.75 11.785,17.75 12.385,17.75 C14.14,17.75 15.79,17.135 15.79,14.75 C15.79,12.845 14.605,11.885 12.61,11.885 C12.01,11.885 11.44,11.915 11.17,11.93 L11.17,17.72 L11.17,17.72 Z M24.07,15.935 C22.885,15.935 22.48,16.535 22.48,17.03 C22.48,17.57 22.75,17.945 24.34,18.77 C26.695,19.91 27.43,21.005 27.43,22.61 C27.43,25.01 25.6,26.3 23.125,26.3 C21.82,26.3 20.695,26.03 20.05,25.655 C19.945,25.61 19.93,25.535 19.93,25.415 L19.93,23.21 C19.93,23.06 20.005,23.015 20.11,23.09 C21.055,23.705 22.135,23.975 23.125,23.975 C24.31,23.975 24.805,23.48 24.805,22.805 C24.805,22.265 24.46,21.785 22.945,21.005 C20.815,19.985 19.93,18.95 19.93,17.225 C19.93,15.29 21.445,13.685 24.07,13.685 C25.36,13.685 26.26,13.88 26.755,14.105 C26.875,14.18 26.905,14.3 26.905,14.405 L26.905,16.46 C26.905,16.58 26.83,16.655 26.68,16.61 C26.02,16.19 25.045,15.935 24.07,15.935 L24.07,15.935 Z" id="Shape" fill="#26C9FF"></path>
        </g>
    </g>
</svg>