<?xml version="1.0" encoding="UTF-8"?>
<svg width="50px" height="50px" viewBox="0 0 50 50" version="1.1" xmlns="http://www.w3.org/2000/svg" xmlns:xlink="http://www.w3.org/1999/xlink">
    <!-- Generator: Sketch 64 (93537) - https://sketch.com -->
    <title>Zeplin Copy 20</title>
    <desc>Created with Sketch.</desc>
    <g id="Zeplin-Copy-20" stroke="none" stroke-width="1" fill="none" fill-rule="evenodd">
        <rect id="Rectangle" opacity="0" x="0" y="0" width="50" height="50" rx="6"></rect>
        <g id="iconfinder_postman_4691397" transform="translate(7.000000, 7.000000)" fill="#EF5B25" fill-rule="nonzero">
            <path d="M20.2905,0.1485 C10.4325,-1.116 1.413,5.85 0.1485,15.7095 C-1.116,25.5675 5.8485,34.5855 15.708,35.8515 C25.5675,37.116 34.5885,30.15 35.85,20.2905 C37.116,10.4325 30.1515,1.4145 20.2905,0.1485 Z M23.997,11.376 C23.6629772,11.3803861 23.3438469,11.5149267 23.1075,11.751 L16.428,18.4305 L15.9675,17.97 L15.003,17.0055 C21.5865,10.4415 22.773,10.3785 23.997,11.376 L23.997,11.376 Z M16.7025,18.6675 L23.3625,12.0075 C23.6003321,11.7580651 23.9566063,11.6606099 24.2882859,11.7542608 C24.6199656,11.8479116 24.8726573,12.1173103 24.9449108,12.4542989 C25.0171643,12.7912875 24.8971303,13.140602 24.633,13.362 L17.5845,19.5495 L16.7025,18.6675 L16.7025,18.6675 Z M17.1975,19.7085 L15.5475,20.0655 C15.5069339,20.0746382 15.4653887,20.0547957 15.447,20.0175 C15.4263605,19.9818666 15.4325381,19.9367702 15.462,19.908 L16.4295,18.9405 L17.1975,19.7085 L17.1975,19.7085 Z M12.993,19.02 L14.751,17.262 L16.0695,18.579 L13.101,19.218 C13.0500024,19.2312298 12.9967308,19.2067875 12.9735,19.1595 C12.9446107,19.1145755 12.9528992,19.0552808 12.993,19.02 L12.993,19.02 Z M7.524,28.107 C7.49371431,28.10434 7.46574574,28.089693 7.44631039,28.0663143 C7.42687505,28.0429355 7.4175832,28.012762 7.4205,27.9825 C7.42334433,27.9564196 7.43498281,27.9320846 7.4535,27.9135 L7.4565,27.9135 L8.8755,26.4945 L10.7085,28.3275 L7.524,28.107 L7.524,28.107 Z M11.1615,26.223 C11.0215434,26.295305 10.9490802,26.453857 10.986,26.607 L11.2905,27.9045 C11.3107171,27.9866844 11.2733711,28.0722242 11.1993541,28.1132668 C11.1253372,28.1543094 11.0330008,28.1406787 10.974,28.08 L10.9695,28.08 L9.5685,26.679 L9.1275,26.2365 L14.7705,20.5995 L17.5005,20.01 L18.8115,21.321 C16.929,22.974 14.355,24.6225 11.1615,26.223 L11.1615,26.223 Z M19.08,21.081 L19.077,21.081 L17.8185,19.8225 L24.867,13.635 C24.9321918,13.5770834 24.9919414,13.513317 25.0455,13.4445 C24.8235,15.462 22.002,18.312 19.08,21.081 L19.08,21.081 Z M24.5655,11.391 L24.561,11.388 C23.530783,10.3528712 23.4964186,8.69069126 24.4829724,7.61386715 C25.4695263,6.53704303 27.1283568,6.42611728 28.2495,7.362 L25.8345,9.7815 C25.8006984,9.8150175 25.7816849,9.86064782 25.7816849,9.90825 C25.7816849,9.95585218 25.8006984,10.0014825 25.8345,10.035 L27.705,11.9055 C26.656589,12.4259251 25.3929576,12.2188417 24.5655,11.391 L24.5655,11.391 Z M28.4325,11.391 C28.3084381,11.5135012 28.1722371,11.6230652 28.026,11.718 L28.0245,11.718 L26.214,9.9075 L28.5135,7.608 C29.505,8.688 29.469,10.356 28.4325,11.391 L28.4325,11.391 Z M28.2825,9.075 C28.208584,9.12858291 28.1766835,9.22308062 28.203,9.3105 C28.3121106,9.5314591 28.280961,9.79593711 28.1235,9.9855 C28.0887935,10.0292233 28.072924,10.084966 28.0793975,10.140413 C28.085871,10.1958599 28.1141547,10.2464477 28.158,10.281 C28.194024,10.3092394 28.2382371,10.3250298 28.284,10.326 C28.3454176,10.3254548 28.4035181,10.2980489 28.443,10.251 C28.7062747,9.93470318 28.7574891,9.49261034 28.5735,9.1245 C28.5417721,9.0789634 28.4930872,9.04807494 28.4383732,9.03876793 C28.3836593,9.02946091 28.3274996,9.04251498 28.2825,9.075 L28.2825,9.075 Z" id="Shape"></path>
        </g>
    </g>
</svg>