<?xml version="1.0" encoding="UTF-8"?>
<svg width="50px" height="50px" viewBox="0 0 50 50" version="1.1" xmlns="http://www.w3.org/2000/svg" xmlns:xlink="http://www.w3.org/1999/xlink">
    <!-- Generator: Sketch 64 (93537) - https://sketch.com -->
    <title>Zeplin Copy</title>
    <desc>Created with Sketch.</desc>
    <defs>
        <linearGradient x1="50%" y1="0%" x2="50%" y2="62.618%" id="linearGradient-1">
            <stop stop-color="#D378E5" offset="0%"></stop>
            <stop stop-color="#7526C2" offset="100%"></stop>
        </linearGradient>
    </defs>
    <g id="Zeplin-Copy" stroke="none" stroke-width="1" fill="none" fill-rule="evenodd">
        <rect id="Rectangle" opacity="0" x="0" y="0" width="50" height="50" rx="6"></rect>
        <g id="principle-app-2" transform="translate(11.500000, 7.000000)" fill="url(#linearGradient-1)">
            <path d="M0,30.4253843 L0,13.14 C0,5.88294939 5.88294939,0 13.14,0 C20.3970506,0 26.28,5.88294939 26.28,13.14 C26.28,20.3015285 20.5507315,26.124948 13.4256522,26.276915 L13.4256522,26.28 C11.3746696,26.28 9.71217391,24.6175043 9.71217391,22.5665217 C9.71217391,20.534735 11.3439334,18.8840082 13.3685217,18.8535005 L13.3685217,18.8485873 C16.4178016,18.7286134 18.8530435,16.2186449 18.8530435,13.14 C18.8530435,9.98480035 16.2951997,7.42695652 13.14,7.42695652 C9.98480035,7.42695652 7.42695652,9.98480035 7.42695652,13.14 L7.42695652,32.2786957 C7.42695652,34.3296783 5.76446087,35.9921787 3.71347826,35.9921787 C2.94951891,35.993398 2.20394615,35.7578867 1.57931374,35.3180348 C2.64742435,35.0058741 3.42782609,34.0191172 3.42782609,32.85 C3.42782609,31.4301944 2.27676209,30.2791304 0.856956522,30.2791304 C0.556450435,30.2791304 0.268056,30.3306621 0,30.4253843 Z M13.4256522,25.1373913 C14.8454577,25.1373913 15.9965217,23.9863273 15.9965217,22.5665217 C15.9965217,21.1467162 14.8454577,19.9956522 13.4256522,19.9956522 C12.0058466,19.9956522 10.8547826,21.1467162 10.8547826,22.5665217 C10.8547826,23.9863273 12.0058466,25.1373913 13.4256522,25.1373913 Z" id="Shape"></path>
        </g>
    </g>
</svg>