<?xml version="1.0" encoding="UTF-8"?>
<svg width="50px" height="50px" viewBox="0 0 50 50" version="1.1" xmlns="http://www.w3.org/2000/svg" xmlns:xlink="http://www.w3.org/1999/xlink">
    <!-- Generator: Sketch 64 (93537) - https://sketch.com -->
    <title>Zeplin Copy 13</title>
    <desc>Created with Sketch.</desc>
    <g id="Zeplin-Copy-13" stroke="none" stroke-width="1" fill="none" fill-rule="evenodd">
        <rect id="Rectangle" opacity="0" x="0" y="0" width="50" height="50" rx="6"></rect>
        <g id="React" transform="translate(7.000000, 9.000000)" fill="#61DAFB" fill-rule="nonzero">
            <path d="M35.9487805,15.9878049 C35.9487805,13.6097561 32.9707317,11.3560976 28.404878,9.95853659 C29.4585366,5.30487805 28.9902439,1.60243902 26.9268293,0.417073171 C26.4512195,0.13902439 25.895122,0.00731707317 25.2878049,0.00731707317 L25.2878049,1.63902439 C25.6243902,1.63902439 25.895122,1.70487805 26.1219512,1.82926829 C27.1170732,2.4 27.5487805,4.57317073 27.2121951,7.36829268 C27.1317073,8.05609756 27,8.7804878 26.8390244,9.5195122 C25.404878,9.16829268 23.8390244,8.89756098 22.1926829,8.72195122 C21.204878,7.36829268 20.1804878,6.13902439 19.1487805,5.06341463 C21.5341463,2.84634146 23.7731707,1.63170732 25.295122,1.63170732 L25.295122,0 C25.295122,0 25.295122,0 25.295122,0 C23.2829268,0 20.6487805,1.43414634 17.9853659,3.92195122 C15.3219512,1.44878049 12.6878049,0.0292682927 10.6756098,0.0292682927 L10.6756098,1.66097561 C12.1902439,1.66097561 14.4365854,2.86829268 16.8219512,5.07073171 C15.797561,6.14634146 14.7731707,7.36829268 13.8,8.72195122 C12.1463415,8.89756098 10.5804878,9.16829268 9.14634146,9.52682927 C8.97804878,8.79512195 8.85365854,8.08536585 8.76585366,7.40487805 C8.42195122,4.6097561 8.84634146,2.43658537 9.83414634,1.85853659 C10.0536585,1.72682927 10.3390244,1.66829268 10.6756098,1.66829268 L10.6756098,0.0365853659 C10.6756098,0.0365853659 10.6756098,0.0365853659 10.6756098,0.0365853659 C10.0609756,0.0365853659 9.50487805,0.168292683 9.02195122,0.446341463 C6.96585366,1.63170732 6.50487805,5.32682927 7.56585366,9.96585366 C3.01463415,11.3707317 0.0512195122,13.6170732 0.0512195122,15.9878049 C0.0512195122,18.3658537 3.02926829,20.6195122 7.59512195,22.0170732 C6.54146341,26.6707317 7.0097561,30.3731707 9.07317073,31.5585366 C9.54878049,31.8365854 10.104878,31.9682927 10.7195122,31.9682927 C12.7317073,31.9682927 15.3658537,30.5341463 18.0292683,28.0463415 C20.6926829,30.5195122 23.3268293,31.9390244 25.3390244,31.9390244 C25.9536585,31.9390244 26.5097561,31.8073171 26.9926829,31.5292683 C29.0487805,30.3439024 29.5097561,26.6487805 28.4487805,22.0097561 C32.9853659,20.6121951 35.9487805,18.3585366 35.9487805,15.9878049 Z M26.4219512,11.1073171 C26.1512195,12.0512195 25.8146341,13.0243902 25.4341463,13.997561 C25.1341463,13.4121951 24.8195122,12.8268293 24.4756098,12.2414634 C24.1390244,11.6560976 23.7804878,11.0853659 23.4219512,10.5292683 C24.4609756,10.6829268 25.4634146,10.8731707 26.4219512,11.1073171 Z M23.0707317,18.9 C22.5,19.8878049 21.9146341,20.8243902 21.3073171,21.695122 C20.2170732,21.7902439 19.1121951,21.8414634 18,21.8414634 C16.895122,21.8414634 15.7902439,21.7902439 14.7073171,21.702439 C14.1,20.8317073 13.5073171,19.902439 12.9365854,18.9219512 C12.3804878,17.9634146 11.8756098,16.9902439 11.4146341,16.0097561 C11.8682927,15.0292683 12.3804878,14.0487805 12.9292683,13.0902439 C13.5,12.102439 14.0853659,11.1658537 14.6926829,10.295122 C15.7829268,10.2 16.8878049,10.1487805 18,10.1487805 C19.104878,10.1487805 20.2097561,10.2 21.2926829,10.2878049 C21.9,11.1585366 22.4926829,12.0878049 23.0634146,13.0682927 C23.6195122,14.0268293 24.1243902,15 24.5853659,15.9804878 C24.1243902,16.9609756 23.6195122,17.9414634 23.0707317,18.9 Z M25.4341463,17.9487805 C25.8292683,18.9292683 26.1658537,19.9097561 26.4439024,20.8609756 C25.4853659,21.095122 24.4756098,21.2926829 23.4292683,21.4463415 C23.7878049,20.8829268 24.1463415,20.304878 24.4829268,19.7121951 C24.8195122,19.1268293 25.1341463,18.5341463 25.4341463,17.9487805 Z M18.0146341,25.7560976 C17.3341463,25.0536585 16.6536585,24.2707317 15.9804878,23.4146341 C16.6390244,23.4439024 17.3121951,23.4658537 17.9926829,23.4658537 C18.6804878,23.4658537 19.3609756,23.4512195 20.0268293,23.4146341 C19.3682927,24.2707317 18.6878049,25.0536585 18.0146341,25.7560976 Z M12.5707317,21.4463415 C11.5317073,21.2926829 10.5292683,21.102439 9.57073171,20.8682927 C9.84146341,19.9243902 10.1780488,18.9512195 10.5585366,17.9780488 C10.8585366,18.5634146 11.1731707,19.1487805 11.5170732,19.7341463 C11.8609756,20.3195122 12.2121951,20.8902439 12.5707317,21.4463415 Z M17.9780488,6.2195122 C18.6585366,6.92195122 19.3390244,7.70487805 20.0121951,8.56097561 C19.3536585,8.53170732 18.6804878,8.5097561 18,8.5097561 C17.3121951,8.5097561 16.6317073,8.52439024 15.9658537,8.56097561 C16.6243902,7.70487805 17.304878,6.92195122 17.9780488,6.2195122 Z M12.5634146,10.5292683 C12.204878,11.0926829 11.8463415,11.6707317 11.5097561,12.2634146 C11.1731707,12.8487805 10.8585366,13.4341463 10.5585366,14.0195122 C10.1634146,13.0390244 9.82682927,12.0585366 9.54878049,11.1073171 C10.5073171,10.8804878 11.5170732,10.6829268 12.5634146,10.5292683 Z M5.94146341,19.6902439 C3.35121951,18.5853659 1.67560976,17.1365854 1.67560976,15.9878049 C1.67560976,14.8390244 3.35121951,13.3829268 5.94146341,12.2853659 C6.57073171,12.0146341 7.25853659,11.7731707 7.96829268,11.5463415 C8.38536585,12.9804878 8.93414634,14.4731707 9.61463415,16.002439 C8.94146341,17.5243902 8.4,19.0097561 7.9902439,20.4365854 C7.26585366,20.2097561 6.57804878,19.9609756 5.94146341,19.6902439 Z M9.87804878,30.1463415 C8.88292683,29.5756098 8.45121951,27.402439 8.78780488,24.6073171 C8.86829268,23.9195122 9,23.195122 9.16097561,22.4560976 C10.595122,22.8073171 12.1609756,23.0780488 13.8073171,23.2536585 C14.795122,24.6073171 15.8195122,25.8365854 16.8512195,26.9121951 C14.4658537,29.1292683 12.2268293,30.3439024 10.704878,30.3439024 C10.3756098,30.3365854 10.097561,30.2707317 9.87804878,30.1463415 Z M27.2341463,24.5707317 C27.5780488,27.3658537 27.1536585,29.5390244 26.1658537,30.1170732 C25.9463415,30.2487805 25.6609756,30.3073171 25.3243902,30.3073171 C23.8097561,30.3073171 21.5634146,29.1 19.1780488,26.897561 C20.202439,25.8219512 21.2268293,24.6 22.2,23.2463415 C23.8536585,23.0707317 25.4195122,22.8 26.8536585,22.4414634 C27.0219512,23.1804878 27.1536585,23.8902439 27.2341463,24.5707317 Z M30.0512195,19.6902439 C29.4219512,19.9609756 28.7341463,20.202439 28.0243902,20.4292683 C27.6073171,18.995122 27.0585366,17.502439 26.3780488,15.9731707 C27.0512195,14.4512195 27.5926829,12.9658537 28.002439,11.5390244 C28.7268293,11.7658537 29.4146341,12.0146341 30.0585366,12.2853659 C32.6487805,13.3902439 34.3243902,14.8390244 34.3243902,15.9878049 C34.3170732,17.1365854 32.6414634,18.5926829 30.0512195,19.6902439 Z" id="Shape"></path>
            <circle id="Oval" cx="17.9926829" cy="15.9878049" r="3.34390244"></circle>
        </g>
    </g>
</svg>