<?xml version="1.0" encoding="UTF-8"?>
<svg width="50px" height="50px" viewBox="0 0 50 50" version="1.1" xmlns="http://www.w3.org/2000/svg" xmlns:xlink="http://www.w3.org/1999/xlink">
    <!-- Generator: Sketch 64 (93537) - https://sketch.com -->
    <title>Zeplin Copy 16</title>
    <desc>Created with Sketch.</desc>
    <g id="Zeplin-Copy-16" stroke="none" stroke-width="1" fill="none" fill-rule="evenodd">
        <rect id="Rectangle" opacity="0" x="0" y="0" width="50" height="50" rx="6"></rect>
        <path d="M39.8302379,11.5674075 C39.4867767,10.1755584 38.5136366,9.01568417 37.0253046,8.20377219 C34.1058843,6.63794194 29.4119144,6.57994822 25.1186492,8.14577847 C22.5426901,9.07367788 17.6769896,11.1614516 14.0134033,14.5830806 C10.349817,18.0627034 9.77738163,21.1363702 10.0635993,22.3542382 C10.6932782,25.7178735 14.1851339,28.0956158 16.9328236,30.067402 C17.6769896,30.5893454 18.363912,31.0532951 18.8791038,31.5172448 C17.3335283,32.3291568 13.1547502,34.706899 12.0098795,37.2006287 C11.1512265,39.1724149 11.5519312,40.6222578 11.8953925,41.2601886 C12.2388537,42.0141069 12.811289,42.594044 13.3837244,42.7680251 C13.9561597,42.9420063 14.5858386,43 15.2155175,43 C17.6769896,43 20.0812181,41.6661446 21.56955,39.4043898 C23.0578819,37.142635 23.172369,34.1269619 22.4854466,32.2711631 C23.4585867,32.0391882 24.4889703,32.0391882 25.633841,32.1551757 C27.8663389,32.4451442 28.9539661,33.3150499 29.4691579,34.0109745 C30.0415933,34.7648928 30.1560803,35.518811 30.0988368,35.9827607 C29.9843497,36.8526664 29.2974273,37.3746098 28.9539661,37.6065847 C28.6677484,37.7805658 28.4387743,37.954547 28.4960178,38.3025092 C28.6105049,38.7664589 29.0684532,38.7084652 29.2401838,38.7084652 C29.7553756,38.5924778 31.5871687,37.6645784 31.7016558,35.5768047 C31.7588993,34.300943 31.2437075,33.0250814 30.2705674,31.9811945 C29.0112096,30.6473391 27.122173,29.9514146 24.9469186,30.0094083 C23.3440996,30.0094083 22.2564724,30.1833894 21.3978194,30.473358 C21.3978194,30.473358 21.3405758,30.4153643 21.3405758,30.4153643 C20.5391663,29.5454586 19.4515392,28.7335466 18.4783991,27.9216346 C16.1886576,26.1818232 14.0706468,24.5 14.1851339,22.0062759 C14.3568645,18.8746154 17.3907719,15.8009486 23.2868561,12.8432692 C28.4960178,10.2335521 32.7320395,10.1175647 34.9645373,10.9294767 C35.8804339,11.277439 36.5101128,11.7413887 36.739087,12.2633321 C37.1970352,13.2492252 37.0253046,14.5250869 36.2238951,15.916936 C34.9072938,18.2366845 31.5871687,21.1363702 26.4924941,21.7163073 C23.4013431,22.0642696 22.0847418,20.6724205 22.0274983,20.6144268 C21.6840371,20.2084708 21.4550629,19.9764959 21.0543582,20.2084708 C20.5964099,20.4404456 20.825384,21.0783765 20.9398711,21.3103513 C21.1688452,21.9482822 22.1419853,23.0501627 23.8020479,23.6300999 C25.1186492,24.0940496 28.4960178,24.3840181 32.6747959,22.7601942 C37.4832529,20.7884079 40.803378,15.5689737 39.8302379,11.5674075 Z M20.0812181,36.2727293 C20.0239745,36.3887167 20.0239745,36.5047041 19.966731,36.6206916 C19.9094875,36.736679 19.8522439,36.8526664 19.8522439,36.9686538 C19.6232698,37.4905973 19.2798086,38.0125407 18.8218603,38.4764904 C17.505259,39.9263332 15.7307093,40.3322892 15.158274,39.9843269 C14.9865434,39.8683395 14.9292998,39.6943584 14.8720563,39.4623835 C14.7575692,38.7664589 15.158274,37.3746098 16.3603882,36.1567419 C17.7914766,34.6489053 19.7950004,33.5470248 20.2529487,33.3150499 C20.4246793,34.3589368 20.3674357,35.3448299 20.0812181,36.2727293 Z" id="Shape" fill="#CC6699" fill-rule="nonzero"></path>
    </g>
</svg>