<?xml version="1.0" encoding="UTF-8"?>
<svg width="50px" height="50px" viewBox="0 0 50 50" version="1.1" xmlns="http://www.w3.org/2000/svg" xmlns:xlink="http://www.w3.org/1999/xlink">
    <!-- Generator: Sketch 64 (93537) - https://sketch.com -->
    <title>Zeplin Copy 16</title>
    <desc>Created with Sketch.</desc>
    <g id="Zeplin-Copy-16" stroke="none" stroke-width="1" fill="none" fill-rule="evenodd">
        <rect id="Rectangle" opacity="0" x="0" y="0" width="50" height="50" rx="6"></rect>
        <g id="iconfinder_sass_1297046" transform="translate(7.000000, 7.000000)" fill-rule="nonzero">
            <circle id="Oval" fill="#CC6699" cx="18" cy="18" r="18"></circle>
            <path d="M27.684,10.008 C27.468,9.144 26.856,8.424 25.92,7.92 C24.084,6.948 21.132,6.912 18.432,7.884 C16.812,8.46 13.752,9.756 11.448,11.88 C9.144,14.04 8.784,15.948 8.964,16.704 C9.36,18.792 11.556,20.268 13.284,21.492 C13.752,21.816 14.184,22.104 14.508,22.392 C13.536,22.896 10.908,24.372 10.188,25.92 C9.648,27.144 9.9,28.044 10.116,28.44 C10.332,28.908 10.692,29.268 11.052,29.376 C11.412,29.484 11.808,29.52 12.204,29.52 C13.752,29.52 15.264,28.692 16.2,27.288 C17.136,25.884 17.208,24.012 16.776,22.86 C17.388,22.716 18.036,22.716 18.756,22.788 C20.16,22.968 20.844,23.508 21.168,23.94 C21.528,24.408 21.6,24.876 21.564,25.164 C21.492,25.704 21.06,26.028 20.844,26.172 C20.664,26.28 20.52,26.388 20.556,26.604 C20.628,26.892 20.916,26.856 21.024,26.856 C21.348,26.784 22.5,26.208 22.572,24.912 C22.608,24.12 22.284,23.328 21.672,22.68 C20.88,21.852 19.692,21.42 18.324,21.456 C17.316,21.456 16.632,21.564 16.092,21.744 C16.092,21.744 16.056,21.708 16.056,21.708 C15.552,21.168 14.868,20.664 14.256,20.16 C12.816,19.08 11.484,18.036 11.556,16.488 C11.664,14.544 13.572,12.636 17.28,10.8 C20.556,9.18 23.22,9.108 24.624,9.612 C25.2,9.828 25.596,10.116 25.74,10.44 C26.028,11.052 25.92,11.844 25.416,12.708 C24.588,14.148 22.5,15.948 19.296,16.308 C17.352,16.524 16.524,15.66 16.488,15.624 C16.272,15.372 16.128,15.228 15.876,15.372 C15.588,15.516 15.732,15.912 15.804,16.056 C15.948,16.452 16.56,17.136 17.604,17.496 C18.432,17.784 20.556,17.964 23.184,16.956 C26.208,15.732 28.296,12.492 27.684,10.008 Z M15.264,25.344 C15.228,25.416 15.228,25.488 15.192,25.56 C15.156,25.632 15.12,25.704 15.12,25.776 C14.976,26.1 14.76,26.424 14.472,26.712 C13.644,27.612 12.528,27.864 12.168,27.648 C12.06,27.576 12.024,27.468 11.988,27.324 C11.916,26.892 12.168,26.028 12.924,25.272 C13.824,24.336 15.084,23.652 15.372,23.508 C15.48,24.156 15.444,24.768 15.264,25.344 Z" id="Shape" fill="#FFFFFF"></path>
        </g>
    </g>
</svg>