<?xml version="1.0" encoding="UTF-8"?>
<svg width="50px" height="50px" viewBox="0 0 50 50" version="1.1" xmlns="http://www.w3.org/2000/svg" xmlns:xlink="http://www.w3.org/1999/xlink">
    <!-- Generator: Sketch 64 (93537) - https://sketch.com -->
    <title>Zeplin Copy 8</title>
    <desc>Created with Sketch.</desc>
    <g id="Zeplin-Copy-8" stroke="none" stroke-width="1" fill="none" fill-rule="evenodd">
        <rect id="Rectangle" opacity="0" x="0" y="0" width="50" height="50" rx="6"></rect>
        <g id="Google__G__Logo" transform="translate(7.000000, 7.000000)" fill-rule="nonzero">
            <path d="M35.2417582,18.421978 C35.2417582,17.2021978 35.1428571,15.9758242 34.9318681,14.7758242 L18.0065934,14.7758242 L18.0065934,21.6857143 L27.6989011,21.6857143 C27.2967033,23.9142857 26.0043956,25.8857143 24.1120879,27.1384615 L24.1120879,31.621978 L29.8945055,31.621978 C33.2901099,28.4967033 35.2417582,23.8813187 35.2417582,18.421978 Z" id="Path" fill="#4285F4"></path>
            <path d="M18.0065934,35.9538462 C22.8461538,35.9538462 26.9274725,34.3648352 29.9010989,31.621978 L24.1186813,27.1384615 C22.5098901,28.232967 20.432967,28.8527473 18.0131868,28.8527473 C13.3318681,28.8527473 9.36263736,25.6945055 7.93846154,21.4483516 L1.97142857,21.4483516 L1.97142857,26.0703297 C5.01758242,32.1296703 11.221978,35.9538462 18.0065934,35.9538462 Z" id="Path" fill="#34A853"></path>
            <path d="M7.93186813,21.4483516 C7.18021978,19.2197802 7.18021978,16.8065934 7.93186813,14.578022 L7.93186813,9.95604396 L1.97142857,9.95604396 C-0.573626374,15.0263736 -0.573626374,21 1.97142857,26.0703297 L7.93186813,21.4483516 Z" id="Path" fill="#FBBC04"></path>
            <path d="M18.0065934,7.16703297 C20.5648352,7.12747253 23.0373626,8.09010989 24.8901099,9.85714286 L24.8901099,9.85714286 L30.0131868,4.73406593 C26.7692308,1.68791209 22.4637363,0.0131868132 18.0065934,0.0659340659 C11.221978,0.0659340659 5.01758242,3.89010989 1.97142857,9.95604396 L7.93186813,14.578022 C9.34945055,10.3252747 13.3252747,7.16703297 18.0065934,7.16703297 Z" id="Path" fill="#EA4335"></path>
        </g>
    </g>
</svg>