<?xml version="1.0" encoding="UTF-8"?>
<svg width="50px" height="50px" viewBox="0 0 50 50" version="1.1" xmlns="http://www.w3.org/2000/svg" xmlns:xlink="http://www.w3.org/1999/xlink">
    <title>Zeplin Copy 34</title>
    <g id="Zeplin-Copy-34" stroke="none" stroke-width="1" fill="none" fill-rule="evenodd">
        <rect id="Rectangle" opacity="0" x="0" y="0" width="50" height="50" rx="6"></rect>
        <g id="Shopify_logo_2018" transform="translate(9.000000, 7.000000)" fill-rule="nonzero">
            <path d="M27.7907248,7.11023072 C27.7697506,6.92146353 27.6019576,6.837567 27.4761128,6.837567 C27.350268,6.837567 24.6026567,6.62782568 24.6026567,6.62782568 C24.6026567,6.62782568 22.6940107,4.71917968 22.4632953,4.53041249 C22.253554,4.32067117 21.8550454,4.38359357 21.6872524,4.42554183 C21.6662783,4.42554183 21.2677698,4.55138662 20.6175717,4.76112794 C19.9673736,2.8944302 18.8557446,1.19552552 16.8632021,1.19552552 L16.6744349,1.19552552 C16.1291074,0.482405034 15.4159869,0.146818923 14.8287113,0.146818923 C10.2144022,0.146818923 7.99114426,5.9147052 7.2989979,8.85108366 C5.49522256,9.41738522 4.21580051,9.7949196 4.06898159,9.85784199 C3.06222326,10.172454 3.04124913,10.1934281 2.91540433,11.137264 C2.81053368,11.8503845 0.188767187,32.1323701 0.188767187,32.1323701 L20.5965975,35.9496621 L31.6710239,33.558611 C31.6919133,33.5166628 27.8116989,7.2989979 27.7907248,7.11023072 Z M19.4849685,5.05476579 C18.9815894,5.20158471 18.3733395,5.3903519 17.7650897,5.60009322 L17.7650897,5.22255884 C17.7650897,4.08995572 17.6182708,3.16709392 17.3456071,2.4329993 C18.3943137,2.55884409 19.0445118,3.71242135 19.4849685,5.05476579 Z M16.066185,2.66371475 C16.3388488,3.37683524 16.5276159,4.38359357 16.5276159,5.76788627 L16.5276159,5.97762759 C15.3950128,6.33418784 14.1994873,6.69074808 12.9620135,7.08925658 C13.6541599,4.44651596 14.9755302,3.14611979 16.066185,2.66371475 Z M14.7238406,1.36331857 C14.9335819,1.36331857 15.1433232,1.4472151 15.3111163,1.57305989 C13.8219529,2.26520625 12.248893,4.00605919 11.5986949,7.52971335 C10.6129107,7.84432533 9.66907481,8.11698905 8.76718714,8.41062689 C9.52225588,5.72593801 11.4099278,1.36331857 14.7238406,1.36331857 L14.7238406,1.36331857 Z" id="Shape" fill="#95BF47"></path>
            <path d="M27.4761128,6.79561874 C27.350268,6.79561874 24.6026567,6.58587742 24.6026567,6.58587742 C24.6026567,6.58587742 22.6940107,4.67723141 22.4632953,4.48846423 C22.3793987,4.4045677 22.2745281,4.36261944 22.1906316,4.36261944 L20.6595199,35.9496621 L31.7338616,33.558611 C31.7338616,33.558611 27.8536472,7.2989979 27.832673,7.11023072 C27.7487765,6.92146353 27.6019576,6.837567 27.4761128,6.79561874 L27.4761128,6.79561874 Z" id="Path" fill="#5E8E3E"></path>
            <path d="M16.8632021,12.9200653 L15.5208576,16.9680727 C15.5208576,16.9680727 14.304358,16.3178746 12.8571429,16.3178746 C10.6968073,16.3178746 10.5919366,17.6811932 10.5919366,18.0167793 C10.5919366,19.8625029 15.4159869,20.5756234 15.4159869,24.9172687 C15.4159869,28.3360522 13.2556514,30.5383361 10.340247,30.5383361 C6.81659287,30.5383361 5.05476579,28.3570263 5.05476579,28.3570263 L5.99860172,25.2528548 C5.99860172,25.2528548 7.84432533,26.8468888 9.39641109,26.8468888 C10.4241436,26.8468888 10.8436262,26.0498718 10.8436262,25.4625961 C10.8436262,23.050571 6.9004894,22.9457003 6.9004894,18.9606152 C6.9004894,15.6257283 9.29154043,12.395712 14.1365649,12.395712 C15.9403402,12.3747378 16.8632021,12.9200653 16.8632021,12.9200653 L16.8632021,12.9200653 Z" id="Path" fill="#FFFFFF"></path>
        </g>
    </g>
</svg>