<?xml version="1.0" encoding="UTF-8"?>
<svg width="50px" height="50px" viewBox="0 0 50 50" version="1.1" xmlns="http://www.w3.org/2000/svg" xmlns:xlink="http://www.w3.org/1999/xlink">
    <!-- Generator: Sketch 64 (93537) - https://sketch.com -->
    <title>Artboard Copy</title>
    <desc>Created with Sketch.</desc>
    <g id="Artboard-Copy" stroke="none" stroke-width="1" fill="none" fill-rule="evenodd">
        <rect id="Rectangle" opacity="0" x="0" y="0" width="50" height="50" rx="6"></rect>
        <g id="Sketch" transform="translate(5.000000, 7.500000)" fill-rule="nonzero">
            <polygon id="Path" fill="#FDB300" points="8.70967746 1.18935583 19.9596775 0 31.2096775 1.18935583 39.9193548 12.8813283 19.9596775 36.1241634 0 12.8813283"></polygon>
            <g id="Group" transform="translate(0.000000, 12.881328)">
                <polygon id="Path" fill="#EA6C00" points="8.08467005 0 19.9596954 23.2428426 0 0"></polygon>
                <polygon id="Path" fill="#EA6C00" transform="translate(29.939489, 11.621421) scale(-1, 1) translate(-29.939489, -11.621421) " points="28.0443115 0 39.9193369 23.2428426 19.9596414 0"></polygon>
                <polygon id="Path" fill="#FDAD00" points="8.08467005 0 31.8347208 0 19.9596954 23.2428426"></polygon>
            </g>
            <g id="Group">
                <polygon id="Path" fill="#FDD231" points="19.9596954 0 8.70964467 1.1893401 8.08467005 12.8813198"></polygon>
                <polygon id="Path" fill="#FDD231" transform="translate(25.897147, 6.440660) scale(-1, 1) translate(-25.897147, -6.440660) " points="31.8346595 0 20.5846087 1.1893401 19.9596341 12.8813198"></polygon>
                <polygon id="Path" fill="#FDAD00" transform="translate(35.564515, 7.035330) scale(-1, 1) translate(-35.564515, -7.035330) " points="31.2096414 12.8813198 39.9193876 1.1893401 39.2943115 12.8813198"></polygon>
                <polygon id="Path" fill="#FDAD00" points="0 12.8813198 8.70964467 1.1893401 8.08467005 12.8813198"></polygon>
                <polygon id="Path" fill="#FEEEB7" points="19.9596954 0 8.08467005 12.8813198 31.8347208 12.8813198"></polygon>
            </g>
        </g>
    </g>
</svg>