<?xml version="1.0" encoding="UTF-8"?>
<svg width="50px" height="50px" viewBox="0 0 50 50" version="1.1" xmlns="http://www.w3.org/2000/svg" xmlns:xlink="http://www.w3.org/1999/xlink">
    <!-- Generator: Sketch 64 (93537) - https://sketch.com -->
    <title>Zeplin Copy 5</title>
    <desc>Created with Sketch.</desc>
    <g id="Zeplin-Copy-5" stroke="none" stroke-width="1" fill="none" fill-rule="evenodd">
        <rect id="Rectangle" opacity="0" x="0" y="0" width="50" height="50" rx="6"></rect>
        <g id="slack-new-logo-(1)" transform="translate(7.000000, 7.000000)" fill-rule="nonzero">
            <path d="M13.1970588,0 C11.2073529,0.00147058824 9.59705882,1.61617647 9.59852841,3.60588235 C9.59705882,5.59558824 11.2088235,7.21029412 13.1985294,7.21176471 L16.7985304,7.21176471 L16.7985304,3.60735294 C16.8,1.61764706 15.1882353,0.00294117647 13.1970588,0 C13.1985294,0 13.1985294,0 13.1970588,0 M13.1970588,9.61764706 L3.6,9.61764706 C1.61029412,9.61911765 -0.00147058824,11.2338235 -4.01893542e-06,13.2235294 C-0.00294117647,15.2132353 1.60882353,16.8279412 3.59852941,16.8308824 L13.1970588,16.8308824 C15.1867647,16.8294118 16.7985294,15.2147059 16.7970598,13.225 C16.7985294,11.2338235 15.1867647,9.61911765 13.1970588,9.61764706 Z" id="Shape" fill="#36C5F0"></path>
            <path d="M35.9941187,13.2235294 C35.9955882,11.2338235 34.3838235,9.61911765 32.3941176,9.61764706 C30.4044118,9.61911765 28.7926471,11.2338235 28.7941166,13.2235294 L28.7941166,16.8308824 L32.3941176,16.8308824 C34.3838235,16.8294118 35.9955882,15.2147059 35.9941187,13.2235294 Z M26.3955892,13.2235294 L26.3955892,3.60588235 C26.3970588,1.61764706 24.7867647,0.00294117647 22.7970588,0 C20.8073529,0.00147058824 19.1955882,1.61617647 19.1970548,3.60588235 L19.1970548,13.2235294 C19.1941176,15.2132353 20.8058824,16.8279412 22.7955882,16.8308824 C24.7852941,16.8294118 26.3970588,15.2147059 26.3955892,13.2235294 Z" id="Shape" fill="#2EB67D"></path>
            <path d="M22.7955882,36.0661765 C24.7852941,36.0647059 26.3970588,34.45 26.3955892,32.4602941 C26.3970588,30.4705882 24.7852941,28.8558824 22.7955882,28.8544118 L19.1955872,28.8544118 L19.1955872,32.4602941 C19.1941176,34.4485294 20.8058824,36.0632353 22.7955882,36.0661765 Z M22.7955882,26.4470588 L32.3941176,26.4470588 C34.3838235,26.4455882 35.9955882,24.8308824 35.9941217,22.8411765 C35.9970588,20.8514706 34.3852941,19.2367647 32.3955882,19.2338235 L22.7970588,19.2338235 C20.8073529,19.2352941 19.1955882,20.85 19.1970578,22.8397059 C19.1955882,24.8308824 20.8058824,26.4455882 22.7955882,26.4470588 L22.7955882,26.4470588 Z" id="Shape" fill="#ECB22E"></path>
            <path d="M-1.00553284e-06,22.8411765 C-0.00147058824,24.8308824 1.61029412,26.4455882 3.6,26.4470588 C5.58970588,26.4455882 7.20147059,24.8308824 7.20000101,22.8411765 L7.20000101,19.2352941 L3.6,19.2352941 C1.61029412,19.2367647 -0.00147058824,20.8514706 -1.00553284e-06,22.8411765 Z M9.59852539,22.8411765 L9.59852539,32.4588235 C9.59558824,34.4485294 11.2073529,36.0632353 13.1970588,36.0661765 C15.1867647,36.0647059 16.7985294,34.45 16.7970628,32.4602941 L16.7970628,22.8441176 C16.8,20.8544118 15.1882353,19.2397059 13.1985294,19.2367647 C11.2073529,19.2367647 9.59705882,20.8514706 9.59852539,22.8411765 C9.59852539,22.8411765 9.59852539,22.8426471 9.59852539,22.8411765" id="Shape" fill="#E01E5A"></path>
        </g>
    </g>
</svg>