<?xml version="1.0" encoding="UTF-8"?>
<svg width="50px" height="50px" viewBox="0 0 50 50" version="1.1" xmlns="http://www.w3.org/2000/svg" xmlns:xlink="http://www.w3.org/1999/xlink">
    <title>Zeplin Copy 35</title>
    <g id="Zeplin-Copy-35" stroke="none" stroke-width="1" fill="none" fill-rule="evenodd">
        <rect id="Rectangle" opacity="0" x="0" y="0" width="50" height="50" rx="6"></rect>
        <g id="SquareSpace-01" transform="translate(7.000000, 11.000000)" fill="#1A1918" fill-rule="nonzero">
            <path d="M22.8983607,5.78360656 C22.2196721,5.10491803 21.1278689,5.10491803 20.4491803,5.78360656 L9.42295082,16.8098361 C8.06557377,18.157377 5.87213115,18.157377 4.52459016,16.8098361 C3.16721311,15.452459 3.16721311,13.2590164 4.52459016,11.9114754 L15.3344262,1.10163934 C13.9770492,-0.255737705 11.7836066,-0.255737705 10.4360656,1.10163934 L2.07540984,9.46229508 C-0.629508197,12.1672131 -0.629508197,16.5540984 2.07540984,19.2590164 C4.78032787,21.9639344 9.16721311,21.9639344 11.8721311,19.2590164 L22.8983607,8.23278689 C23.5770492,7.56393443 23.5770492,6.46229508 22.8983607,5.78360656 Z M26.5770492,2.1147541 C23.8721311,-0.590163934 19.4852459,-0.590163934 16.7803279,2.1147541 L5.75409836,13.1311475 C5.07540984,13.8098361 5.07540984,14.9016393 5.75409836,15.5803279 C6.43278689,16.2590164 7.52459016,16.2590164 8.20327869,15.5803279 L19.2295082,4.55409836 C20.5868852,3.19672131 22.7704918,3.19672131 24.1278689,4.55409836 C24.8065574,5.23278689 25.8983607,5.23278689 26.5770492,4.55409836 C27.2459016,3.8852459 27.2459016,2.79344262 26.5770492,2.1147541 Z M30.2459016,13.1311475 C29.5672131,12.452459 28.4754098,12.452459 27.7967213,13.1311475 L16.7704918,24.157377 C15.4131148,25.5147541 13.2196721,25.5147541 11.8721311,24.157377 C11.1934426,23.4786885 10.1016393,23.4786885 9.42295082,24.157377 C8.7442623,24.8360656 8.7442623,25.9278689 9.42295082,26.6065574 C12.1278689,29.3114754 16.5147541,29.3114754 19.2196721,26.6065574 L30.2459016,15.5803279 C30.9245902,14.9114754 30.9245902,13.8098361 30.2459016,13.1311475 Z M33.9245902,9.46229508 C31.2196721,6.75737705 26.8327869,6.75737705 24.1278689,9.46229508 L13.1016393,20.4885246 C12.4229508,21.1672131 12.4229508,22.2590164 13.1016393,22.9377049 C13.7803279,23.6163934 14.8721311,23.6163934 15.5508197,22.9377049 L26.5770492,11.9114754 C27.9245902,10.5540984 30.1278689,10.5540984 31.4754098,11.9114754 C32.8327869,13.2688525 32.8327869,15.4622951 31.4754098,16.8098361 L20.6655738,27.6196721 C22.0229508,28.9672131 24.2065574,28.9672131 25.5639344,27.6196721 L33.9245902,19.2590164 C36.6295082,16.5540984 36.6295082,12.1672131 33.9245902,9.46229508 Z" id="XMLID_2_"></path>
        </g>
    </g>
</svg>