<?xml version="1.0" encoding="UTF-8"?>
<svg width="50px" height="50px" viewBox="0 0 50 50" version="1.1" xmlns="http://www.w3.org/2000/svg" xmlns:xlink="http://www.w3.org/1999/xlink">
    <!-- Generator: Sketch 64 (93537) - https://sketch.com -->
    <title>Zeplin Copy 12</title>
    <desc>Created with Sketch.</desc>
    <defs>
        <linearGradient x1="50%" y1="0%" x2="50%" y2="100%" id="linearGradient-1">
            <stop stop-color="#F88A36" offset="0%"></stop>
            <stop stop-color="#FD2020" offset="100%"></stop>
        </linearGradient>
    </defs>
    <g id="Zeplin-Copy-12" stroke="none" stroke-width="1" fill="none" fill-rule="evenodd">
        <rect id="Rectangle" opacity="0" x="0" y="0" width="50" height="50" rx="6"></rect>
        <g id="Swift_logo-(1)" transform="translate(7.000000, 9.000000)" fill="url(#linearGradient-1)" fill-rule="nonzero">
            <path d="M26.8965,29.7423 C22.6962,32.1687 16.9209,32.418 11.1105,29.9277 C6.40593,27.9261 2.50236,24.4224 1.59872116e-15,20.4192 C1.20114,21.42 2.60244,22.221 4.10382,22.9212 C10.1043,25.7337 16.10352,25.5411 20.32542,22.9284 C20.32272,22.9257 20.32092,22.9239 20.31912,22.9212 C14.31342,18.3168 9.20862,12.3111 5.40522,7.407 C4.60413,6.60618 4.00356,5.6052 3.40299,4.70439 C8.0073,8.90829 15.31449,14.21289 17.91639,15.71499 C12.41199,9.90909 7.50699,2.70279 7.70679,2.90259 C16.41519,11.71089 24.52329,16.71579 24.52329,16.71579 C24.79149,16.86699 24.99849,16.99299 25.16499,17.10549 C25.34049,16.65909 25.49439,16.19559 25.62399,15.71499 C27.02529,10.61019 25.42419,4.80429 21.92049,9e-05 C30.02769,4.90464 34.83279,14.11299 32.83029,21.82059 C32.77809,22.02849 32.72139,22.23369 32.66019,22.43529 C32.68359,22.46319 32.70699,22.49199 32.73039,22.52169 C36.73359,27.52659 35.63289,32.83119 35.13249,31.83039 C32.96079,27.58059 28.94049,28.88019 26.89659,29.74239 L26.8965,29.7423 Z" id="Path"></path>
        </g>
    </g>
</svg>