<?xml version="1.0" encoding="UTF-8"?>
<svg width="50px" height="50px" viewBox="0 0 50 50" version="1.1" xmlns="http://www.w3.org/2000/svg" xmlns:xlink="http://www.w3.org/1999/xlink">
    <title>Zeplin Copy 36</title>
    <g id="Zeplin-Copy-36" stroke="none" stroke-width="1" fill="none" fill-rule="evenodd">
        <rect id="Rectangle" opacity="0" x="0" y="0" width="50" height="50" rx="6"></rect>
        <path d="M26.3579438,22.1782904 C27.3170287,20.7716696 28.5632647,20.7848508 29.9033034,21.2499583 C31.371603,21.7583755 30.5350359,23.2685627 30.2229984,23.7525005 C28.149767,26.9781248 25.3107993,28.9477705 20.3009688,29.4015799 C16.5086592,29.7499397 13.2447077,28.8385549 12.3105093,28.4318212 C14.3167387,31.4220672 19.3993141,35.4197324 25.5692353,34.7267787 C31.1437964,34.1016139 33.7243281,31.973794 35.8779618,28.1719636 C36.3278319,27.3773264 37.1663133,27.4357002 37.7559303,28.2209223 C38.7131008,29.4957312 38.9734512,30.8496272 38.1100834,31.9624958 C34.520694,36.5872088 30.6862689,38.4363408 25.2246539,38.4984806 C10.086045,38.66607 5.94723969,24.9162108 7.21453345,23.6639983 C7.92283964,22.9653954 14.0449023,26.3190656 19.1427924,25.7598067 C22.9676458,25.3398918 24.8034989,24.4624015 26.3579438,22.1782904 Z M39.1610567,11.5052965 C39.915307,11.3490053 41.8755922,14.6631318 39.8463907,19.9261908 C44.8351635,25.9311621 42.6604721,29.9721369 41.6497,29.985359 C40.3632628,30.0003823 40.2426593,25.853958 35.7535296,21.9899877 C31.5630371,18.374577 27.0873077,19.09201 27.0222201,18.095889 C26.9456465,16.8945182 30.3550879,14.6461846 35.7937308,17.1129492 C37.4017772,15.099994 38.5503819,11.6371083 39.1610567,11.5052965 Z" id="Combined-Shape" fill="#08B234" fill-rule="nonzero"></path>
    </g>
</svg>