<?xml version="1.0" encoding="UTF-8"?>
<svg width="50px" height="50px" viewBox="0 0 50 50" version="1.1" xmlns="http://www.w3.org/2000/svg" xmlns:xlink="http://www.w3.org/1999/xlink">
    <!-- Generator: Sketch 64 (93537) - https://sketch.com -->
    <title>Zeplin Copy 30</title>
    <desc>Created with Sketch.</desc>
    <defs>
        <polygon id="path-1" points="0.00538653367 0.00359102244 35.9102244 0.00359102244 35.9102244 35.9102244 0.00538653367 35.9102244"></polygon>
    </defs>
    <g id="Zeplin-Copy-30" stroke="none" stroke-width="1" fill="none" fill-rule="evenodd">
        <rect id="Rectangle" opacity="0" x="0" y="0" width="50" height="50" rx="6"></rect>
        <g id="zapier-logomark" transform="translate(7.000000, 7.000000)">
            <mask id="mask-2" fill="white">
                <use xlink:href="#path-1"></use>
            </mask>
            <g id="Clip-2"></g>
            <path d="M22.4438903,17.9629227 C22.4430823,19.2971671 22.1990723,20.574404 21.7543242,21.753606 C20.5754813,22.1982643 19.297616,22.4429027 17.9628329,22.4438903 L17.9473915,22.4438903 C16.6132369,22.4429027 15.3357307,22.1989825 14.1568878,21.754414 C13.7121397,20.5753915 13.4672319,19.2975262 13.4663342,17.9629227 L13.4663342,17.9473915 C13.4672319,16.6131471 13.711601,15.3358204 14.1556309,14.156798 C15.3351022,13.7119601 16.6126983,13.4671421 17.9473915,13.4663342 L17.9628329,13.4663342 C19.297616,13.4671421 20.5754813,13.7119601 21.7543242,14.156798 C22.1990723,15.3358204 22.4430823,16.6131471 22.4438903,17.9473915 L22.4438903,17.9629227 Z M35.6606484,14.9626234 L25.1797107,14.9626234 L32.5906833,7.5515611 C32.0082195,6.73343641 31.358783,5.96630424 30.6504539,5.25806484 L30.6500948,5.25770574 C29.942394,4.55018454 29.1758903,3.90146633 28.3586633,3.31954115 L20.947601,10.7305137 L20.947601,0.249665835 C19.9773067,0.0868129676 18.9811571,0.000538653367 17.9646284,0 L17.9455062,0 C16.9290673,0.000538653367 15.9329177,0.0868129676 14.9626234,0.249665835 L14.9626234,10.7306035 L7.5515611,3.31954115 C6.73388529,3.90173566 5.96711222,4.55081297 5.25923192,5.25869327 L5.25662843,5.26120698 C4.54955611,5.96854863 3.90128678,6.73469327 3.31963092,7.5515611 L10.7306933,14.9626234 L0.24957606,14.9626234 C0.24957606,14.9626234 0.000359102244,16.9311322 0,17.9485586 L0,17.9613965 C0.000359102244,18.9790025 0.086723192,19.976409 0.249665835,20.947601 L10.7305137,20.947601 L3.31963092,28.3585736 C4.48428928,29.994015 5.9161197,31.4260249 7.55165087,32.5906833 L14.9626234,25.1798005 L14.9626234,35.6605586 C15.9318404,35.8231421 16.9270025,35.9095062 17.9423641,35.9102244 L17.9680399,35.9102244 C18.9833117,35.9095062 19.978384,35.8231421 20.947601,35.6606484 L20.947601,25.1796209 L28.3587531,32.5905935 C29.1761596,32.0085786 29.9426633,31.3597706 30.6504539,30.6521596 L30.6522494,30.6504539 C31.3597706,29.9426633 32.0085786,29.1760698 32.5905935,28.3587531 L25.1796209,20.947601 L35.6605586,20.947601 C35.8231421,19.978384 35.9095062,18.9832219 35.9102244,17.9678603 L35.9102244,17.9421845 C35.9095062,16.9269127 35.8231421,15.9318404 35.6606484,14.9626234 L35.6606484,14.9626234 Z" id="Fill-1" fill="#FF4A00" mask="url(#mask-2)"></path>
        </g>
    </g>
</svg>