<?xml version="1.0" encoding="UTF-8"?>
<svg width="50px" height="50px" viewBox="0 0 50 50" version="1.1" xmlns="http://www.w3.org/2000/svg" xmlns:xlink="http://www.w3.org/1999/xlink">
    <!-- Generator: Sketch 64 (93537) - https://sketch.com -->
    <title>Zeplin</title>
    <desc>Created with Sketch.</desc>
    <g id="Zeplin" stroke="none" stroke-width="1" fill="none" fill-rule="evenodd">
        <rect id="Rectangle" opacity="0" x="0" y="0" width="50" height="50" rx="6"></rect>
        <g id="21_zeplin-icon.e68bcddddd" transform="translate(3.500000, 8.000000)" stroke-linecap="round" stroke-linejoin="round">
            <g id="A-link" transform="translate(0.326923, 0.326923)">
                <g id="A">
                    <g id="Group">
                        <polygon id="Path" fill="#F89920" points="4.369 23.3815385 0 18.4946923 13.3724615 13.6268077 15.4536538 19.346"></polygon>
                        <polygon id="Path" fill="#FFBE22" points="4.33696154 23.2926154 4.131 29.8441538 17.5034615 24.9769231 15.4222692 19.2583846"></polygon>
                        <path d="M41.4996154,9.877 C43.4075385,15.4052692 37.2594231,22.6688462 27.6956154,26.1499231 C18.1318077,29.631 8.75238462,28.0179615 6.66007692,22.5563846 L41.4996154,9.877 Z" id="Path" fill="#F0670A"></path>
                        <path d="M41.4996154,9.877 C39.4269231,4.40169231 30.0324615,2.78276923 20.4653846,6.26646154 C10.8983077,9.75015385 4.73253846,17.0261538 6.66007692,22.5576923 L41.4996154,9.877 Z" id="Path" fill="#FFD00E"></path>
                        <path d="M41.4983077,9.877 C42.6883077,13.5758077 36.006,19.3361923 26.4781538,22.8061538 C16.9503077,26.2761154 8.12730769,26.1538462 6.66138462,22.5563846 L41.4983077,9.877 Z" id="Path" fill="#F89920"></path>
                        <path d="M41.4996154,9.877 C40.0611538,6.26123077 31.2257308,6.13373077 21.675,9.61546154 C12.1242692,13.0971923 5.44392308,18.8582308 6.66073077,22.5616154 L41.4996154,9.877 Z" id="Path" fill="#FFBE22"></path>
                        <g transform="translate(13.076923, 0.000000)" fill="#F0670A" fill-rule="nonzero" id="Path">
                            <path d="M12.3498462,4.85807692 C11.4396923,1.71307692 10.4046538,-0.0326923077 9.22707692,0.000653846154 C6.95169231,0.0660384615 6.18669231,7.28188462 6.92292308,16.5285769 C7.66830769,25.8733462 9.59846154,32.8943462 12.0052692,32.8302692 C13.4411154,32.7923462 14.2492692,30.4960385 14.5330385,26.5088846 C14.5395769,26.4271538 14.4480385,26.4840385 14.4532692,26.401 C14.4532692,26.401 14.4415,26.2558462 14.3878846,26.2519231 L14.0825385,26.2323077 C13.8327692,30.1030769 13.0756154,32.3346538 11.9928462,32.3627692 C10.0143077,32.4150769 8.10376923,25.4699231 7.38976923,16.4919615 C6.68623077,7.66111538 7.44338462,0.519807692 9.24015385,0.468153846 C10.0901538,0.443961538 11.0447692,2.05046154 11.8882308,4.94896154 L12.3491923,4.85873077 L12.3498462,4.85807692 Z"></path>
                            <path d="M1.07230769,2.61407692 C-0.866346154,3.808 2.07923077,10.4406154 7.34073077,18.0801538 C12.6578077,25.8007692 17.8401923,30.9151538 19.8932692,29.6565 C21.0407692,28.9529615 20.7190769,26.8175 19.2407308,23.5953462 C19.2080385,23.5168846 19.1348077,23.4613077 19.0491538,23.4515 C18.9635,23.4416923 18.8804615,23.4809231 18.8320769,23.5508846 C18.783599,23.6215319 18.7773381,23.7129411 18.8157308,23.7895385 C20.1888077,26.7861154 20.4843462,28.7456923 19.6480769,29.2576538 C17.9611538,30.2907308 12.835,25.2332308 7.72584615,17.8153462 C2.70169231,10.5197308 -0.213153846,3.95707692 1.31815385,3.01357692 C2.13088462,2.51273077 4.06430769,3.72103846 6.61430769,6.33184615 C6.64307692,6.36061538 6.80588462,6.52996154 6.84315385,6.54107692 C6.92161538,6.56526923 6.88238462,6.39723077 6.94580769,6.33511538 C6.99026923,6.29196154 7.01576923,6.23246154 7.01642308,6.17034615 C7.0169255,6.10836551 6.99296057,6.04868811 6.94973077,6.00426923 C4.21665385,3.20776923 2.16880769,1.93276923 1.06511538,2.61276923 L1.07230769,2.61407692 Z"></path>
                        </g>
                    </g>
                </g>
            </g>
            <g id="A">
                <g id="Group">
                    <polygon id="Path" fill="#F89920" points="4.369 23.3815385 0 18.4946923 13.3724615 13.6268077 15.4536538 19.346"></polygon>
                    <polygon id="Path" fill="#FFBE22" points="4.33696154 23.2926154 4.131 29.8441538 17.5034615 24.9769231 15.4222692 19.2583846"></polygon>
                    <path d="M41.4996154,9.877 C43.4075385,15.4052692 37.2594231,22.6688462 27.6956154,26.1499231 C18.1318077,29.631 8.75238462,28.0179615 6.66007692,22.5563846 L41.4996154,9.877 Z" id="Path" fill="#F0670A"></path>
                    <path d="M41.4996154,9.877 C39.4269231,4.40169231 30.0324615,2.78276923 20.4653846,6.26646154 C10.8983077,9.75015385 4.73253846,17.0261538 6.66007692,22.5576923 L41.4996154,9.877 Z" id="Path" fill="#FFD00E"></path>
                    <path d="M41.4983077,9.877 C42.6883077,13.5758077 36.006,19.3361923 26.4781538,22.8061538 C16.9503077,26.2761154 8.12730769,26.1538462 6.66138462,22.5563846 L41.4983077,9.877 Z" id="Path" fill="#F89920"></path>
                    <path d="M41.4996154,9.877 C40.0611538,6.26123077 31.2257308,6.13373077 21.675,9.61546154 C12.1242692,13.0971923 5.44392308,18.8582308 6.66073077,22.5616154 L41.4996154,9.877 Z" id="Path" fill="#FFBE22"></path>
                    <g transform="translate(13.076923, 0.000000)" fill="#F0670A" fill-rule="nonzero" id="Path">
                        <path d="M12.3498462,4.85807692 C11.4396923,1.71307692 10.4046538,-0.0326923077 9.22707692,0.000653846154 C6.95169231,0.0660384615 6.18669231,7.28188462 6.92292308,16.5285769 C7.66830769,25.8733462 9.59846154,32.8943462 12.0052692,32.8302692 C13.4411154,32.7923462 14.2492692,30.4960385 14.5330385,26.5088846 C14.5395769,26.4271538 14.4480385,26.4840385 14.4532692,26.401 C14.4532692,26.401 14.4415,26.2558462 14.3878846,26.2519231 L14.0825385,26.2323077 C13.8327692,30.1030769 13.0756154,32.3346538 11.9928462,32.3627692 C10.0143077,32.4150769 8.10376923,25.4699231 7.38976923,16.4919615 C6.68623077,7.66111538 7.44338462,0.519807692 9.24015385,0.468153846 C10.0901538,0.443961538 11.0447692,2.05046154 11.8882308,4.94896154 L12.3491923,4.85873077 L12.3498462,4.85807692 Z"></path>
                        <path d="M1.07230769,2.61407692 C-0.866346154,3.808 2.07923077,10.4406154 7.34073077,18.0801538 C12.6578077,25.8007692 17.8401923,30.9151538 19.8932692,29.6565 C21.0407692,28.9529615 20.7190769,26.8175 19.2407308,23.5953462 C19.2080385,23.5168846 19.1348077,23.4613077 19.0491538,23.4515 C18.9635,23.4416923 18.8804615,23.4809231 18.8320769,23.5508846 C18.783599,23.6215319 18.7773381,23.7129411 18.8157308,23.7895385 C20.1888077,26.7861154 20.4843462,28.7456923 19.6480769,29.2576538 C17.9611538,30.2907308 12.835,25.2332308 7.72584615,17.8153462 C2.70169231,10.5197308 -0.213153846,3.95707692 1.31815385,3.01357692 C2.13088462,2.51273077 4.06430769,3.72103846 6.61430769,6.33184615 C6.64307692,6.36061538 6.80588462,6.52996154 6.84315385,6.54107692 C6.92161538,6.56526923 6.88238462,6.39723077 6.94580769,6.33511538 C6.99026923,6.29196154 7.01576923,6.23246154 7.01642308,6.17034615 C7.0169255,6.10836551 6.99296057,6.04868811 6.94973077,6.00426923 C4.21665385,3.20776923 2.16880769,1.93276923 1.06511538,2.61276923 L1.07230769,2.61407692 Z"></path>
                    </g>
                </g>
            </g>
        </g>
    </g>
</svg>